STARTFONT 2.1
COMMENT
COMMENT Converted from OpenType font "Lato-Bold.ttf" by "otf2bdf 3.0".
COMMENT
FONT -FreeType-Lato-Bold-R-Normal--55-400-100-100-P-292-ISO10646-1
SIZE 40 100 100
FONTBOUNDINGBOX 104 75 -29 -15
STARTPROPERTIES 19
FOUNDRY "FreeType"
FAMILY_NAME "Lato"
WEIGHT_NAME "Bold"
SLANT "R"
SETWIDTH_NAME "Normal"
ADD_STYLE_NAME ""
PIXEL_SIZE 55
POINT_SIZE 400
RESOLUTION_X 100
RESOLUTION_Y 100
SPACING "P"
AVERAGE_WIDTH 292
CHARSET_REGISTRY "ISO10646"
CHARSET_ENCODING "1"
FONT_ASCENT 55
FONT_DESCENT 11
COPYRIGHT "Copyright (c) 2011-2015 by tyPoland Lukasz Dziedzic (http://www.typoland.com/) with Reserved Font Name "Lato". Licensed under the SIL Open Font License, Version 1.1 (http://scripts.sil.org/OFL). "
_OTF_FONTFILE "Lato-Bold.ttf"
_OTF_PSNAME "Lato-Bold"
ENDPROPERTIES
CHARS 2164
STARTCHAR 0000
ENCODING 0
SWIDTH 0 0
DWIDTH 0 0
BBX 0 0 0 0
BITMAP
ENDCHAR
STARTCHAR 0020
ENCODING 32
SWIDTH 252 0
DWIDTH 14 0
BBX 0 0 0 0
BITMAP
ENDCHAR
STARTCHAR 0021
ENCODING 33
SWIDTH 288 0
DWIDTH 16 0
BBX 8 40 4 0
BITMAP
7E
7E
7E
7E
7E
7E
7E
7E
7E
7E
7E
7E
7E
7E
7E
7E
7E
7E
7E
7E
7E
7E
7E
7E
7C
7C
00
00
00
00
00
00
3C
FE
FF
FF
FF
FF
FE
3C
ENDCHAR
STARTCHAR 0022
ENCODING 34
SWIDTH 396 0
DWIDTH 22 0
BBX 16 15 3 25
BITMAP
FC3F
FC3F
FC3F
FC3F
FC3F
FC3F
FC3F
FC3F
FC3F
FC3F
FC3F
F83E
781E
781E
300C
ENDCHAR
STARTCHAR 0023
ENCODING 35
SWIDTH 576 0
DWIDTH 32 0
BBX 31 40 1 0
BITMAP
001F07C0
003E07E0
003E07E0
007E07E0
007E07C0
007E0FC0
007C0FC0
007C0FC0
00FC0FC0
00FC0F80
00FC1F80
1FFFFFFE
3FFFFFFC
3FFFFFFC
7FFFFFFC
7FFFFFF8
01F81F00
01F83F00
01F03F00
01F03F00
03F03F00
03F03E00
03F07E00
03F07E00
FFFFFFF0
FFFFFFF8
FFFFFFF8
FFFFFFF0
FFFFFFF0
07E0FC00
07C0FC00
07C0FC00
0FC0F800
0FC0F800
0FC1F800
0FC1F800
0F81F800
1F81F800
1F81F000
1F00F000
ENDCHAR
STARTCHAR 0024
ENCODING 36
SWIDTH 576 0
DWIDTH 32 0
BBX 28 53 2 -7
BITMAP
0001E000
0001E000
0001E000
0001E000
0003E000
0003E000
003FF800
00FFFF00
03FFFF80
07FFFFC0
0FFFFFE0
1FFFFFE0
1FE3CFC0
3F83C380
3F83C000
3F03C000
3F07C000
3F07C000
3F07C000
3F878000
3FC78000
3FF78000
1FFF8000
0FFFC000
0FFFF800
03FFFE00
01FFFF80
003FFFC0
000FFFE0
000FFFE0
000F9FF0
000F0FF0
000F07F0
000F03F0
000F03F0
000F03F0
000F07F0
380F07F0
3E0F0FE0
7F9F1FE0
FFFF7FC0
FFFFFF80
7FFFFF00
1FFFFE00
07FFFC00
01FFE000
001E0000
001E0000
001E0000
001E0000
001E0000
001E0000
003C0000
ENDCHAR
STARTCHAR 0025
ENCODING 37
SWIDTH 828 0
DWIDTH 46 0
BBX 42 40 2 0
BITMAP
03F800007F00
0FFE0000FC00
1FFF0001FC00
3FFF8003F800
7FFFC003F000
7E0FC007E000
7C07C00FE000
FC07E01FC000
FC07E01F8000
FC03E03F0000
FC07E07F0000
FC07E0FE0000
7C07C1FC0000
7E0FC1F80000
7FFFC3F00000
3FFF87F00000
1FFF0FE00000
0FFE0FC00000
03F81F800000
00003F800000
00007F07E000
00007E1FFC00
0000FC3FFE00
0001F87FFF00
0003F8FFFF00
0007F0FC3F80
0007E1F81F80
000FC1F80F80
001FC1F80FC0
003F81F00FC0
003F01F00FC0
007E01F00FC0
00FE01F80F80
01FC01F80F80
01F800FC3F80
03F000FFFF00
07E0007FFF00
0FE0003FFE00
1FC0001FF800
3F800007E000
ENDCHAR
STARTCHAR 0026
ENCODING 38
SWIDTH 738 0
DWIDTH 41 0
BBX 38 40 2 0
BITMAP
0007F00000
003FFE0000
007FFF0000
00FFFF8000
01FFFFC000
03FE1FE000
03F80FE000
03F007E000
07F007F000
07F0020000
07F0000000
03F0000000
03F0000000
03F8000000
03FC000000
01FC000000
00FE000000
00FF000000
03FF8007C0
07FFC00FC0
0FFFE00FC0
1FEFF00FC0
3FC7F80F80
7F83FC1F80
7F01FE1F80
7F00FF1F80
FE007FBF00
FE003FFF00
FE001FFE00
FE001FFE00
FE000FFC00
FF0007FC00
7F0007FE00
7F800FFF00
3FE07FFF80
3FFFFFFFC0
1FFFFFBFE0
07FFFE1FF0
03FFF80FF8
007F8007FC
ENDCHAR
STARTCHAR 0027
ENCODING 39
SWIDTH 216 0
DWIDTH 12 0
BBX 6 15 3 25
BITMAP
FC
FC
FC
FC
FC
FC
FC
FC
FC
FC
FC
F8
78
78
30
ENDCHAR
STARTCHAR 0028
ENCODING 40
SWIDTH 270 0
DWIDTH 15 0
BBX 12 53 2 -9
BITMAP
0180
01C0
03E0
03F0
07F0
07E0
0FC0
0FC0
1FC0
1F80
1F80
3F80
3F00
3F00
7F00
7E00
7E00
7E00
7E00
FE00
FC00
FC00
FC00
FC00
FC00
FC00
FC00
FC00
FC00
FC00
FC00
FC00
FC00
FE00
7E00
7E00
7E00
7E00
7F00
3F00
3F00
3F80
1F80
1F80
1FC0
0FC0
0FE0
07E0
07F0
03F0
03E0
01C0
0100
ENDCHAR
STARTCHAR 0029
ENCODING 41
SWIDTH 270 0
DWIDTH 15 0
BBX 11 53 2 -9
BITMAP
1000
7800
F800
FC00
FC00
FE00
7E00
7F00
3F00
3F00
3F80
1F80
1F80
1FC0
0FC0
0FC0
0FC0
0FE0
07E0
07E0
07E0
07E0
07E0
07E0
07E0
07E0
07E0
07E0
07E0
07E0
07E0
07E0
07E0
07E0
07E0
0FE0
0FC0
0FC0
0FC0
1FC0
1F80
1F80
3F80
3F00
3F00
7F00
7E00
FE00
FC00
FC00
F800
7000
1000
ENDCHAR
STARTCHAR 002A
ENCODING 42
SWIDTH 432 0
DWIDTH 24 0
BBX 18 19 3 23
BITMAP
01E000
01E000
01E000
41E080
61E380
F9E7C0
FFDF80
3FFF00
0FFC00
03F000
0FFC00
3FFE00
7FDF80
F9EFC0
71E380
41E080
01E000
01E000
01E000
ENDCHAR
STARTCHAR 002B
ENCODING 43
SWIDTH 576 0
DWIDTH 32 0
BBX 27 28 3 5
BITMAP
003F0000
003F0000
003F0000
003F0000
003F0000
003F0000
003F0000
003F0000
003F0000
003F0000
003F0000
FFFFFFE0
FFFFFFE0
FFFFFFE0
FFFFFFE0
FFFFFFE0
003F0000
003F0000
003F0000
003F0000
003F0000
003F0000
003F0000
003F0000
003F0000
003F0000
003F0000
003F0000
ENDCHAR
STARTCHAR 002C
ENCODING 44
SWIDTH 234 0
DWIDTH 13 0
BBX 9 16 2 -8
BITMAP
3E00
7F00
7F00
FF80
FF80
7F80
7F80
3F00
0F00
0F00
1E00
1E00
3C00
7800
7000
2000
ENDCHAR
STARTCHAR 002D
ENCODING 45
SWIDTH 378 0
DWIDTH 21 0
BBX 15 5 3 14
BITMAP
FFFE
FFFE
FFFE
FFFE
FFFE
ENDCHAR
STARTCHAR 002E
ENCODING 46
SWIDTH 234 0
DWIDTH 13 0
BBX 9 8 2 0
BITMAP
1E00
7F00
7F80
FF80
FF80
7F80
7F00
1E00
ENDCHAR
STARTCHAR 002F
ENCODING 47
SWIDTH 468 0
DWIDTH 26 0
BBX 22 44 2 -3
BITMAP
00003C
0000FC
0000F8
0000F8
0001F8
0001F0
0003F0
0003F0
0003E0
0007E0
0007C0
000FC0
000FC0
000F80
001F80
001F00
003F00
003F00
003E00
007E00
007C00
00FC00
00FC00
00F800
01F800
01F000
03F000
03F000
03E000
07E000
07E000
07C000
0FC000
0F8000
1F8000
1F8000
1F0000
3F0000
3E0000
7E0000
7E0000
7C0000
FC0000
F00000
ENDCHAR
STARTCHAR 0030
ENCODING 48
SWIDTH 576 0
DWIDTH 32 0
BBX 30 40 1 0
BITMAP
001FE000
007FFC00
01FFFE00
03FFFF80
07FFFF80
0FF83FC0
1FE01FE0
1FC00FE0
3FC007F0
3F8007F0
3F8003F8
7F0003F8
7F0003F8
7F0003F8
7F0001FC
7F0001FC
7F0001FC
FF0001FC
FF0001FC
FF0001FC
FF0001FC
FF0001FC
FF0001FC
7F0001FC
7F0001FC
7F0001FC
7F0003FC
7F0003F8
7F0003F8
3F8003F8
3F8007F0
3FC007F0
1FC00FF0
1FE01FE0
0FF83FC0
07FFFFC0
03FFFF80
01FFFE00
007FFC00
001FE000
ENDCHAR
STARTCHAR 0031
ENCODING 49
SWIDTH 576 0
DWIDTH 32 0
BBX 25 40 4 0
BITMAP
001FC000
003FC000
007FC000
00FFC000
01FFC000
03FFC000
0FFFC000
1FFFC000
3FFFC000
7FDFC000
FF9FC000
FF1FC000
7E1FC000
3C1FC000
101FC000
001FC000
001FC000
001FC000
001FC000
001FC000
001FC000
001FC000
001FC000
001FC000
001FC000
001FC000
001FC000
001FC000
001FC000
001FC000
001FC000
001FC000
001FC000
001FC000
001FC000
1FFFFF80
1FFFFF80
1FFFFF80
1FFFFF80
1FFFFF80
ENDCHAR
STARTCHAR 0032
ENCODING 50
SWIDTH 576 0
DWIDTH 32 0
BBX 28 40 2 0
BITMAP
001FE000
00FFF800
03FFFE00
07FFFF00
0FFFFF80
1FFFFFC0
1FF07FC0
3FC01FE0
3F801FE0
7F000FE0
7F000FE0
7F000FE0
1E000FE0
00000FE0
00000FE0
00001FE0
00001FC0
00003FC0
00003F80
00007F80
0000FF00
0001FE00
0003FC00
0007F800
000FF000
001FE000
003FC000
007F8000
00FF0000
01FE0000
03FC0000
07F80000
0FF00000
1FE00000
3FDFFFE0
7FFFFFF0
FFFFFFF0
FFFFFFF0
FFFFFFF0
FFFFFFF0
ENDCHAR
STARTCHAR 0033
ENCODING 51
SWIDTH 576 0
DWIDTH 32 0
BBX 28 40 2 0
BITMAP
001FE000
00FFFC00
03FFFE00
07FFFF80
0FFFFF80
1FFFFFC0
1FF07FC0
3FC01FE0
3F800FE0
3F800FE0
7F000FE0
7F000FE0
0C000FE0
00000FC0
00001FC0
0000FF80
000FFF00
000FFC00
000FFC00
000FFF00
000FFF80
00007FC0
00001FE0
00000FE0
000007E0
000007F0
000007F0
000007F0
7E0007F0
FE0007F0
FF000FF0
7F000FE0
7F801FE0
3FE07FC0
3FFFFFC0
1FFFFF80
0FFFFF00
07FFFE00
01FFF800
007FC000
ENDCHAR
STARTCHAR 0034
ENCODING 52
SWIDTH 576 0
DWIDTH 32 0
BBX 31 40 0 0
BITMAP
00001FC0
00003FC0
00003FC0
00007FC0
0000FFC0
0001FFC0
0003FFC0
0003FFC0
0007FFC0
000FEFC0
001FCFC0
001FCFC0
003F8FC0
007F0FC0
00FE0FC0
00FE0FC0
01FC0FC0
03F80FC0
07F00FC0
07F00FC0
0FE00FC0
1FC00FC0
3F800FC0
3F800FC0
7F000FC0
FFFFFFFE
FFFFFFFE
7FFFFFFE
7FFFFFFE
3FFFFFFE
00000FC0
00000FC0
00000FC0
00000FC0
00000FC0
00000FC0
00000FC0
00000FC0
00000FC0
00000FC0
ENDCHAR
STARTCHAR 0035
ENCODING 53
SWIDTH 576 0
DWIDTH 32 0
BBX 27 40 2 0
BITMAP
03FFFFC0
03FFFFC0
03FFFFC0
07FFFFC0
07FFFFC0
07FFFF80
07E00000
07E00000
0FC00000
0FC00000
0FC00000
0FC00000
0FC00000
0FC00000
1FBFE000
1FFFF800
1FFFFE00
1FFFFF00
1FFFFF80
0780FFC0
00003FC0
00001FE0
00000FE0
00000FE0
00000FE0
00000FE0
00000FE0
00000FE0
00000FE0
00000FE0
00001FE0
18001FC0
3E003FC0
3F80FF80
7FFFFF80
FFFFFF00
3FFFFE00
0FFFF800
07FFF000
00FF8000
ENDCHAR
STARTCHAR 0036
ENCODING 54
SWIDTH 576 0
DWIDTH 32 0
BBX 29 40 2 0
BITMAP
0000FF80
0001FE00
0003FC00
0007FC00
0007F800
000FF000
001FE000
003FC000
007F8000
007F0000
00FE0000
01FC0000
03FC0000
03F80000
07F7F000
0FFFFE00
0FFFFF00
1FFFFF80
3FFFFFC0
3FF07FE0
7FC01FE0
7F800FF0
7F0007F0
7F0007F0
FE0007F8
FE0003F8
FE0003F8
FE0003F8
7E0003F0
7E0007F0
7F0007F0
7F000FF0
3F800FE0
3FC01FE0
1FE07FC0
1FFFFF80
0FFFFF00
03FFFE00
01FFF800
003FC000
ENDCHAR
STARTCHAR 0037
ENCODING 55
SWIDTH 576 0
DWIDTH 32 0
BBX 28 40 3 0
BITMAP
FFFFFFF0
FFFFFFF0
FFFFFFF0
FFFFFFF0
FFFFFFE0
FFFFFFE0
00000FE0
00001FC0
00001FC0
00003F80
00003F80
00007F00
00007F00
0000FE00
0000FE00
0001FC00
0001FC00
0003F800
0003F800
0007F000
0007F000
000FE000
000FE000
001FC000
001FC000
003F8000
003F8000
007F0000
007F0000
00FE0000
00FE0000
01FC0000
01FC0000
03F80000
07F80000
07F00000
0FF00000
0FE00000
1FE00000
1FC00000
ENDCHAR
STARTCHAR 0038
ENCODING 56
SWIDTH 576 0
DWIDTH 32 0
BBX 28 40 2 0
BITMAP
003FC000
01FFF800
03FFFE00
0FFFFF00
1FFFFF80
1FE07FC0
3FC01FC0
3F801FC0
3F800FE0
3F000FE0
3F000FE0
3F000FE0
3F800FE0
3F801FE0
1FC01FC0
1FE07FC0
0FFFFF80
03FFFF00
01FFFC00
07FFFC00
1FFFFF00
3FE07F80
3FC01FC0
7F800FE0
7F000FF0
FF0007F0
FE0007F0
FE0007F0
FE0007F0
FE0007F0
FF0007F0
7F000FF0
7F800FF0
7FC01FE0
3FE07FE0
1FFFFFC0
0FFFFF80
07FFFF00
01FFFC00
003FE000
ENDCHAR
STARTCHAR 0039
ENCODING 57
SWIDTH 576 0
DWIDTH 32 0
BBX 28 40 2 0
BITMAP
003FC000
01FFF800
03FFFE00
0FFFFF00
1FFFFF80
1FE07F80
3FC01FC0
7F800FE0
7F000FE0
7F0007E0
7E0007E0
FE0007F0
FE0007F0
FE0007F0
FF0007F0
7F000FE0
7F000FE0
7F801FE0
3FE07FE0
3FFFFFC0
1FFFFFC0
0FFFFFC0
03FFFF80
00FE7F00
0000FF00
0000FE00
0001FC00
0003FC00
0007F800
000FF000
000FF000
001FE000
003FC000
007F8000
00FF8000
01FF0000
01FE0000
03FC0000
07FC0000
0FF00000
ENDCHAR
STARTCHAR 003A
ENCODING 58
SWIDTH 252 0
DWIDTH 14 0
BBX 9 28 3 0
BITMAP
1E00
7F00
7F80
FF80
FF80
7F80
7F00
1E00
0000
0000
0000
0000
0000
0000
0000
0000
0000
0000
0000
0000
1E00
7F00
7F80
FF80
FF80
7F80
7F00
1E00
ENDCHAR
STARTCHAR 003B
ENCODING 59
SWIDTH 270 0
DWIDTH 15 0
BBX 9 36 3 -8
BITMAP
1E00
7F00
7F80
FF80
FF80
7F80
7F00
1E00
0000
0000
0000
0000
0000
0000
0000
0000
0000
0000
0000
0000
3E00
7F00
7F00
FF80
FF80
7F80
7F80
3F00
0F00
0F00
1E00
1E00
3C00
7800
7000
2000
ENDCHAR
STARTCHAR 003C
ENCODING 60
SWIDTH 576 0
DWIDTH 32 0
BBX 22 26 4 6
BITMAP
000004
00000C
00003C
0000FC
0003FC
000FFC
003FFC
00FFF0
03FFC0
07FF00
1FFC00
7FF000
FFC000
FF8000
FFF000
3FFC00
0FFF00
03FFC0
00FFF0
003FF8
000FFC
0003FC
0001FC
00007C
00001C
000004
ENDCHAR
STARTCHAR 003D
ENCODING 61
SWIDTH 576 0
DWIDTH 32 0
BBX 25 15 4 11
BITMAP
FFFFFF80
FFFFFF80
FFFFFF80
FFFFFF80
FFFFFF80
00000000
00000000
00000000
00000000
00000000
FFFFFF80
FFFFFF80
FFFFFF80
FFFFFF80
FFFFFF80
ENDCHAR
STARTCHAR 003E
ENCODING 62
SWIDTH 576 0
DWIDTH 32 0
BBX 22 26 6 6
BITMAP
800000
E00000
F80000
FC0000
FF0000
FFC000
7FF000
3FFC00
0FFF00
03FFC0
00FFF0
003FFC
000FFC
0007FC
001FFC
007FF0
01FFC0
07FF80
1FFE00
7FF800
FFE000
FF8000
FE0000
F80000
E00000
800000
ENDCHAR
STARTCHAR 003F
ENCODING 63
SWIDTH 468 0
DWIDTH 26 0
BBX 22 40 2 0
BITMAP
01FC00
0FFF80
3FFFE0
FFFFF0
FFFFF0
7E07F8
3803F8
0001F8
0001FC
0001FC
0001FC
0001F8
0003F8
0007F8
000FF0
001FE0
003FC0
00FF80
00FF00
01FE00
01F800
01F800
01F800
01F000
01F000
01F000
000000
000000
000000
000000
000000
000000
01E000
03F800
03F800
07FC00
07FC00
03F800
03F800
01F000
ENDCHAR
STARTCHAR 0040
ENCODING 64
SWIDTH 846 0
DWIDTH 47 0
BBX 42 45 3 -7
BITMAP
00007FC00000
0003FFFC0000
000FFFFF0000
003FFFFFC000
00FFFFFFE000
01FFC03FF000
03FE0003F800
07F80001FC00
0FE000007E00
0FC000003F00
1F8000001F00
3F0007F81F80
3E003FFF0F80
7E00FFFF0F80
7C01FFFE07C0
7C03FFFE07C0
F807F83E07C0
F80FE07C07C0
F80FC07C07C0
F81F807C07C0
F81F807C07C0
F81F00F807C0
F81F00F807C0
F83F00F80F80
F83F01F80F80
F83F01F81F80
F83F03F81F00
F81F87FC7F00
F81FFFFFFE00
7C1FFF7FFC00
7C0FFE3FF800
7E07FC3FF000
3E01F00FC000
3F0000000000
1F8000000000
1FC000000000
0FE000000000
07F800001C00
03FE00007C00
01FFC007FE00
00FFFFFFFC00
003FFFFFF800
001FFFFFE000
0003FFFF8000
00003FF80000
ENDCHAR
STARTCHAR 0041
ENCODING 65
SWIDTH 702 0
DWIDTH 39 0
BBX 39 40 0 0
BITMAP
0001FF0000
0001FF0000
0001FF0000
0003FF8000
0003FF8000
0007FF8000
0007FFC000
0007EFC000
000FEFE000
000FEFE000
001FCFE000
001FC7F000
001FC7F000
003F83F800
003F83F800
007F83F800
007F01FC00
007F01FC00
00FE01FE00
00FE00FE00
01FE00FE00
01FC007F00
01FC007F00
03FC007F80
03F8003F80
07FFFFFF80
07FFFFFFC0
07FFFFFFC0
0FFFFFFFE0
0FFFFFFFE0
1FE0000FE0
1FE0000FF0
1FC00007F0
3FC00007F8
3F800007F8
7F800003F8
7F800003FC
7F000001FC
FF000001FE
FE000000FE
ENDCHAR
STARTCHAR 0042
ENCODING 66
SWIDTH 666 0
DWIDTH 37 0
BBX 30 40 5 0
BITMAP
FFFFE000
FFFFFC00
FFFFFF00
FFFFFFC0
FFFFFFE0
FFFFFFE0
FE007FF0
FE001FF0
FE000FF0
FE0007F0
FE0007F0
FE0007F0
FE0007F0
FE0007F0
FE000FE0
FE001FE0
FE007FC0
FFFFFF00
FFFFFC00
FFFFFE00
FFFFFF80
FFFFFFE0
FE003FF0
FE000FF0
FE0007F8
FE0003F8
FE0003F8
FE0003FC
FE0003FC
FE0003F8
FE0003F8
FE0007F8
FE000FF8
FE003FF0
FFFFFFF0
FFFFFFE0
FFFFFFC0
FFFFFF80
FFFFFE00
FFFFF000
ENDCHAR
STARTCHAR 0043
ENCODING 67
SWIDTH 666 0
DWIDTH 37 0
BBX 34 40 2 0
BITMAP
0001FF8000
000FFFF000
003FFFFC00
00FFFFFF00
01FFFFFF80
03FFFFFFC0
07FF80FF80
0FFC001F00
1FF8000E00
1FE0000000
3FE0000000
3FC0000000
7F80000000
7F80000000
7F80000000
7F00000000
FF00000000
FF00000000
FF00000000
FF00000000
FF00000000
FF00000000
FF00000000
FF00000000
7F00000000
7F80000000
7F80000000
7F80000000
3FC0000000
3FE0000000
1FF0000200
1FF8000F00
0FFC001F80
07FF807FC0
03FFFFFFC0
01FFFFFF80
00FFFFFF00
007FFFFC00
000FFFF000
0001FF8000
ENDCHAR
STARTCHAR 0044
ENCODING 68
SWIDTH 774 0
DWIDTH 43 0
BBX 35 40 5 0
BITMAP
FFFFF00000
FFFFFE0000
FFFFFFC000
FFFFFFE000
FFFFFFF800
FFFFFFFC00
FE001FFE00
FE0007FE00
FE0001FF00
FE0000FF80
FE00007F80
FE00003FC0
FE00003FC0
FE00001FE0
FE00001FE0
FE00001FE0
FE00001FE0
FE00000FE0
FE00000FE0
FE00000FE0
FE00000FE0
FE00000FE0
FE00000FE0
FE00001FE0
FE00001FE0
FE00001FE0
FE00001FE0
FE00003FC0
FE00003FC0
FE00007F80
FE0000FF80
FE0001FF00
FE0007FE00
FE001FFE00
FFFFFFFC00
FFFFFFF800
FFFFFFE000
FFFFFFC000
FFFFFE0000
FFFFF00000
ENDCHAR
STARTCHAR 0045
ENCODING 69
SWIDTH 576 0
DWIDTH 32 0
BBX 25 40 5 0
BITMAP
FFFFFF80
FFFFFF80
FFFFFF80
FFFFFF80
FFFFFF80
FFFFFF80
FE000000
FE000000
FE000000
FE000000
FE000000
FE000000
FE000000
FE000000
FE000000
FE000000
FE000000
FFFFF800
FFFFF800
FFFFF800
FFFFF800
FFFFF800
FFFFF800
FE000000
FE000000
FE000000
FE000000
FE000000
FE000000
FE000000
FE000000
FE000000
FE000000
FE000000
FFFFFF80
FFFFFF80
FFFFFF80
FFFFFF80
FFFFFF80
FFFFFF80
ENDCHAR
STARTCHAR 0046
ENCODING 70
SWIDTH 576 0
DWIDTH 32 0
BBX 25 40 5 0
BITMAP
FFFFFF80
FFFFFF80
FFFFFF80
FFFFFF80
FFFFFF80
FFFFFF80
FE000000
FE000000
FE000000
FE000000
FE000000
FE000000
FE000000
FE000000
FE000000
FE000000
FE000000
FE000000
FFFFFC00
FFFFFC00
FFFFFC00
FFFFFC00
FFFFFC00
FFFFFC00
FE000000
FE000000
FE000000
FE000000
FE000000
FE000000
FE000000
FE000000
FE000000
FE000000
FE000000
FE000000
FE000000
FE000000
FE000000
FE000000
ENDCHAR
STARTCHAR 0047
ENCODING 71
SWIDTH 738 0
DWIDTH 41 0
BBX 36 40 2 0
BITMAP
0000FFC000
000FFFFC00
003FFFFF00
00FFFFFFC0
01FFFFFFE0
03FFFFFFF0
07FF807FE0
0FFC000FC0
1FF80003C0
1FF0000000
3FE0000000
3FC0000000
7F80000000
7F80000000
7F80000000
FF00000000
FF00000000
FF00000000
FF00000000
FF00000000
FF0003FFF0
FF0003FFF0
FF0003FFF0
FF0003FFF0
7F0001FFF0
7F800007F0
7F800007F0
7FC00007F0
3FC00007F0
3FE00007F0
1FF00007F0
0FF80007F0
0FFE0007F0
07FF803FF0
03FFFFFFF0
01FFFFFFF0
007FFFFFE0
001FFFFF80
0007FFFE00
00007FE000
ENDCHAR
STARTCHAR 0048
ENCODING 72
SWIDTH 774 0
DWIDTH 43 0
BBX 34 40 5 0
BITMAP
FE00003FC0
FE00003FC0
FE00003FC0
FE00003FC0
FE00003FC0
FE00003FC0
FE00003FC0
FE00003FC0
FE00003FC0
FE00003FC0
FE00003FC0
FE00003FC0
FE00003FC0
FE00003FC0
FE00003FC0
FE00003FC0
FE00003FC0
FFFFFFFFC0
FFFFFFFFC0
FFFFFFFFC0
FFFFFFFFC0
FFFFFFFFC0
FE00003FC0
FE00003FC0
FE00003FC0
FE00003FC0
FE00003FC0
FE00003FC0
FE00003FC0
FE00003FC0
FE00003FC0
FE00003FC0
FE00003FC0
FE00003FC0
FE00003FC0
FE00003FC0
FE00003FC0
FE00003FC0
FE00003FC0
FE00003FC0
ENDCHAR
STARTCHAR 0049
ENCODING 73
SWIDTH 306 0
DWIDTH 17 0
BBX 7 40 5 0
BITMAP
FE
FE
FE
FE
FE
FE
FE
FE
FE
FE
FE
FE
FE
FE
FE
FE
FE
FE
FE
FE
FE
FE
FE
FE
FE
FE
FE
FE
FE
FE
FE
FE
FE
FE
FE
FE
FE
FE
FE
FE
ENDCHAR
STARTCHAR 004A
ENCODING 74
SWIDTH 432 0
DWIDTH 24 0
BBX 19 40 1 0
BITMAP
001FE0
001FE0
001FE0
001FE0
001FE0
001FE0
001FE0
001FE0
001FE0
001FE0
001FE0
001FE0
001FE0
001FE0
001FE0
001FE0
001FE0
001FE0
001FE0
001FE0
001FE0
001FE0
001FE0
001FE0
001FE0
001FE0
001FE0
001FE0
001FE0
001FE0
001FC0
003FC0
007FC0
00FF80
FFFF80
FFFF00
FFFE00
FFFC00
FFF800
7FC000
ENDCHAR
STARTCHAR 004B
ENCODING 75
SWIDTH 684 0
DWIDTH 38 0
BBX 34 40 5 0
BITMAP
FE0000FF80
FE0001FF00
FE0003FE00
FE0007FC00
FE0007F800
FE000FF000
FE001FF000
FE003FE000
FE007FC000
FE007F8000
FE00FF0000
FE01FE0000
FE03FE0000
FE03FC0000
FE07F80000
FE0FF00000
FE1FE00000
FFFFE00000
FFFF800000
FFFFC00000
FFFFE00000
FFFFF00000
FE0FF80000
FE07F80000
FE03FC0000
FE03FE0000
FE01FF0000
FE00FF0000
FE007F8000
FE007FC000
FE003FE000
FE001FE000
FE000FF000
FE000FF800
FE0007FC00
FE0003FC00
FE0001FE00
FE0001FF00
FE0000FF80
FE00007FC0
ENDCHAR
STARTCHAR 004C
ENCODING 76
SWIDTH 522 0
DWIDTH 29 0
BBX 23 40 5 0
BITMAP
FE0000
FE0000
FE0000
FE0000
FE0000
FE0000
FE0000
FE0000
FE0000
FE0000
FE0000
FE0000
FE0000
FE0000
FE0000
FE0000
FE0000
FE0000
FE0000
FE0000
FE0000
FE0000
FE0000
FE0000
FE0000
FE0000
FE0000
FE0000
FE0000
FE0000
FE0000
FE0000
FE0000
FE0000
FFFFFE
FFFFFE
FFFFFE
FFFFFE
FFFFFE
FFFFFE
ENDCHAR
STARTCHAR 004D
ENCODING 77
SWIDTH 954 0
DWIDTH 53 0
BBX 43 40 5 0
BITMAP
FE0000000FE0
FF0000001FE0
FF0000003FE0
FF8000003FE0
FFC000007FE0
FFC000007FE0
FFE00000FFE0
FFE00000FFE0
FFF00001FFE0
FFF00001FFE0
FFF80003FFE0
FDF80003FFE0
FDFC0007F7E0
FCFC0007F7E0
FCFE000FE7E0
FC7F001FE7E0
FC7F001FC7E0
FC3F803F87E0
FC3F803F87E0
FC1FC07F07E0
FC1FC07F07E0
FC0FE0FE07E0
FC0FE0FE07E0
FC07F1FC07E0
FC03F1FC07E0
FC03FBF807E0
FC01FBF807E0
FC01FFF007E0
FC00FFE007E0
FC00FFE007E0
FC007FC007E0
FC007FC007E0
FC003F8007E0
FC003F8007E0
FC001F0007E0
FC00000007E0
FC00000007E0
FC00000007E0
FC00000007E0
FC00000007E0
ENDCHAR
STARTCHAR 004E
ENCODING 78
SWIDTH 774 0
DWIDTH 43 0
BBX 34 40 5 0
BITMAP
F800001FC0
FC00001FC0
FE00001FC0
FF00001FC0
FF80001FC0
FF80001FC0
FFC0001FC0
FFE0001FC0
FFF0001FC0
FFF0001FC0
FFF8001FC0
FFFC001FC0
FFFE001FC0
FDFF001FC0
FCFF001FC0
FC7F801FC0
FC7FC01FC0
FC3FE01FC0
FC1FF01FC0
FC0FF01FC0
FC07F81FC0
FC07FC1FC0
FC03FE1FC0
FC01FE1FC0
FC00FF1FC0
FC007F9FC0
FC007FDFC0
FC003FFFC0
FC001FFFC0
FC000FFFC0
FC0007FFC0
FC0007FFC0
FC0003FFC0
FC0001FFC0
FC0000FFC0
FC00007FC0
FC00007FC0
FC00003FC0
FC00001FC0
FC00000FC0
ENDCHAR
STARTCHAR 004F
ENCODING 79
SWIDTH 810 0
DWIDTH 45 0
BBX 41 40 2 0
BITMAP
0000FFC00000
000FFFF80000
003FFFFE0000
00FFFFFF8000
01FFFFFFC000
03FFFFFFE000
07FF80FFF000
0FFC001FF800
1FF80007FC00
1FE00003FC00
3FE00001FE00
3FC00001FE00
7F800000FF00
7F800000FF00
7F8000007F00
7F0000007F80
FF0000007F80
FF0000007F80
FF0000007F80
FF0000007F80
FF0000007F80
FF0000007F80
FF0000007F80
FF0000007F80
7F0000007F80
7F8000007F00
7F800000FF00
7F800000FF00
3FC00001FE00
3FE00001FE00
1FE00003FC00
1FF80007FC00
0FFC001FF800
07FF807FF000
03FFFFFFE000
01FFFFFFC000
00FFFFFF8000
003FFFFE0000
000FFFF80000
0000FFC00000
ENDCHAR
STARTCHAR 0050
ENCODING 80
SWIDTH 630 0
DWIDTH 35 0
BBX 28 40 5 0
BITMAP
FFFFC000
FFFFF800
FFFFFE00
FFFFFF00
FFFFFFC0
FFFFFFC0
FE00FFE0
FE003FE0
FE001FF0
FE000FF0
FE0007F0
FE0007F0
FE0007F0
FE0007F0
FE0007F0
FE000FF0
FE000FF0
FE001FF0
FE003FE0
FE00FFE0
FFFFFFC0
FFFFFF80
FFFFFF00
FFFFFE00
FFFFF800
FFFFC000
FE000000
FE000000
FE000000
FE000000
FE000000
FE000000
FE000000
FE000000
FE000000
FE000000
FE000000
FE000000
FE000000
FE000000
ENDCHAR
STARTCHAR 0051
ENCODING 81
SWIDTH 810 0
DWIDTH 45 0
BBX 43 47 2 -7
BITMAP
0000FFC00000
000FFFF80000
003FFFFE0000
00FFFFFF8000
01FFFFFFC000
03FFFFFFE000
07FF80FFF000
0FFC001FF800
1FF80007FC00
1FF00003FC00
3FE00001FE00
3FC00001FE00
7F800000FF00
7F800000FF00
7F8000007F00
7F0000007F80
FF0000007F80
FF0000007F80
FF0000007F80
FF0000007F80
FF0000007F80
FF0000007F80
FF0000007F80
FF0000007F80
7F0000007F80
7F8000007F00
7F800000FF00
7F800000FF00
3FC00001FE00
3FE00001FE00
1FE00003FC00
1FF80007FC00
0FFC001FF800
07FF807FF000
03FFFFFFE000
01FFFFFFC000
00FFFFFF8000
003FFFFFC000
000FFFFFE000
0000FFDFF000
0000000FF800
00000007FC00
00000003FE00
00000001FF00
00000001FF00
00000000FF80
000000007FE0
ENDCHAR
STARTCHAR 0052
ENCODING 82
SWIDTH 648 0
DWIDTH 36 0
BBX 31 40 5 0
BITMAP
FFFF8000
FFFFF800
FFFFFE00
FFFFFF00
FFFFFF80
FFFFFFC0
FE00FFC0
FE003FE0
FE001FE0
FE000FE0
FE000FE0
FE000FE0
FE000FE0
FE000FE0
FE000FE0
FE001FE0
FE001FC0
FE007FC0
FE01FF80
FFFFFF00
FFFFFE00
FFFFF800
FFFFE000
FFFFF000
FE0FF800
FE07F800
FE03FC00
FE03FE00
FE01FE00
FE00FF00
FE00FF80
FE007F80
FE003FC0
FE003FE0
FE001FE0
FE000FF0
FE000FF8
FE0007F8
FE0003FC
FE0003FE
ENDCHAR
STARTCHAR 0053
ENCODING 83
SWIDTH 558 0
DWIDTH 31 0
BBX 28 40 1 0
BITMAP
001FF000
00FFFE00
01FFFF80
07FFFFC0
0FFFFFE0
0FFFFFC0
1FF03FC0
1FC00780
3FC00100
3F800000
3F800000
3F800000
3F800000
3FC00000
3FE00000
1FFC0000
1FFF8000
0FFFF000
07FFFC00
03FFFF00
01FFFF80
003FFFC0
0007FFC0
0000FFE0
00003FE0
00000FF0
00000FF0
000007F0
000007F0
00000FF0
08000FE0
3C000FE0
3F001FE0
7FC07FC0
FFFFFFC0
7FFFFF80
3FFFFF00
0FFFFE00
03FFF800
007FC000
ENDCHAR
STARTCHAR 0054
ENCODING 84
SWIDTH 612 0
DWIDTH 34 0
BBX 32 40 1 0
BITMAP
FFFFFFFF
FFFFFFFF
FFFFFFFF
FFFFFFFF
FFFFFFFF
FFFFFFFF
000FF000
000FF000
000FF000
000FF000
000FF000
000FF000
000FF000
000FF000
000FF000
000FF000
000FF000
000FF000
000FF000
000FF000
000FF000
000FF000
000FF000
000FF000
000FF000
000FF000
000FF000
000FF000
000FF000
000FF000
000FF000
000FF000
000FF000
000FF000
000FF000
000FF000
000FF000
000FF000
000FF000
000FF000
ENDCHAR
STARTCHAR 0055
ENCODING 85
SWIDTH 756 0
DWIDTH 42 0
BBX 34 40 4 0
BITMAP
FF00003FC0
FF00003FC0
FF00003FC0
FF00003FC0
FF00003FC0
FF00003FC0
FF00003FC0
FF00003FC0
FF00003FC0
FF00003FC0
FF00003FC0
FF00003FC0
FF00003FC0
FF00003FC0
FF00003FC0
FF00003FC0
FF00003FC0
FF00003FC0
FF00003FC0
FF00003FC0
FF00003FC0
FF00003FC0
FF00003FC0
FF00003FC0
FF00003FC0
FF00003FC0
FF00003F80
FF00003F80
7F00007F80
7F80007F80
7F8000FF00
3FC001FF00
3FE003FE00
1FF80FFE00
0FFFFFFC00
07FFFFF800
03FFFFF000
01FFFFC000
007FFF8000
000FF80000
ENDCHAR
STARTCHAR 0056
ENCODING 86
SWIDTH 702 0
DWIDTH 39 0
BBX 39 40 0 0
BITMAP
FE000000FE
FF000001FE
7F800003FC
7F800003FC
3F800003F8
3FC00007F8
3FC00007F8
1FE0000FF0
1FE0000FF0
0FE0000FE0
0FF0001FE0
0FF0001FE0
07F0003FC0
07F8003FC0
03F8003F80
03FC007F80
03FC007F00
01FC00FF00
01FE00FF00
00FE00FE00
00FF01FE00
00FF01FC00
007F01FC00
007F83FC00
003F83F800
003FC7F800
001FC7F000
001FC7F000
001FEFF000
000FEFE000
000FEFE000
0007EFC000
0007FFC000
0007FFC000
0003FF8000
0003FF8000
0001FF0000
0001FF0000
0001FE0000
0000FE0000
ENDCHAR
STARTCHAR 0057
ENCODING 87
SWIDTH 1062 0
DWIDTH 59 0
BBX 58 40 0 0
BITMAP
FF00001F00001FC0
7F80003F80003FC0
7FC0003FC0003FC0
3FC0007FC0007F80
3FC0007FC0007F80
3FC0007FE0007F80
1FE000FFE0007F00
1FE000FFE000FF00
1FE000FFF000FF00
1FF001FFF000FE00
0FF001FFF001FE00
0FF001FBF801FE00
0FF003FBF801FC00
07F803FBF801FC00
07F803F1FC03FC00
07F807F1FC03FC00
03FC07F1FC03F800
03FC07E0FE07F800
03FC0FE0FE07F800
01FC0FE0FE07F000
01FE0FC07F07F000
01FE1FC07F0FF000
00FE1FC07F0FE000
00FF1F803F0FE000
00FF3F803F9FE000
00FF3F803F9FC000
007F3F001F9FC000
007FBF001FDFC000
007FFF001FFF8000
003FFE000FFF8000
003FFE000FFF8000
003FFE000FFF0000
001FFC0007FF0000
001FFC0007FF0000
001FFC0007FF0000
000FF80003FE0000
000FF80003FE0000
000FF80003FE0000
0007F00001FC0000
0007F00001FC0000
ENDCHAR
STARTCHAR 0058
ENCODING 88
SWIDTH 684 0
DWIDTH 38 0
BBX 37 40 0 0
BITMAP
7FC00007F8
3FC0000FF0
3FE0001FE0
1FF0001FE0
0FF0003FC0
0FF8007F80
07F8007F80
03FC00FF00
03FE01FE00
01FE01FE00
00FF03FC00
00FF03F800
007F87F800
007FCFF000
003FCFE000
001FFFE000
001FFFC000
000FFF8000
0007FF8000
0007FF0000
0007FF8000
000FFF8000
000FFFC000
001FFFE000
003FDFE000
003F8FF000
007F8FF800
00FF07F800
00FF03FC00
01FE03FE00
03FC01FE00
03FC01FF00
07F800FF80
0FF0007F80
0FF0007FC0
1FE0003FC0
3FC0001FE0
3FC0001FF0
7F80000FF0
FF000007F8
ENDCHAR
STARTCHAR 0059
ENCODING 89
SWIDTH 648 0
DWIDTH 36 0
BBX 37 40 0 0
BITMAP
FF00000FF8
7F80000FF0
7F80001FE0
3FC0003FE0
3FC0003FC0
1FE0007F80
0FE0007F80
0FF000FF00
07F800FF00
07F801FE00
03FC01FC00
01FC03FC00
01FE03F800
00FE07F800
00FF0FF000
007F0FE000
003F9FE000
003F9FC000
001FDFC000
001FFF8000
000FFF0000
0007FF0000
0007FE0000
0003FE0000
0003FC0000
0003FC0000
0003FC0000
0003FC0000
0003FC0000
0003FC0000
0003FC0000
0003FC0000
0003FC0000
0003FC0000
0003FC0000
0003FC0000
0003FC0000
0003FC0000
0003FC0000
0003FC0000
ENDCHAR
STARTCHAR 005A
ENCODING 90
SWIDTH 612 0
DWIDTH 34 0
BBX 31 40 1 0
BITMAP
7FFFFFFE
7FFFFFFE
7FFFFFFE
7FFFFFFE
7FFFFFFE
7FFFFFFC
000007FC
000007F8
00000FF0
00001FE0
00003FE0
00003FC0
00007F80
0000FF80
0000FF00
0001FE00
0003FC00
0007FC00
0007F800
000FF000
001FF000
001FE000
003FC000
007F8000
00FF8000
00FF0000
01FE0000
03FE0000
03FC0000
07F80000
0FF00000
1FF00000
1FE00000
3FC00000
7FFFFFFE
7FFFFFFE
FFFFFFFE
FFFFFFFE
FFFFFFFE
FFFFFFFE
ENDCHAR
STARTCHAR 005B
ENCODING 91
SWIDTH 324 0
DWIDTH 18 0
BBX 11 52 5 -9
BITMAP
FFE0
FFE0
FFE0
FFE0
FFE0
F800
F800
F800
F800
F800
F800
F800
F800
F800
F800
F800
F800
F800
F800
F800
F800
F800
F800
F800
F800
F800
F800
F800
F800
F800
F800
F800
F800
F800
F800
F800
F800
F800
F800
F800
F800
F800
F800
F800
F800
F800
F800
FFC0
FFE0
FFE0
FFE0
FFE0
ENDCHAR
STARTCHAR 005C
ENCODING 92
SWIDTH 468 0
DWIDTH 26 0
BBX 22 44 2 -3
BITMAP
F00000
FC0000
7C0000
7E0000
7E0000
3E0000
3F0000
1F0000
1F8000
1F8000
0F8000
0FC000
07C000
07C000
07E000
03E000
03F000
03F000
01F000
01F800
00F800
00FC00
00FC00
007C00
007E00
003E00
003F00
003F00
001F00
001F80
000F80
000FC0
000FC0
0007C0
0007E0
0003E0
0003F0
0003F0
0001F0
0001F8
0001F8
0000F8
0000FC
00003C
ENDCHAR
STARTCHAR 005D
ENCODING 93
SWIDTH 324 0
DWIDTH 18 0
BBX 12 52 1 -9
BITMAP
FFF0
FFF0
FFF0
7FF0
7FF0
03F0
03F0
03F0
03F0
03F0
03F0
03F0
03F0
03F0
03F0
03F0
03F0
03F0
03F0
03F0
03F0
03F0
03F0
03F0
03F0
03F0
03F0
03F0
03F0
03F0
03F0
03F0
03F0
03F0
03F0
03F0
03F0
03F0
03F0
03F0
03F0
03F0
03F0
03F0
03F0
03F0
03F0
7FF0
FFF0
FFF0
FFF0
FFF0
ENDCHAR
STARTCHAR 005E
ENCODING 94
SWIDTH 576 0
DWIDTH 32 0
BBX 27 21 3 19
BITMAP
001F0000
003F0000
003F8000
007F8000
007FC000
00FFC000
00FFE000
01FBE000
03F3F000
03F1F000
07F1F800
07E0F800
0FE0FC00
0FC07C00
1FC07E00
1F803F00
3F803F00
3F001F80
7F001F80
7E001FC0
FE000FE0
ENDCHAR
STARTCHAR 005F
ENCODING 95
SWIDTH 468 0
DWIDTH 26 0
BBX 22 5 2 -8
BITMAP
FFFFFC
FFFFFC
FFFFFC
FFFFFC
FFFFFC
ENDCHAR
STARTCHAR 0060
ENCODING 96
SWIDTH 396 0
DWIDTH 22 0
BBX 13 8 2 32
BITMAP
FF80
3F80
1FC0
0FE0
07E0
03F0
01F0
00F8
ENDCHAR
STARTCHAR 0061
ENCODING 97
SWIDTH 504 0
DWIDTH 28 0
BBX 24 29 1 0
BITMAP
007F80
03FFE0
0FFFF8
1FFFFC
3FFFFE
1FC1FE
1F00FF
00007F
00007F
00003F
00003F
00003F
001FFF
01FFFF
07FFFF
1FFFFF
3FF03F
7F803F
7F003F
7E003F
FE003F
FE007F
FE00FF
7F83FF
7FFFFF
7FFFFF
3FFF1F
1FFE1F
07F01F
ENDCHAR
STARTCHAR 0062
ENCODING 98
SWIDTH 576 0
DWIDTH 32 0
BBX 27 41 3 0
BITMAP
FE000000
FE000000
FE000000
FE000000
FE000000
FE000000
FE000000
FE000000
FE000000
FE000000
FE000000
FE000000
FE07E000
FE3FF800
FE7FFE00
FEFFFF00
FFFFFF00
FFE0FF80
FF803FC0
FF003FC0
FE001FC0
FE001FC0
FE001FE0
FE000FE0
FE000FE0
FE000FE0
FE000FE0
FE000FE0
FE000FE0
FE001FE0
FE001FC0
FE001FC0
FE001FC0
FE003F80
FF007F80
FFC1FF00
FFFFFF00
FFFFFE00
FEFFFC00
FE7FF000
FC1FC000
ENDCHAR
STARTCHAR 0063
ENCODING 99
SWIDTH 486 0
DWIDTH 27 0
BBX 24 29 2 0
BITMAP
003FC0
01FFF8
07FFFC
0FFFFF
1FFFFE
3FF07E
3FC01C
7F8000
7F0000
7F0000
FE0000
FE0000
FE0000
FE0000
FE0000
FE0000
FE0000
FE0000
FE0000
7F0000
7F0000
7F8008
3FC01C
3FE07E
1FFFFF
0FFFFE
07FFFC
01FFF0
007F80
ENDCHAR
STARTCHAR 0064
ENCODING 100
SWIDTH 576 0
DWIDTH 32 0
BBX 26 41 2 0
BITMAP
00001FC0
00001FC0
00001FC0
00001FC0
00001FC0
00001FC0
00001FC0
00001FC0
00001FC0
00001FC0
00001FC0
00001FC0
007F1FC0
03FFDFC0
07FFFFC0
0FFFFFC0
1FFFFFC0
3FE0FFC0
3FC03FC0
7F801FC0
7F001FC0
7F001FC0
FF001FC0
FE001FC0
FE001FC0
FE001FC0
FE001FC0
FE001FC0
FE001FC0
FE001FC0
FE001FC0
FF001FC0
7F001FC0
7F001FC0
7F807FC0
3FC0FFC0
3FFFFFC0
1FFFEFC0
0FFFCFC0
07FF8FC0
01FC07C0
ENDCHAR
STARTCHAR 0065
ENCODING 101
SWIDTH 540 0
DWIDTH 30 0
BBX 26 29 2 0
BITMAP
003FC000
01FFF000
07FFFC00
0FFFFE00
1FFFFF00
3FE07F00
3F803F80
7F001F80
7F001FC0
FE000FC0
FE000FC0
FFFFFFC0
FFFFFFC0
FFFFFFC0
FFFFFFC0
FE000000
FE000000
FE000000
FE000000
7F000000
7F000000
7F800200
3FC00F00
1FF03F80
1FFFFFC0
0FFFFF80
07FFFF00
01FFFC00
003FE000
ENDCHAR
STARTCHAR 0066
ENCODING 102
SWIDTH 360 0
DWIDTH 20 0
BBX 19 40 1 0
BITMAP
001FE0
007FE0
01FFE0
03FFE0
03FFC0
07F800
07F000
07E000
0FE000
0FE000
0FE000
FFFFE0
FFFFE0
FFFFE0
FFFFE0
7FFFE0
0FE000
0FE000
0FE000
0FE000
0FE000
0FE000
0FE000
0FE000
0FE000
0FE000
0FE000
0FE000
0FE000
0FE000
0FE000
0FE000
0FE000
0FE000
0FE000
0FE000
0FE000
0FE000
0FE000
0FE000
ENDCHAR
STARTCHAR 0067
ENCODING 103
SWIDTH 540 0
DWIDTH 30 0
BBX 28 39 1 -10
BITMAP
007F8000
03FFE000
07FFFFF0
0FFFFFF0
1FFFFFF0
3FC0FFE0
3F807F00
3F003F00
3F003F00
3F003F00
3F003F00
3F003F00
3F807F00
3FC0FE00
1FFFFE00
0FFFFC00
07FFF800
03FFE000
0FFF8000
1F800000
1F000000
3FC00000
3FFFF000
1FFFFF00
1FFFFF80
07FFFFC0
1FFFFFE0
3F003FE0
7E000FE0
7E0007E0
FC0007E0
FE000FE0
FE001FC0
7F807FC0
7FFFFF80
3FFFFF00
1FFFFE00
07FFF800
00FFC000
ENDCHAR
STARTCHAR 0068
ENCODING 104
SWIDTH 576 0
DWIDTH 32 0
BBX 25 41 3 0
BITMAP
FE000000
FE000000
FE000000
FE000000
FE000000
FE000000
FE000000
FE000000
FE000000
FE000000
FE000000
FE000000
FE0FE000
FE3FF800
FEFFFC00
FFFFFE00
FFFFFF00
FFE0FF00
FF807F80
FF003F80
FE003F80
FE003F80
FE001F80
FE001F80
FE001F80
FE001F80
FE001F80
FE001F80
FE001F80
FE001F80
FE001F80
FE001F80
FE001F80
FE001F80
FE001F80
FE001F80
FE001F80
FE001F80
FE001F80
FE001F80
FE001F80
ENDCHAR
STARTCHAR 0069
ENCODING 105
SWIDTH 252 0
DWIDTH 14 0
BBX 9 41 3 0
BITMAP
3C00
7E00
FF00
FF00
FF80
FF00
FF00
7E00
3C00
0000
0000
0000
7F00
7F00
7F00
7F00
7F00
7F00
7F00
7F00
7F00
7F00
7F00
7F00
7F00
7F00
7F00
7F00
7F00
7F00
7F00
7F00
7F00
7F00
7F00
7F00
7F00
7F00
7F00
7F00
7F00
ENDCHAR
STARTCHAR 006A
ENCODING 106
SWIDTH 252 0
DWIDTH 14 0
BBX 14 51 -2 -10
BITMAP
01E0
03F0
07F8
07F8
07FC
07F8
07F8
03F0
01E0
0000
0000
0000
03F8
03F8
03F8
03F8
03F8
03F8
03F8
03F8
03F8
03F8
03F8
03F8
03F8
03F8
03F8
03F8
03F8
03F8
03F8
03F8
03F8
03F8
03F8
03F8
03F8
03F8
03F8
03F8
03F8
03F8
03F8
03F0
07F0
0FF0
FFF0
FFE0
FFC0
FF80
FE00
ENDCHAR
STARTCHAR 006B
ENCODING 107
SWIDTH 540 0
DWIDTH 30 0
BBX 27 41 3 0
BITMAP
FE000000
FE000000
FE000000
FE000000
FE000000
FE000000
FE000000
FE000000
FE000000
FE000000
FE000000
FE000000
FE003FC0
FE007F80
FE007F00
FE00FF00
FE01FE00
FE03FC00
FE07F800
FE07F000
FE0FE000
FE1FE000
FE3FC000
FFFF8000
FFFF0000
FFFF0000
FFFF8000
FFFFC000
FE1FC000
FE1FE000
FE0FF000
FE07F000
FE07F800
FE03FC00
FE01FC00
FE01FE00
FE00FF00
FE007F80
FE007F80
FE003FC0
FE001FE0
ENDCHAR
STARTCHAR 006C
ENCODING 108
SWIDTH 252 0
DWIDTH 14 0
BBX 6 41 4 0
BITMAP
FC
FC
FC
FC
FC
FC
FC
FC
FC
FC
FC
FC
FC
FC
FC
FC
FC
FC
FC
FC
FC
FC
FC
FC
FC
FC
FC
FC
FC
FC
FC
FC
FC
FC
FC
FC
FC
FC
FC
FC
FC
ENDCHAR
STARTCHAR 006D
ENCODING 109
SWIDTH 846 0
DWIDTH 47 0
BBX 41 29 3 0
BITMAP
FC1F801FC000
FC7FE07FF800
FEFFF0FFFC00
FFFFF9FFFE00
FFFFFBFFFE00
FFC1FFE1FF00
FF80FFC07F00
FF007F807F00
FE007F003F80
FE007F003F80
FE007F003F80
FE007F003F80
FE007F003F80
FE007F003F80
FE007F003F80
FE007F003F80
FE007F003F80
FE007F003F80
FE007F003F80
FE007F003F80
FE007F003F80
FE007F003F80
FE007F003F80
FE007F003F80
FE007F003F80
FE007F003F80
FE007F003F80
FE007F003F80
FE007F003F80
ENDCHAR
STARTCHAR 006E
ENCODING 110
SWIDTH 576 0
DWIDTH 32 0
BBX 25 29 3 0
BITMAP
FC1FE000
FC7FF800
FEFFFC00
FFFFFE00
FFFFFF00
FFE0FF00
FF807F80
FF003F80
FE003F80
FE003F80
FE001F80
FE001F80
FE001F80
FE001F80
FE001F80
FE001F80
FE001F80
FE001F80
FE001F80
FE001F80
FE001F80
FE001F80
FE001F80
FE001F80
FE001F80
FE001F80
FE001F80
FE001F80
FE001F80
ENDCHAR
STARTCHAR 006F
ENCODING 111
SWIDTH 576 0
DWIDTH 32 0
BBX 28 29 2 0
BITMAP
003FC000
01FFF800
07FFFE00
0FFFFF00
1FFFFF80
3FE07FC0
3FC01FC0
7F801FE0
7F000FE0
7F000FF0
FE0007F0
FE0007F0
FE0007F0
FE0007F0
FE0007F0
FE0007F0
FE0007F0
FE0007F0
FE0007F0
7F000FF0
7F000FE0
7F801FE0
3FC01FC0
3FE07FC0
1FFFFF80
0FFFFF00
07FFFE00
01FFF800
003FC000
ENDCHAR
STARTCHAR 0070
ENCODING 112
SWIDTH 576 0
DWIDTH 32 0
BBX 27 38 3 -9
BITMAP
FC0FE000
FC3FF800
FEFFFE00
FFFFFF00
FFFFFF00
FFE0FF80
FF803F80
FF003FC0
FE001FC0
FE001FC0
FE001FE0
FE000FE0
FE000FE0
FE000FE0
FE000FE0
FE000FE0
FE000FE0
FE001FE0
FE001FC0
FE001FC0
FE001FC0
FE003F80
FF007F80
FFC1FF00
FFFFFF00
FFFFFE00
FFFFFC00
FE7FF000
FE1FC000
FE000000
FE000000
FE000000
FE000000
FE000000
FE000000
FE000000
FE000000
FE000000
ENDCHAR
STARTCHAR 0071
ENCODING 113
SWIDTH 576 0
DWIDTH 32 0
BBX 26 38 2 -9
BITMAP
007F07C0
03FFCFC0
07FFEFC0
0FFFFFC0
1FFFFFC0
3FE07FC0
3FC03FC0
7F801FC0
7F001FC0
7F001FC0
FF001FC0
FE001FC0
FE001FC0
FE001FC0
FE001FC0
FE001FC0
FE001FC0
FE001FC0
FE001FC0
FF001FC0
7F001FC0
7F001FC0
7F807FC0
3FC0FFC0
3FFFFFC0
1FFFFFC0
0FFFDFC0
07FF9FC0
01FC1FC0
00001FC0
00001FC0
00001FC0
00001FC0
00001FC0
00001FC0
00001FC0
00001FC0
00001FC0
ENDCHAR
STARTCHAR 0072
ENCODING 114
SWIDTH 378 0
DWIDTH 21 0
BBX 18 29 3 0
BITMAP
FC0FC0
FC3FC0
FE7FC0
FEFF80
FFFF80
FFFF80
FFFF80
FFE000
FF8000
FF8000
FF0000
FF0000
FE0000
FE0000
FE0000
FE0000
FE0000
FE0000
FE0000
FE0000
FE0000
FE0000
FE0000
FE0000
FE0000
FE0000
FE0000
FE0000
FE0000
ENDCHAR
STARTCHAR 0073
ENCODING 115
SWIDTH 450 0
DWIDTH 25 0
BBX 22 29 1 0
BITMAP
00FF00
03FFE0
0FFFF0
1FFFFC
3FFFF8
3FC1F0
7F0020
7F0000
7F0000
7F0000
7FC000
3FF000
3FFE00
1FFFC0
0FFFE0
03FFF0
007FF8
000FF8
0003FC
0001FC
0001FC
0001FC
3C01F8
3F07F8
7FFFF8
FFFFF0
3FFFE0
0FFF80
03FE00
ENDCHAR
STARTCHAR 0074
ENCODING 116
SWIDTH 378 0
DWIDTH 21 0
BBX 20 38 1 0
BITMAP
00E000
03E000
03E000
03E000
07E000
07E000
07E000
07E000
07E000
3FFFE0
FFFFE0
FFFFE0
FFFFE0
FFFFE0
0FE000
0FE000
0FE000
0FE000
0FE000
0FE000
0FE000
0FE000
0FE000
0FE000
0FE000
0FE000
0FE000
0FE000
0FE000
0FE000
0FE000
0FE000
0FF180
07FFC0
07FFE0
03FFF0
01FFC0
007F00
ENDCHAR
STARTCHAR 0075
ENCODING 117
SWIDTH 576 0
DWIDTH 32 0
BBX 25 29 3 0
BITMAP
FE003F80
FE003F80
FE003F80
FE003F80
FE003F80
FE003F80
FE003F80
FE003F80
FE003F80
FE003F80
FE003F80
FE003F80
FE003F80
FE003F80
FE003F80
FE003F80
FE003F80
FE003F80
FE003F80
FE003F80
FE003F80
FF003F80
7F00FF80
7FC1FF80
3FFFFF80
3FFFFF80
1FFF9F80
0FFF1F80
03FC0F80
ENDCHAR
STARTCHAR 0076
ENCODING 118
SWIDTH 540 0
DWIDTH 30 0
BBX 29 29 0 0
BITMAP
FE0001F8
7F0003F8
7F0007F0
3F8007F0
3F8007F0
3F800FE0
1FC00FE0
1FC00FC0
0FE01FC0
0FE01FC0
0FE01F80
07F03F80
07F03F00
03F07F00
03F87F00
03F87E00
01F8FE00
01FCFC00
00FCFC00
00FDFC00
00FDF800
007FF800
007FF000
007FF000
003FF000
003FE000
001FE000
001FE000
001FC000
ENDCHAR
STARTCHAR 0077
ENCODING 119
SWIDTH 810 0
DWIDTH 45 0
BBX 43 29 1 0
BITMAP
FC001F8007E0
FE003F800FE0
FE003F800FE0
7F003FC00FC0
7F007FC01FC0
7F007FC01FC0
3F007FE01F80
3F80FFE01F80
3F80FBE03F80
3F80FBF03F00
1F81FBF03F00
1FC1FBF07F00
1FC1F1F07F00
0FC3F1F87E00
0FC3F1F87E00
0FE3E0F8FE00
07E3E0FCFC00
07E7E0FCFC00
07E7C07CFC00
03F7C07DF800
03FFC07FF800
03FF807FF800
01FF803FF000
01FF803FF000
01FF003FF000
00FF001FE000
00FF001FE000
00FF001FE000
00FE000FC000
ENDCHAR
STARTCHAR 0078
ENCODING 120
SWIDTH 522 0
DWIDTH 29 0
BBX 29 29 0 0
BITMAP
7F8007F8
3F800FF0
3FC00FE0
1FE01FC0
0FE01FC0
0FF03F80
07F07F00
03F87F00
03FCFE00
01FCFC00
00FFFC00
00FFF800
007FF000
003FF000
003FF000
007FF000
007FF800
00FFFC00
01FDFC00
01FDFE00
03F8FF00
07F07F00
0FF07F80
0FE03F80
1FC03FC0
3FC01FE0
3F800FE0
7F000FF0
FF0007F8
ENDCHAR
STARTCHAR 0079
ENCODING 121
SWIDTH 540 0
DWIDTH 30 0
BBX 30 38 0 -9
BITMAP
FF0001FC
7F0003F8
7F8003F0
3F8007F0
3FC007F0
1FC00FE0
1FC00FE0
1FE00FC0
0FE01FC0
0FF01F80
07F03F80
07F03F80
03F83F00
03F87F00
01FC7E00
01FC7E00
01FCFC00
00FEFC00
00FFFC00
007FF800
007FF800
003FF000
003FF000
003FE000
001FE000
001FE000
000FC000
001FC000
001F8000
003F8000
003F0000
007F0000
007F0000
00FE0000
00FE0000
00FC0000
01FC0000
03F80000
ENDCHAR
STARTCHAR 007A
ENCODING 122
SWIDTH 468 0
DWIDTH 26 0
BBX 23 29 1 0
BITMAP
7FFFFE
7FFFFE
7FFFFE
7FFFFE
7FFFFE
0001FC
0003F8
0007F8
0007F0
000FE0
001FC0
003FC0
003F80
007F00
00FF00
01FE00
01FC00
03F800
07F800
07F000
0FE000
1FC000
3FC000
3F8000
7FFFFE
7FFFFE
FFFFFE
FFFFFE
FFFFFE
ENDCHAR
STARTCHAR 007B
ENCODING 123
SWIDTH 306 0
DWIDTH 17 0
BBX 14 52 2 -9
BITMAP
00FC
03FC
0FFC
1FFC
1FF8
3FC0
3F80
3F00
3F00
3F00
3F00
3F00
3F00
3F00
3F00
3F00
1F00
1F80
1F80
1F80
1F80
1F80
3F00
3F00
FE00
FC00
FC00
FE00
7F00
3F00
1F80
1F80
1F80
1F80
1F80
1F00
3F00
3F00
3F00
3F00
3F00
3F00
3F00
3F00
3F00
3F80
3FC0
1FF8
1FFC
0FFC
03FC
00FC
ENDCHAR
STARTCHAR 007C
ENCODING 124
SWIDTH 270 0
DWIDTH 15 0
BBX 5 53 5 -9
BITMAP
F8
F8
F8
F8
F8
F8
F8
F8
F8
F8
F8
F8
F8
F8
F8
F8
F8
F8
F8
F8
F8
F8
F8
F8
F8
F8
F8
F8
F8
F8
F8
F8
F8
F8
F8
F8
F8
F8
F8
F8
F8
F8
F8
F8
F8
F8
F8
F8
F8
F8
F8
F8
F8
ENDCHAR
STARTCHAR 007D
ENCODING 125
SWIDTH 306 0
DWIDTH 17 0
BBX 14 52 2 -9
BITMAP
F800
FE00
FF80
FFC0
FFC0
1FE0
07E0
07E0
07E0
07E0
07E0
07E0
07E0
07E0
07E0
07E0
07E0
0FC0
0FC0
0FC0
0FC0
0FC0
07E0
07F0
03FC
01FC
01FC
03FC
07F0
07E0
0FC0
0FC0
0FC0
0FC0
0FC0
07C0
07E0
07E0
07E0
07E0
07E0
07E0
07E0
07E0
07E0
07E0
1FE0
FFC0
FFC0
FF80
FE00
F800
ENDCHAR
STARTCHAR 007E
ENCODING 126
SWIDTH 576 0
DWIDTH 32 0
BBX 27 11 3 11
BITMAP
000007E0
000007E0
07E007E0
1FFC07C0
3FFF0FC0
7FFFFFC0
7FFFFF80
FE1FFF80
FC07FE00
FC01FC00
F8000000
ENDCHAR
STARTCHAR 00A0
ENCODING 160
SWIDTH 252 0
DWIDTH 14 0
BBX 0 0 0 0
BITMAP
ENDCHAR
STARTCHAR 00A1
ENCODING 161
SWIDTH 270 0
DWIDTH 15 0
BBX 9 38 3 -9
BITMAP
3E00
7F00
7F00
FF80
FF80
7F00
7F00
3E00
0000
0000
0000
0000
0000
3E00
3E00
3E00
3E00
3F00
3F00
7F00
7F00
7F00
7F00
7F00
7F00
7F00
7F00
7F00
7F00
7F00
7F00
7F00
7F00
7F00
7F00
7F00
7F00
7F00
ENDCHAR
STARTCHAR 00A2
ENCODING 162
SWIDTH 576 0
DWIDTH 32 0
BBX 26 41 3 -6
BITMAP
0001E000
0001E000
0001E000
0001E000
0001E000
0001E000
003FF000
00FFFE00
03FFFF00
07FFFFC0
0FFFFFC0
1FF3DF80
3FC3C700
3F83C000
7F03C000
7F03C000
7F03C000
7E07C000
FE07C000
FE07C000
FE078000
FE078000
FE078000
7E078000
7F078000
7F078000
7F078000
3F878000
3FC78780
1FFF9FC0
0FFFFFC0
0FFFFFC0
03FFFF00
01FFFE00
003FF000
000F0000
000F0000
000F0000
000F0000
000F0000
001E0000
ENDCHAR
STARTCHAR 00A3
ENCODING 163
SWIDTH 576 0
DWIDTH 32 0
BBX 30 40 1 0
BITMAP
0003FC00
001FFF00
003FFFC0
007FFFE0
00FFFFF0
01FFFFF0
01FF07F8
03FC03FC
03F801F0
03F80000
07F80000
07F80000
07F00000
07F00000
07F00000
07F00000
07F00000
07F00000
07F00000
7FFFFF00
FFFFFF00
FFFFFF00
FFFFFF00
FFFFFE00
07F00000
07F00000
07F00000
07F00000
07F00000
07F00000
07F00000
07F00000
07F00000
0FE00000
1FFFFFFC
7FFFFFFC
7FFFFFFC
7FFFFFFC
7FFFFFFC
7FFFFFF8
ENDCHAR
STARTCHAR 00A4
ENCODING 164
SWIDTH 576 0
DWIDTH 32 0
BBX 26 27 3 5
BITMAP
10000200
38000300
7C000780
FE3F0FC0
7FFFFF80
3FFFFF00
1FFFFE00
0FFFFC00
0FE1FC00
0FC07E00
1F803E00
1F003E00
1F003F00
1F001F00
1F003F00
1F003E00
1F803E00
0FC07E00
0FE1FC00
0FFFFE00
1FFFFF00
3FFFFF80
7FFFFFC0
FE3F0FC0
7C000780
38000300
10000200
ENDCHAR
STARTCHAR 00A5
ENCODING 165
SWIDTH 576 0
DWIDTH 32 0
BBX 32 40 0 0
BITMAP
FF00007F
7F8000FE
3F8001FE
3FC001FC
1FC003FC
1FC003F8
0FE003F8
0FE007F0
07F007F0
07F00FE0
03F80FE0
03F81FC0
01FC1FC0
01FC3F80
00FE3F80
00FE7F00
007E7F00
007F7E00
003FFE00
003FFC00
001FFC00
001FF800
0FFFFFF8
0FFFFFF8
0FFFFFF8
0FFFFFF8
0007F000
0007F000
0007F000
0FFFFFF8
0FFFFFF8
0FFFFFF8
0FFFFFF8
0007F000
0007F000
0007F000
0007F000
0007F000
0007F000
0007F000
ENDCHAR
STARTCHAR 00A6
ENCODING 166
SWIDTH 270 0
DWIDTH 15 0
BBX 5 53 5 -9
BITMAP
F8
F8
F8
F8
F8
F8
F8
F8
F8
F8
F8
F8
F8
F8
F8
F8
F8
F8
F8
F8
F8
F8
F8
00
00
00
00
00
00
00
F8
F8
F8
F8
F8
F8
F8
F8
F8
F8
F8
F8
F8
F8
F8
F8
F8
F8
F8
F8
F8
F8
F8
ENDCHAR
STARTCHAR 00A7
ENCODING 167
SWIDTH 504 0
DWIDTH 28 0
BBX 24 44 2 -4
BITMAP
007F80
01FFF0
07FFF8
0FFFFE
1FFFFC
1FE0F8
1F8038
3F8000
3F0000
3F8000
3FC000
1FE000
1FFC00
0FFF00
07FFC0
0FFFF0
1FFFF8
3FFFFC
7E0FFE
7E03FE
7E00FF
FE007F
FE003F
7F803F
7FC03E
3FF87E
3FFEFC
1FFFF8
07FFF0
01FFF0
003FF8
000FFC
0003FC
0001FC
0000FC
0000FC
0000FC
1C00FC
3F03F8
7FFFF8
7FFFF0
3FFFE0
0FFFC0
01FE00
ENDCHAR
STARTCHAR 00A8
ENCODING 168
SWIDTH 396 0
DWIDTH 22 0
BBX 19 8 2 32
BITMAP
380780
7C0FC0
FE1FC0
FE1FE0
FE1FE0
FE1FC0
FE0FC0
380780
ENDCHAR
STARTCHAR 00A9
ENCODING 169
SWIDTH 828 0
DWIDTH 46 0
BBX 42 40 2 0
BITMAP
00007FC00000
0007FFF80000
001FFFFE0000
007F807F8000
00FC000FC000
01F00003E000
03E00001F000
07C03F807800
0F81FFF03C00
1F03FFF83E00
1E07FFFE1E00
3C0FFFFC0F00
3C1FE0780F00
383F80180780
783F00000780
787F00000780
787E00000380
707E000003C0
F07E000003C0
F07E000003C0
F07E000003C0
F07E000003C0
707E000003C0
707F00000380
783F00000780
783F80100780
381FE0780780
3C1FFFFC0F00
3C0FFFFE0F00
1E07FFF81E00
1F01FFF01E00
0F007F803C00
078000007800
03E00001F000
01F00003E000
00FC000FC000
007F807F8000
001FFFFE0000
0007FFF80000
0000FFC00000
ENDCHAR
STARTCHAR 00AA
ENCODING 170
SWIDTH 378 0
DWIDTH 21 0
BBX 15 17 2 23
BITMAP
07E0
1FF8
3FFC
7FFE
3C3E
003E
001E
001E
07FE
1FFE
7FFE
7C1E
F81E
F87E
7FFE
7FDE
1F8E
ENDCHAR
STARTCHAR 00AB
ENCODING 171
SWIDTH 468 0
DWIDTH 26 0
BBX 19 23 3 4
BITMAP
020100
0381C0
07C3E0
07C3E0
0F87C0
1F8FC0
1F0F80
3F1F80
7E3F00
7E3F00
FC7E00
F87C00
F87C00
FC7E00
7E3F00
3E1F00
3F1F80
1F0F80
1F8FC0
0FC7E0
07C3E0
07C3E0
0381C0
ENDCHAR
STARTCHAR 00AC
ENCODING 172
SWIDTH 576 0
DWIDTH 32 0
BBX 25 13 4 8
BITMAP
FFFFFF80
FFFFFF80
FFFFFF80
FFFFFF80
FFFFFF80
00001F80
00001F80
00001F80
00001F80
00001F80
00001F80
00001F80
00001F80
ENDCHAR
STARTCHAR 00AD
ENCODING 173
SWIDTH 378 0
DWIDTH 21 0
BBX 15 5 3 14
BITMAP
FFFE
FFFE
FFFE
FFFE
FFFE
ENDCHAR
STARTCHAR 00AE
ENCODING 174
SWIDTH 828 0
DWIDTH 46 0
BBX 42 40 2 0
BITMAP
00007FC00000
0007FFF80000
001FFFFE0000
007F807F8000
00FC000FC000
01F00003E000
03E00001F000
07CFFFC07800
0F8FFFF03C00
1F0FFFF83E00
1E0FFFFC1E00
3C0FFFFE0F00
3C0FC0FE0F00
380FC07E0780
780FC07E0780
780FC07E0780
780FC07E0380
700FC0FC03C0
F00FFFFC03C0
F00FFFF803C0
F00FFFE003C0
F00FFFC003C0
700FFFE003C0
700FC7F00380
780FC3F00780
780FC3F80780
380FC1F80780
3C0FC1FC0F00
3C0FC0FE0F00
1E0FC0FE1E00
1F0FC07F1E00
0F0FC07FBC00
078000007800
03E00001F000
01F00003E000
00FC000FC000
007F807F8000
001FFFFE0000
0007FFF80000
0000FFC00000
ENDCHAR
STARTCHAR 00AF
ENCODING 175
SWIDTH 396 0
DWIDTH 22 0
BBX 17 5 3 34
BITMAP
FFFF80
FFFF80
FFFF80
FFFF80
FFFF80
ENDCHAR
STARTCHAR 00B0
ENCODING 176
SWIDTH 414 0
DWIDTH 23 0
BBX 19 20 2 20
BITMAP
01F800
0FFE00
1FFF00
3FFF80
7FFFC0
7F0FC0
7C07E0
F803E0
F803E0
F803E0
F803E0
F803E0
F803E0
7C07E0
7E0FC0
7FFFC0
3FFF80
1FFF00
0FFE00
01F800
ENDCHAR
STARTCHAR 00B1
ENCODING 177
SWIDTH 576 0
DWIDTH 32 0
BBX 27 32 3 2
BITMAP
003F0000
003F0000
003F0000
003F0000
003F0000
003F0000
003F0000
003F0000
003F0000
003F0000
FFFFFFE0
FFFFFFE0
FFFFFFE0
FFFFFFE0
FFFFFFE0
003F0000
003F0000
003F0000
003F0000
003F0000
003F0000
003F0000
003F0000
003F0000
00000000
00000000
00000000
FFFFFFE0
FFFFFFE0
FFFFFFE0
FFFFFFE0
FFFFFFE0
ENDCHAR
STARTCHAR 00B2
ENCODING 178
SWIDTH 342 0
DWIDTH 19 0
BBX 15 21 2 25
BITMAP
0FC0
3FF0
7FF8
7FFC
FC7C
F87C
707C
007C
007C
00F8
01F0
03F0
07E0
0FC0
1F80
3F00
7FFC
FFFE
FFFE
FFFE
FFFE
ENDCHAR
STARTCHAR 00B3
ENCODING 179
SWIDTH 342 0
DWIDTH 19 0
BBX 15 21 2 25
BITMAP
07C0
1FF0
3FF8
7FFC
FC7C
F87C
707C
007C
00F8
07F8
07F0
07F8
007C
007C
203E
F07E
F87C
FFFC
7FF8
3FF0
0FC0
ENDCHAR
STARTCHAR 00B4
ENCODING 180
SWIDTH 396 0
DWIDTH 22 0
BBX 13 8 8 32
BITMAP
0FF8
1FE0
1FC0
3F80
3F00
7F00
FE00
F800
ENDCHAR
STARTCHAR 00B5
ENCODING 181
SWIDTH 666 0
DWIDTH 37 0
BBX 30 38 5 -9
BITMAP
FE003F80
FE003F80
FE003F80
FE003F80
FE003F80
FE003F80
FE003F80
FE003F80
FE003F80
FE003F80
FE003F80
FE003F80
FE003F80
FE003F80
FE003F80
FE003F80
FE003F80
FE003F80
FE003F80
FE003F80
FE007F80
FE00FF80
FF01FF80
FF83FFC0
FFFFDFFC
FFFFDFFC
FFFF8FFC
FFFF07FC
FCFC01F8
FC000000
FC000000
FC000000
FC000000
FC000000
FC000000
FC000000
FC000000
7C000000
ENDCHAR
STARTCHAR 00B6
ENCODING 182
SWIDTH 738 0
DWIDTH 41 0
BBX 37 46 2 -6
BITMAP
00FFFFFFF8
03FFFFFFF8
0FFFFFFFF8
1FFFFFFFF8
3FFFFFFFF8
7FFFFFFFF8
7FFFE07E00
FFFFE07E00
FFFFE07E00
FFFFE07E00
FFFFE07E00
FFFFE07E00
FFFFE07E00
FFFFE07E00
FFFFE07E00
7FFFE07E00
7FFFE07E00
7FFFE07E00
3FFFE07E00
1FFFE07E00
0FFFE07E00
03FFE07E00
00FFE07E00
0007E07E00
0007E07E00
0007E07E00
0007E07E00
0007E07E00
0007E07E00
0007E07E00
0007E07E00
0007E07E00
0007E07E00
0007E07E00
0007E07E00
0007E07E00
0007E07E00
0007E07E00
0007E07E00
0007E07E00
0007E07E00
0007E07E00
0007E07E00
0007E07E00
0007E07E00
0007E07E00
ENDCHAR
STARTCHAR 00B7
ENCODING 183
SWIDTH 270 0
DWIDTH 15 0
BBX 11 10 2 11
BITMAP
1F00
3F80
7FC0
7FE0
FFE0
FFE0
7FE0
7FC0
3F80
1F00
ENDCHAR
STARTCHAR 00B8
ENCODING 184
SWIDTH 396 0
DWIDTH 22 0
BBX 11 11 6 -10
BITMAP
1E00
1E00
1E00
3F80
3FC0
0FE0
03E0
43E0
7FE0
7FC0
FF00
ENDCHAR
STARTCHAR 00B9
ENCODING 185
SWIDTH 342 0
DWIDTH 19 0
BBX 14 21 2 25
BITMAP
01E0
07E0
0FE0
1FE0
3FE0
7FE0
FFE0
7BE0
23E0
03E0
03E0
03E0
03E0
03E0
03E0
03E0
03E0
03E0
3FFC
3FFC
3FFC
ENDCHAR
STARTCHAR 00BA
ENCODING 186
SWIDTH 396 0
DWIDTH 22 0
BBX 18 18 2 22
BITMAP
03F000
0FFE00
1FFF00
3FFF80
7E1F80
7C0FC0
FC07C0
FC07C0
F807C0
F807C0
FC07C0
FC07C0
7C0FC0
7E1F80
3FFF80
1FFF00
0FFE00
03F800
ENDCHAR
STARTCHAR 00BB
ENCODING 187
SWIDTH 468 0
DWIDTH 26 0
BBX 20 23 3 4
BITMAP
100800
703800
F87C00
FC7E00
7C3E00
7E3F00
3F1F80
1F0F80
1F8FC0
0F87C0
0FC7E0
07E3F0
07E3F0
0FC7E0
0F87C0
1F8FC0
3F1F80
3E1F00
7E3F00
7C3E00
FC7E00
F87C00
301800
ENDCHAR
STARTCHAR 00BC
ENCODING 188
SWIDTH 756 0
DWIDTH 42 0
BBX 37 41 2 0
BITMAP
01E0000000
07E00007C0
0FE0000F80
1FE0001F00
3FE0001F00
7FE0003E00
FFE0007C00
7BE0007C00
23E000F800
03E001F800
03E001F000
03E003E000
03E003E000
03E007C000
03E00FC000
03E00F8000
03E01F0000
03E03F0000
3FFC3E0000
3FFC7C0000
3FFC7C03E0
0000F807E0
0001F80FE0
0001F00FE0
0003E01FE0
0003E03FE0
0007C07DE0
000FC07BE0
000F80F3E0
001F01F3E0
003F03E3E0
003E03C3E0
007C0783E0
007C0FFFF8
00F807FFF8
01F807FFF8
01F00003E0
03E00003E0
07E00003E0
07C00003E0
0F800003E0
ENDCHAR
STARTCHAR 00BD
ENCODING 189
SWIDTH 738 0
DWIDTH 41 0
BBX 37 41 2 0
BITMAP
01E0000000
07E0000F80
0FE0001F00
1FE0003E00
3FE0003E00
7FE0007C00
FFE000F800
7BE000F800
23E001F000
03E003F000
03E003E000
03E007C000
03E007C000
03E00F8000
03E01F8000
03E01F0000
03E03E0000
03E07E0000
3FFC7C0000
3FFCF80000
3FFCF83F00
0001F0FFC0
0003F1FFE0
0003E1FFF0
0007C3F1F0
0007C3E1F0
000F81C1F0
001F8001F0
001F0001F0
003E0003E0
007E0007C0
007C000FC0
00F8001F80
00F8003F00
01F0007E00
03F000FC00
03E001FFF0
07C003FFF8
0FC003FFF8
0F8003FFF8
1F0003FFF8
ENDCHAR
STARTCHAR 00BE
ENCODING 190
SWIDTH 756 0
DWIDTH 42 0
BBX 37 41 3 0
BITMAP
07C0000000
1FF00007C0
3FF8000F80
7FFC001F00
FC7C001F00
F87C003E00
707C007C00
007C007C00
00F800F800
07F801F800
07F001F000
07F803E000
007C03E000
007C07C000
203E0FC000
F07E0F8000
F87C1F0000
FFFC3F0000
7FF83E0000
3FF07C0000
0FC07C03E0
0000F807E0
0001F80FE0
0001F00FE0
0003E01FE0
0003E03FE0
0007C07DE0
000FC07BE0
000F80F3E0
001F01F3E0
003F03E3E0
003E03C3E0
007C0783E0
007C0FFFF8
00F807FFF8
01F807FFF8
01F00003E0
03E00003E0
07E00003E0
07C00003E0
0F800003E0
ENDCHAR
STARTCHAR 00BF
ENCODING 191
SWIDTH 450 0
DWIDTH 25 0
BBX 22 39 2 -10
BITMAP
003C00
007E00
00FF00
00FF00
00FF00
00FF00
007E00
003C00
000000
000000
000000
000000
000000
003C00
007C00
007E00
007E00
007E00
00FE00
01FE00
03FC00
0FFC00
1FF800
3FE000
7FC000
7F0000
7E0000
FE0000
FE0000
FE0000
FE0000
FE0000
7F0070
7F81F8
7FFFF8
3FFFFC
1FFFF0
07FFC0
01FE00
ENDCHAR
STARTCHAR 00C0
ENCODING 192
SWIDTH 702 0
DWIDTH 39 0
BBX 39 52 0 0
BITMAP
00FF000000
007FC00000
003FE00000
001FF00000
000FF00000
0007F80000
0001FC0000
0000FE0000
00007F0000
0000000000
0000000000
0000000000
0001FF0000
0001FF0000
0001FF0000
0003FF8000
0003FF8000
0007FF8000
0007FFC000
0007EFC000
000FEFE000
000FEFE000
001FCFE000
001FC7F000
001FC7F000
003F83F800
003F83F800
007F83F800
007F01FC00
007F01FC00
00FE01FE00
00FE00FE00
01FE00FE00
01FC007F00
01FC007F00
03FC007F80
03F8003F80
07FFFFFF80
07FFFFFFC0
07FFFFFFC0
0FFFFFFFE0
0FFFFFFFE0
1FE0000FE0
1FE0000FF0
1FC00007F0
3FC00007F8
3F800007F8
7F800003F8
7F800003FC
7F000001FC
FF000001FE
FE000000FE
ENDCHAR
STARTCHAR 00C1
ENCODING 193
SWIDTH 702 0
DWIDTH 39 0
BBX 39 52 0 0
BITMAP
000001FE00
000007FC00
00000FF800
00001FF000
00003FE000
00003FC000
00007F0000
0000FE0000
0001FC0000
0000000000
0000000000
0000000000
0001FF0000
0001FF0000
0001FF0000
0003FF8000
0003FF8000
0007FF8000
0007FFC000
0007EFC000
000FEFE000
000FEFE000
001FCFE000
001FC7F000
001FC7F000
003F83F800
003F83F800
007F83F800
007F01FC00
007F01FC00
00FE01FE00
00FE00FE00
01FE00FE00
01FC007F00
01FC007F00
03FC007F80
03F8003F80
07FFFFFF80
07FFFFFFC0
07FFFFFFC0
0FFFFFFFE0
0FFFFFFFE0
1FE0000FE0
1FE0000FF0
1FC00007F0
3FC00007F8
3F800007F8
7F800003F8
7F800003FC
7F000001FC
FF000001FE
FE000000FE
ENDCHAR
STARTCHAR 00C2
ENCODING 194
SWIDTH 702 0
DWIDTH 39 0
BBX 39 51 0 0
BITMAP
0000FC0000
0001FE0000
0003FF0000
0007FF8000
0007CFC000
000FC7E000
001F83F000
007F03F800
0000000000
0000000000
0000000000
0001FF0000
0001FF0000
0001FF0000
0003FF8000
0003FF8000
0007FF8000
0007FFC000
0007EFC000
000FEFE000
000FEFE000
001FCFE000
001FC7F000
001FC7F000
003F83F800
003F83F800
007F83F800
007F01FC00
007F01FC00
00FE01FE00
00FE00FE00
01FE00FE00
01FC007F00
01FC007F00
03FC007F80
03F8003F80
07FFFFFF80
07FFFFFFC0
07FFFFFFC0
0FFFFFFFE0
0FFFFFFFE0
1FE0000FE0
1FE0000FF0
1FC00007F0
3FC00007F8
3F800007F8
7F800003F8
7F800003FC
7F000001FC
FF000001FE
FE000000FE
ENDCHAR
STARTCHAR 00C3
ENCODING 195
SWIDTH 702 0
DWIDTH 39 0
BBX 39 51 0 0
BITMAP
0007C07800
000FF07800
001FF8F800
003FFFF800
003FFFF000
003E3FF000
007C1FE000
007C07C000
0000000000
0000000000
0000000000
0001FF0000
0001FF0000
0001FF0000
0003FF8000
0003FF8000
0007FF8000
0007FFC000
0007EFC000
000FEFE000
000FEFE000
001FCFE000
001FC7F000
001FC7F000
003F83F800
003F83F800
007F83F800
007F01FC00
007F01FC00
00FE01FE00
00FE00FE00
01FE00FE00
01FC007F00
01FC007F00
03FC007F80
03F8003F80
07FFFFFF80
07FFFFFFC0
07FFFFFFC0
0FFFFFFFE0
0FFFFFFFE0
1FE0000FE0
1FE0000FF0
1FC00007F0
3FC00007F8
3F800007F8
7F800003F8
7F800003FC
7F000001FC
FF000001FE
FE000000FE
ENDCHAR
STARTCHAR 00C4
ENCODING 196
SWIDTH 702 0
DWIDTH 39 0
BBX 39 50 0 0
BITMAP
001E01E000
003F03F000
007F83F800
007F83F800
007F83F800
003F03F000
001E01E000
0000000000
0000000000
0000000000
0001FF0000
0001FF0000
0001FF0000
0003FF8000
0003FF8000
0007FF8000
0007FFC000
0007EFC000
000FEFE000
000FEFE000
001FCFE000
001FC7F000
001FC7F000
003F83F800
003F83F800
007F83F800
007F01FC00
007F01FC00
00FE01FE00
00FE00FE00
01FE00FE00
01FC007F00
01FC007F00
03FC007F80
03F8003F80
07FFFFFF80
07FFFFFFC0
07FFFFFFC0
0FFFFFFFE0
0FFFFFFFE0
1FE0000FE0
1FE0000FF0
1FC00007F0
3FC00007F8
3F800007F8
7F800003F8
7F800003FC
7F000001FC
FF000001FE
FE000000FE
ENDCHAR
STARTCHAR 00C5
ENCODING 197
SWIDTH 702 0
DWIDTH 39 0
BBX 39 53 0 0
BITMAP
00007C0000
0001FE0000
0003FF0000
0003C78000
0007838000
0007838000
0007838000
0003C78000
0003FF0000
0001FE0000
00007C0000
0000000000
0000000000
0001FF0000
0001FF0000
0001FF0000
0003FF8000
0003FF8000
0007FF8000
0007FFC000
0007EFC000
000FEFE000
000FEFE000
001FCFE000
001FC7F000
001FC7F000
003F83F800
003F83F800
007F83F800
007F01FC00
007F01FC00
00FE01FE00
00FE00FE00
01FE00FE00
01FC007F00
01FC007F00
03FC007F80
03F8003F80
07FFFFFF80
07FFFFFFC0
07FFFFFFC0
0FFFFFFFE0
0FFFFFFFE0
1FE0000FE0
1FE0000FF0
1FC00007F0
3FC00007F8
3F800007F8
7F800003F8
7F800003FC
7F000001FC
FF000001FE
FE000000FE
ENDCHAR
STARTCHAR 00C6
ENCODING 198
SWIDTH 936 0
DWIDTH 52 0
BBX 51 40 -1 0
BITMAP
000007FFFFFFE0
00000FFFFFFFE0
00000FFFFFFFE0
00001FFFFFFFE0
00001FFFFFFFE0
00003FFFFFFFE0
00003F7F000000
00007F7F000000
00007E7F000000
0000FE7F000000
0000FE7F000000
0001FC7F000000
0001FC7F000000
0003F87F800000
0003F83F800000
0007F03F800000
0007F03F800000
000FE03FFFFE00
001FE03FFFFE00
001FC03FFFFE00
003FC03FFFFE00
003F803FFFFE00
007F801FFFFE00
007F001FC00000
00FF001FC00000
00FFFFFFC00000
01FFFFFFC00000
01FFFFFFC00000
03FFFFFFC00000
03FFFFFFE00000
07F8000FE00000
07F0000FE00000
0FF0000FE00000
0FE0000FE00000
1FE0000FFFFFE0
1FC0000FFFFFE0
3FC0000FFFFFE0
3F80000FFFFFE0
7F800007FFFFE0
FF000007FFFFE0
ENDCHAR
STARTCHAR 00C7
ENCODING 199
SWIDTH 666 0
DWIDTH 37 0
BBX 34 50 2 -10
BITMAP
0001FF8000
000FFFF000
003FFFFC00
00FFFFFF00
01FFFFFF80
03FFFFFFC0
07FF80FF80
0FFC001F00
1FF8000E00
1FE0000000
3FE0000000
3FC0000000
7F80000000
7F80000000
7F80000000
7F00000000
FF00000000
FF00000000
FF00000000
FF00000000
FF00000000
FF00000000
FF00000000
FF00000000
FF00000000
7F80000000
7F80000000
7F80000000
3FC0000000
3FE0000000
3FE0000000
1FF0000700
1FFC001F80
0FFF007FC0
07FFFFFFC0
03FFFFFF80
01FFFFFF00
007FFFFE00
003FFFF800
0007FFE000
00007C0000
0000780000
00007E0000
0000FF8000
00001FC000
00000FC000
00000FC000
0000FFC000
0001FF8000
0001FE0000
ENDCHAR
STARTCHAR 00C8
ENCODING 200
SWIDTH 576 0
DWIDTH 32 0
BBX 25 52 5 0
BITMAP
7F800000
3FE00000
1FF00000
0FF80000
07F80000
03FC0000
00FE0000
007F0000
003F8000
00000000
00000000
00000000
FFFFFF80
FFFFFF80
FFFFFF80
FFFFFF80
FFFFFF80
FFFFFF80
FE000000
FE000000
FE000000
FE000000
FE000000
FE000000
FE000000
FE000000
FE000000
FE000000
FE000000
FFFFF800
FFFFF800
FFFFF800
FFFFF800
FFFFF800
FFFFF800
FE000000
FE000000
FE000000
FE000000
FE000000
FE000000
FE000000
FE000000
FE000000
FE000000
FE000000
FFFFFF80
FFFFFF80
FFFFFF80
FFFFFF80
FFFFFF80
FFFFFF80
ENDCHAR
STARTCHAR 00C9
ENCODING 201
SWIDTH 576 0
DWIDTH 32 0
BBX 25 52 5 0
BITMAP
0000FF00
0003FE00
0007FC00
000FF800
001FF000
001FE000
003F8000
007F0000
00FE0000
00000000
00000000
00000000
FFFFFF80
FFFFFF80
FFFFFF80
FFFFFF80
FFFFFF80
FFFFFF80
FE000000
FE000000
FE000000
FE000000
FE000000
FE000000
FE000000
FE000000
FE000000
FE000000
FE000000
FFFFF800
FFFFF800
FFFFF800
FFFFF800
FFFFF800
FFFFF800
FE000000
FE000000
FE000000
FE000000
FE000000
FE000000
FE000000
FE000000
FE000000
FE000000
FE000000
FFFFFF80
FFFFFF80
FFFFFF80
FFFFFF80
FFFFFF80
FFFFFF80
ENDCHAR
STARTCHAR 00CA
ENCODING 202
SWIDTH 576 0
DWIDTH 32 0
BBX 25 51 5 0
BITMAP
003F0000
007F8000
00FFC000
01FFE000
01F3F000
03F1F800
07E0FC00
1FC0FE00
00000000
00000000
00000000
FFFFFF80
FFFFFF80
FFFFFF80
FFFFFF80
FFFFFF80
FFFFFF80
FE000000
FE000000
FE000000
FE000000
FE000000
FE000000
FE000000
FE000000
FE000000
FE000000
FE000000
FFFFF800
FFFFF800
FFFFF800
FFFFF800
FFFFF800
FFFFF800
FE000000
FE000000
FE000000
FE000000
FE000000
FE000000
FE000000
FE000000
FE000000
FE000000
FE000000
FFFFFF80
FFFFFF80
FFFFFF80
FFFFFF80
FFFFFF80
FFFFFF80
ENDCHAR
STARTCHAR 00CB
ENCODING 203
SWIDTH 576 0
DWIDTH 32 0
BBX 25 50 5 0
BITMAP
07807800
0FC0FC00
1FE0FE00
1FE0FE00
1FE0FE00
0FC0FC00
07807800
00000000
00000000
00000000
FFFFFF80
FFFFFF80
FFFFFF80
FFFFFF80
FFFFFF80
FFFFFF80
FE000000
FE000000
FE000000
FE000000
FE000000
FE000000
FE000000
FE000000
FE000000
FE000000
FE000000
FFFFF800
FFFFF800
FFFFF800
FFFFF800
FFFFF800
FFFFF800
FE000000
FE000000
FE000000
FE000000
FE000000
FE000000
FE000000
FE000000
FE000000
FE000000
FE000000
FFFFFF80
FFFFFF80
FFFFFF80
FFFFFF80
FFFFFF80
FFFFFF80
ENDCHAR
STARTCHAR 00CC
ENCODING 204
SWIDTH 306 0
DWIDTH 17 0
BBX 16 52 -3 0
BITMAP
FF00
7FC0
3FE0
1FF0
0FF0
07F8
01FC
00FE
007F
0000
0000
0000
00FE
00FE
00FE
00FE
00FE
00FE
00FE
00FE
00FE
00FE
00FE
00FE
00FE
00FE
00FE
00FE
00FE
00FE
00FE
00FE
00FE
00FE
00FE
00FE
00FE
00FE
00FE
00FE
00FE
00FE
00FE
00FE
00FE
00FE
00FE
00FE
00FE
00FE
00FE
00FE
ENDCHAR
STARTCHAR 00CD
ENCODING 205
SWIDTH 306 0
DWIDTH 17 0
BBX 16 52 4 0
BITMAP
00FF
03FE
07FC
0FF8
1FF0
1FE0
3F80
7F00
FE00
0000
0000
0000
7F00
7F00
7F00
7F00
7F00
7F00
7F00
7F00
7F00
7F00
7F00
7F00
7F00
7F00
7F00
7F00
7F00
7F00
7F00
7F00
7F00
7F00
7F00
7F00
7F00
7F00
7F00
7F00
7F00
7F00
7F00
7F00
7F00
7F00
7F00
7F00
7F00
7F00
7F00
7F00
ENDCHAR
STARTCHAR 00CE
ENCODING 206
SWIDTH 306 0
DWIDTH 17 0
BBX 20 51 -2 0
BITMAP
01F800
03FC00
07FE00
0FFF00
0F9F80
1F8FC0
3F07E0
FE07F0
000000
000000
000000
01FC00
01FC00
01FC00
01FC00
01FC00
01FC00
01FC00
01FC00
01FC00
01FC00
01FC00
01FC00
01FC00
01FC00
01FC00
01FC00
01FC00
01FC00
01FC00
01FC00
01FC00
01FC00
01FC00
01FC00
01FC00
01FC00
01FC00
01FC00
01FC00
01FC00
01FC00
01FC00
01FC00
01FC00
01FC00
01FC00
01FC00
01FC00
01FC00
01FC00
ENDCHAR
STARTCHAR 00CF
ENCODING 207
SWIDTH 306 0
DWIDTH 17 0
BBX 20 50 -2 0
BITMAP
3C03C0
7E07E0
FF07F0
FF07F0
FF07F0
7E07E0
3C03C0
000000
000000
000000
01FC00
01FC00
01FC00
01FC00
01FC00
01FC00
01FC00
01FC00
01FC00
01FC00
01FC00
01FC00
01FC00
01FC00
01FC00
01FC00
01FC00
01FC00
01FC00
01FC00
01FC00
01FC00
01FC00
01FC00
01FC00
01FC00
01FC00
01FC00
01FC00
01FC00
01FC00
01FC00
01FC00
01FC00
01FC00
01FC00
01FC00
01FC00
01FC00
01FC00
ENDCHAR
STARTCHAR 00D0
ENCODING 208
SWIDTH 774 0
DWIDTH 43 0
BBX 41 40 0 0
BITMAP
07FFFF800000
07FFFFF80000
07FFFFFE0000
07FFFFFF8000
07FFFFFFC000
07FFFFFFE000
07F800FFF000
07F8001FF800
07F8000FFC00
07F80003FC00
07F80003FE00
07F80001FE00
07F80000FF00
07F80000FF00
07F80000FF00
07F800007F80
07F800007F80
07F800007F80
FFFFF0007F80
FFFFF0007F80
FFFFF0007F80
FFFFF0007F80
07F800007F80
07F800007F80
07F800007F80
07F80000FF00
07F80000FF00
07F80000FF00
07F80001FE00
07F80003FE00
07F80003FC00
07F8000FFC00
07F8001FF800
07F800FFF000
07FFFFFFE000
07FFFFFFC000
07FFFFFF8000
07FFFFFE0000
07FFFFF80000
07FFFF800000
ENDCHAR
STARTCHAR 00D1
ENCODING 209
SWIDTH 774 0
DWIDTH 43 0
BBX 34 51 5 0
BITMAP
001F01E000
003FC1E000
007FE3E000
00FFFFE000
00FFFFC000
00F8FFC000
01F07F8000
01F01F0000
0000000000
0000000000
0000000000
F800001FC0
FC00001FC0
FE00001FC0
FF00001FC0
FF80001FC0
FF80001FC0
FFC0001FC0
FFE0001FC0
FFF0001FC0
FFF0001FC0
FFF8001FC0
FFFC001FC0
FFFE001FC0
FDFF001FC0
FCFF001FC0
FC7F801FC0
FC7FC01FC0
FC3FE01FC0
FC1FF01FC0
FC0FF01FC0
FC07F81FC0
FC07FC1FC0
FC03FE1FC0
FC01FE1FC0
FC00FF1FC0
FC007F9FC0
FC007FDFC0
FC003FFFC0
FC001FFFC0
FC000FFFC0
FC0007FFC0
FC0007FFC0
FC0003FFC0
FC0001FFC0
FC0000FFC0
FC00007FC0
FC00007FC0
FC00003FC0
FC00001FC0
FC00000FC0
ENDCHAR
STARTCHAR 00D2
ENCODING 210
SWIDTH 810 0
DWIDTH 45 0
BBX 41 52 2 0
BITMAP
007F80000000
003FE0000000
001FF0000000
000FF8000000
0007F8000000
0003FC000000
0000FE000000
00007F000000
00003F800000
000000000000
000000000000
000000000000
0000FFC00000
000FFFF80000
003FFFFE0000
00FFFFFF8000
01FFFFFFC000
03FFFFFFE000
07FF80FFF000
0FFC001FF800
1FF80007FC00
1FE00003FC00
3FE00001FE00
3FC00001FE00
7F800000FF00
7F800000FF00
7F8000007F00
7F0000007F80
FF0000007F80
FF0000007F80
FF0000007F80
FF0000007F80
FF0000007F80
FF0000007F80
FF0000007F80
FF0000007F80
7F0000007F80
7F8000007F00
7F800000FF00
7F800000FF00
3FC00001FE00
3FE00001FE00
1FE00003FC00
1FF80007FC00
0FFC001FF800
07FF807FF000
03FFFFFFE000
01FFFFFFC000
00FFFFFF8000
003FFFFE0000
000FFFF80000
0000FFC00000
ENDCHAR
STARTCHAR 00D3
ENCODING 211
SWIDTH 810 0
DWIDTH 45 0
BBX 41 52 2 0
BITMAP
000000FF0000
000003FE0000
000007FC0000
00000FF80000
00001FF00000
00001FE00000
00003F800000
00007F000000
0000FE000000
000000000000
000000000000
000000000000
0000FFC00000
000FFFF80000
003FFFFE0000
00FFFFFF8000
01FFFFFFC000
03FFFFFFE000
07FF80FFF000
0FFC001FF800
1FF80007FC00
1FE00003FC00
3FE00001FE00
3FC00001FE00
7F800000FF00
7F800000FF00
7F8000007F00
7F0000007F80
FF0000007F80
FF0000007F80
FF0000007F80
FF0000007F80
FF0000007F80
FF0000007F80
FF0000007F80
FF0000007F80
7F0000007F80
7F8000007F00
7F800000FF00
7F800000FF00
3FC00001FE00
3FE00001FE00
1FE00003FC00
1FF80007FC00
0FFC001FF800
07FF807FF000
03FFFFFFE000
01FFFFFFC000
00FFFFFF8000
003FFFFE0000
000FFFF80000
0000FFC00000
ENDCHAR
STARTCHAR 00D4
ENCODING 212
SWIDTH 810 0
DWIDTH 45 0
BBX 41 51 2 0
BITMAP
00007E000000
0000FF000000
0001FF800000
0003FFC00000
0003E7E00000
0007E3F00000
000FC1F80000
003F81FC0000
000000000000
000000000000
000000000000
0000FFC00000
000FFFF80000
003FFFFE0000
00FFFFFF8000
01FFFFFFC000
03FFFFFFE000
07FF80FFF000
0FFC001FF800
1FF80007FC00
1FE00003FC00
3FE00001FE00
3FC00001FE00
7F800000FF00
7F800000FF00
7F8000007F00
7F0000007F80
FF0000007F80
FF0000007F80
FF0000007F80
FF0000007F80
FF0000007F80
FF0000007F80
FF0000007F80
FF0000007F80
7F0000007F80
7F8000007F00
7F800000FF00
7F800000FF00
3FC00001FE00
3FE00001FE00
1FE00003FC00
1FF80007FC00
0FFC001FF800
07FF807FF000
03FFFFFFE000
01FFFFFFC000
00FFFFFF8000
003FFFFE0000
000FFFF80000
0000FFC00000
ENDCHAR
STARTCHAR 00D5
ENCODING 213
SWIDTH 810 0
DWIDTH 45 0
BBX 41 51 2 0
BITMAP
0003E03C0000
0007F83C0000
000FFC7C0000
001FFFFC0000
001FFFF80000
001F1FF80000
003E0FF00000
003E03E00000
000000000000
000000000000
000000000000
0000FFC00000
000FFFF80000
003FFFFE0000
00FFFFFF8000
01FFFFFFC000
03FFFFFFE000
07FF80FFF000
0FFC001FF800
1FF80007FC00
1FE00003FC00
3FE00001FE00
3FC00001FE00
7F800000FF00
7F800000FF00
7F8000007F00
7F0000007F80
FF0000007F80
FF0000007F80
FF0000007F80
FF0000007F80
FF0000007F80
FF0000007F80
FF0000007F80
FF0000007F80
7F0000007F80
7F8000007F00
7F800000FF00
7F800000FF00
3FC00001FE00
3FE00001FE00
1FE00003FC00
1FF80007FC00
0FFC001FF800
07FF807FF000
03FFFFFFE000
01FFFFFFC000
00FFFFFF8000
003FFFFE0000
000FFFF80000
0000FFC00000
ENDCHAR
STARTCHAR 00D6
ENCODING 214
SWIDTH 810 0
DWIDTH 45 0
BBX 41 50 2 0
BITMAP
000F00F00000
001F81F80000
003FC1FC0000
003FC1FC0000
003FC1FC0000
001F81F80000
000F00F00000
000000000000
000000000000
000000000000
0000FFC00000
000FFFF80000
003FFFFE0000
00FFFFFF8000
01FFFFFFC000
03FFFFFFE000
07FF80FFF000
0FFC001FF800
1FF80007FC00
1FE00003FC00
3FE00001FE00
3FC00001FE00
7F800000FF00
7F800000FF00
7F8000007F00
7F0000007F80
FF0000007F80
FF0000007F80
FF0000007F80
FF0000007F80
FF0000007F80
FF0000007F80
FF0000007F80
FF0000007F80
7F0000007F80
7F8000007F00
7F800000FF00
7F800000FF00
3FC00001FE00
3FE00001FE00
1FE00003FC00
1FF80007FC00
0FFC001FF800
07FF807FF000
03FFFFFFE000
01FFFFFFC000
00FFFFFF8000
003FFFFE0000
000FFFF80000
0000FFC00000
ENDCHAR
STARTCHAR 00D7
ENCODING 215
SWIDTH 576 0
DWIDTH 32 0
BBX 26 26 3 6
BITMAP
08000200
18000600
3C000F00
7E001F80
FF003FC0
3F807F80
1FC0FF00
0FE1FE00
07F3FC00
03FFF800
01FFF000
00FFE000
007FC000
007F8000
00FFC000
01FFE000
03FFF000
07FBF800
0FF1FC00
1FE0FE00
3FC07F00
7F803F80
FF001FC0
7E000FC0
3C000780
18000300
ENDCHAR
STARTCHAR 00D8
ENCODING 216
SWIDTH 810 0
DWIDTH 45 0
BBX 41 45 2 -2
BITMAP
000000000F00
000000003E00
000000007E00
0000FFC07C00
000FFFF8F800
003FFFFFF000
00FFFFFFF000
01FFFFFFE000
03FFFFFFF000
07FF807FF800
0FFC001FFC00
1FF8001FFC00
1FE0003FFE00
3FE0007FFE00
3FC0007DFF00
7F8000FCFF00
7F8001F8FF00
7F8003F07F80
7F0003E07F80
FF0007E07F80
FF000FC07F80
FF001F807F80
FF001F007F80
FF003F007F80
FF007E007F80
FF007C007F80
FF00F8007F80
FF01F8007F80
7F83F0007F00
7F83E000FF00
7F87C000FF00
3FCFC001FE00
3FFF8001FE00
1FFF0003FC00
1FFF0007FC00
0FFE001FF800
07FF807FF000
03FFFFFFE000
01FFFFFFC000
03FFFFFF8000
07FFFFFE0000
0FCFFFF80000
0F80FFC00000
1F8000000000
7F0000000000
ENDCHAR
STARTCHAR 00D9
ENCODING 217
SWIDTH 756 0
DWIDTH 42 0
BBX 34 52 4 0
BITMAP
07F8000000
03FE000000
01FF000000
00FF800000
007F800000
003FC00000
000FE00000
0007F00000
0003F80000
0000000000
0000000000
0000000000
FF00003FC0
FF00003FC0
FF00003FC0
FF00003FC0
FF00003FC0
FF00003FC0
FF00003FC0
FF00003FC0
FF00003FC0
FF00003FC0
FF00003FC0
FF00003FC0
FF00003FC0
FF00003FC0
FF00003FC0
FF00003FC0
FF00003FC0
FF00003FC0
FF00003FC0
FF00003FC0
FF00003FC0
FF00003FC0
FF00003FC0
FF00003FC0
FF00003FC0
FF00003FC0
FF00003F80
FF00003F80
7F00007F80
7F80007F80
7F8000FF00
3FC001FF00
3FE003FE00
1FF80FFE00
0FFFFFFC00
07FFFFF800
03FFFFF000
01FFFFC000
007FFF8000
000FF80000
ENDCHAR
STARTCHAR 00DA
ENCODING 218
SWIDTH 756 0
DWIDTH 42 0
BBX 34 52 4 0
BITMAP
00000FF000
00003FE000
00007FC000
0000FF8000
0001FF0000
0001FE0000
0003F80000
0007F00000
000FE00000
0000000000
0000000000
0000000000
FF00003FC0
FF00003FC0
FF00003FC0
FF00003FC0
FF00003FC0
FF00003FC0
FF00003FC0
FF00003FC0
FF00003FC0
FF00003FC0
FF00003FC0
FF00003FC0
FF00003FC0
FF00003FC0
FF00003FC0
FF00003FC0
FF00003FC0
FF00003FC0
FF00003FC0
FF00003FC0
FF00003FC0
FF00003FC0
FF00003FC0
FF00003FC0
FF00003FC0
FF00003FC0
FF00003F80
FF00003F80
7F00007F80
7F80007F80
7F8000FF00
3FC001FF00
3FE003FE00
1FF80FFE00
0FFFFFFC00
07FFFFF800
03FFFFF000
01FFFFC000
007FFF8000
000FF80000
ENDCHAR
STARTCHAR 00DB
ENCODING 219
SWIDTH 756 0
DWIDTH 42 0
BBX 34 51 4 0
BITMAP
0003F00000
0007F80000
000FFC0000
001FFE0000
001F3F0000
003F1F8000
007E0FC000
01FC0FE000
0000000000
0000000000
0000000000
FF00003FC0
FF00003FC0
FF00003FC0
FF00003FC0
FF00003FC0
FF00003FC0
FF00003FC0
FF00003FC0
FF00003FC0
FF00003FC0
FF00003FC0
FF00003FC0
FF00003FC0
FF00003FC0
FF00003FC0
FF00003FC0
FF00003FC0
FF00003FC0
FF00003FC0
FF00003FC0
FF00003FC0
FF00003FC0
FF00003FC0
FF00003FC0
FF00003FC0
FF00003FC0
FF00003F80
FF00003F80
7F00007F80
7F80007F80
7F8000FF00
3FC001FF00
3FE003FE00
1FF80FFE00
0FFFFFFC00
07FFFFF800
03FFFFF000
01FFFFC000
007FFF8000
000FF80000
ENDCHAR
STARTCHAR 00DC
ENCODING 220
SWIDTH 756 0
DWIDTH 42 0
BBX 34 50 4 0
BITMAP
0078078000
00FC0FC000
01FE0FE000
01FE0FE000
01FE0FE000
00FC0FC000
0078078000
0000000000
0000000000
0000000000
FF00003FC0
FF00003FC0
FF00003FC0
FF00003FC0
FF00003FC0
FF00003FC0
FF00003FC0
FF00003FC0
FF00003FC0
FF00003FC0
FF00003FC0
FF00003FC0
FF00003FC0
FF00003FC0
FF00003FC0
FF00003FC0
FF00003FC0
FF00003FC0
FF00003FC0
FF00003FC0
FF00003FC0
FF00003FC0
FF00003FC0
FF00003FC0
FF00003FC0
FF00003FC0
FF00003F80
FF00003F80
7F00007F80
7F80007F80
7F8000FF00
3FC001FF00
3FE003FE00
1FF80FFE00
0FFFFFFC00
07FFFFF800
03FFFFF000
01FFFFC000
007FFF8000
000FF80000
ENDCHAR
STARTCHAR 00DD
ENCODING 221
SWIDTH 648 0
DWIDTH 36 0
BBX 37 52 0 0
BITMAP
000003FC00
00000FF800
00001FF000
00003FE000
00007FC000
00007F8000
0000FE0000
0001FC0000
0003F80000
0000000000
0000000000
0000000000
FF00000FF8
7F80000FF0
7F80001FE0
3FC0003FE0
3FC0003FC0
1FE0007F80
0FE0007F80
0FF000FF00
07F800FF00
07F801FE00
03FC01FC00
01FC03FC00
01FE03F800
00FE07F800
00FF0FF000
007F0FE000
003F9FE000
003F9FC000
001FDFC000
001FFF8000
000FFF0000
0007FF0000
0007FE0000
0003FE0000
0003FC0000
0003FC0000
0003FC0000
0003FC0000
0003FC0000
0003FC0000
0003FC0000
0003FC0000
0003FC0000
0003FC0000
0003FC0000
0003FC0000
0003FC0000
0003FC0000
0003FC0000
0003FC0000
ENDCHAR
STARTCHAR 00DE
ENCODING 222
SWIDTH 612 0
DWIDTH 34 0
BBX 28 40 5 0
BITMAP
FE000000
FE000000
FE000000
FE000000
FE000000
FE000000
FE000000
FFFFC000
FFFFF800
FFFFFE00
FFFFFF00
FFFFFFC0
FFFFFFC0
FE00FFE0
FE003FE0
FE001FF0
FE000FF0
FE0007F0
FE0007F0
FE0007F0
FE0007F0
FE0007F0
FE000FF0
FE000FF0
FE001FF0
FE003FE0
FE00FFE0
FFFFFFC0
FFFFFF80
FFFFFF00
FFFFFE00
FFFFF800
FFFFC000
FE000000
FE000000
FE000000
FE000000
FE000000
FE000000
FE000000
ENDCHAR
STARTCHAR 00DF
ENCODING 223
SWIDTH 612 0
DWIDTH 34 0
BBX 29 40 3 0
BITMAP
001FE000
00FFFC00
03FFFF00
07FFFF80
0FFFFFC0
1FF03FC0
3FC01FE0
3F800FE0
7F000FE0
7F0007E0
7F000FE0
7E000FE0
FE001FC0
FE007FC0
FE00FF00
FE01FE00
FE03FC00
FE07F000
FE07F000
FE07F000
FE07F800
FE07FC00
FE07FF00
FE03FF80
FE03FFE0
FE00FFF0
FE007FF0
FE001FF8
FE0007F8
FE0003F8
FE0001F8
FE0001F8
FE0001F8
FE1C03F8
FE3F07F0
FE3FFFF0
FE7FFFE0
FE3FFFC0
FE0FFF80
FE01FC00
ENDCHAR
STARTCHAR 00E0
ENCODING 224
SWIDTH 504 0
DWIDTH 28 0
BBX 24 40 1 0
BITMAP
0FF800
03F800
01FC00
00FE00
007E00
003F00
001F00
000F80
000000
000000
000000
007F80
03FFE0
0FFFF8
1FFFFC
3FFFFE
1FC1FE
1F00FF
00007F
00007F
00003F
00003F
00003F
001FFF
01FFFF
07FFFF
1FFFFF
3FF03F
7F803F
7F003F
7E003F
FE003F
FE007F
FE00FF
7F83FF
7FFFFF
7FFFFF
3FFF1F
1FFE1F
07F01F
ENDCHAR
STARTCHAR 00E1
ENCODING 225
SWIDTH 504 0
DWIDTH 28 0
BBX 24 40 1 0
BITMAP
0003FE
0007F8
0007F0
000FE0
000FC0
001FC0
003F80
003E00
000000
000000
000000
007F80
03FFE0
0FFFF8
1FFFFC
3FFFFE
1FC1FE
1F00FF
00007F
00007F
00003F
00003F
00003F
001FFF
01FFFF
07FFFF
1FFFFF
3FF03F
7F803F
7F003F
7E003F
FE003F
FE007F
FE00FF
7F83FF
7FFFFF
7FFFFF
3FFF1F
1FFE1F
07F01F
ENDCHAR
STARTCHAR 00E2
ENCODING 226
SWIDTH 504 0
DWIDTH 28 0
BBX 24 40 1 0
BITMAP
003F80
007FC0
00FFE0
01FFE0
03F3F0
07E1F8
0FC0FC
000002
000000
000000
000000
007F80
03FFE0
0FFFF8
1FFFFC
3FFFFE
1FC1FE
1F00FF
00007F
00007F
00003F
00003F
00003F
001FFF
01FFFF
07FFFF
1FFFFF
3FF03F
7F803F
7F003F
7E003F
FE003F
FE007F
FE00FF
7F83FF
7FFFFF
7FFFFF
3FFF1F
1FFE1F
07F01F
ENDCHAR
STARTCHAR 00E3
ENCODING 227
SWIDTH 504 0
DWIDTH 28 0
BBX 24 40 1 0
BITMAP
00F03C
03FE3C
07FFFC
07FFFC
07FFF8
0F8FF0
0F83E0
000000
000000
000000
000000
007F80
03FFE0
0FFFF8
1FFFFC
3FFFFE
1FC1FE
1F00FF
00007F
00007F
00003F
00003F
00003F
001FFF
01FFFF
07FFFF
1FFFFF
3FF03F
7F803F
7F003F
7E003F
FE003F
FE007F
FE00FF
7F83FF
7FFFFF
7FFFFF
3FFF1F
1FFE1F
07F01F
ENDCHAR
STARTCHAR 00E4
ENCODING 228
SWIDTH 504 0
DWIDTH 28 0
BBX 24 40 1 0
BITMAP
038078
07C0FC
0FE1FC
0FE1FE
0FE1FE
0FE1FC
0FE0FC
038078
000000
000000
000000
007F80
03FFE0
0FFFF8
1FFFFC
3FFFFE
1FC1FE
1F00FF
00007F
00007F
00003F
00003F
00003F
001FFF
01FFFF
07FFFF
1FFFFF
3FF03F
7F803F
7F003F
7E003F
FE003F
FE007F
FE00FF
7F83FF
7FFFFF
7FFFFF
3FFF1F
1FFE1F
07F01F
ENDCHAR
STARTCHAR 00E5
ENCODING 229
SWIDTH 504 0
DWIDTH 28 0
BBX 24 42 1 0
BITMAP
001F00
007F80
00FFC0
01F1E0
01E0E0
01E0E0
01E0E0
01F1E0
00FFE0
007FC0
001F00
000000
000000
007F80
03FFE0
0FFFF8
1FFFFC
3FFFFE
1FC1FE
1F00FF
00007F
00007F
00003F
00003F
00003F
001FFF
01FFFF
07FFFF
1FFFFF
3FF03F
7F803F
7F003F
7E003F
FE003F
FE007F
FE00FF
7F83FF
7FFFFF
7FFFFF
3FFF1F
1FFE1F
07F01F
ENDCHAR
STARTCHAR 00E6
ENCODING 230
SWIDTH 810 0
DWIDTH 45 0
BBX 43 29 1 0
BITMAP
007F801FC000
03FFE07FF800
0FFFF1FFFC00
1FFFFBFFFE00
3FFFFFFFFF00
3FC1FFF07F80
1F00FFE03F80
0C007FC01F80
00007F800FC0
00003F800FC0
00003F800FC0
00003F000FC0
001FFFFFFFC0
01FFFFFFFFE0
07FFFFFFFFC0
1FFFFFFFFFC0
3FF03F000000
3F803F000000
7F003F800000
7E007F800000
FE007F800000
FE007FC00000
FF00FFE00780
7F83FFF81FC0
7FFFF7FFFFC0
3FFFE3FFFF80
3FFFC1FFFF00
0FFF807FFC00
03FC001FE000
ENDCHAR
STARTCHAR 00E7
ENCODING 231
SWIDTH 486 0
DWIDTH 27 0
BBX 24 39 2 -10
BITMAP
003FC0
01FFF8
07FFFC
0FFFFF
1FFFFE
3FE07E
3FC01C
7F8000
7F0000
7F0000
FE0000
FE0000
FE0000
FE0000
FE0000
FE0000
FE0000
FE0000
FE0000
FF0000
7F0000
7F8000
3FC01C
3FE07E
1FFFFF
0FFFFE
07FFFC
03FFF8
00FFE0
001E00
001E00
003F80
003FC0
000FE0
0003E0
0007E0
007FE0
007FC0
00FF00
ENDCHAR
STARTCHAR 00E8
ENCODING 232
SWIDTH 540 0
DWIDTH 30 0
BBX 26 40 2 0
BITMAP
07FC0000
01FC0000
00FE0000
007F0000
003F0000
001F8000
000F8000
0007C000
00000000
00000000
00000000
003FC000
01FFF000
07FFFC00
0FFFFE00
1FFFFF00
3FE07F00
3F803F80
7F001F80
7F001FC0
FE000FC0
FE000FC0
FFFFFFC0
FFFFFFC0
FFFFFFC0
FFFFFFC0
FE000000
FE000000
FE000000
FE000000
7F000000
7F000000
7F800200
3FC00F00
1FF03F80
1FFFFFC0
0FFFFF80
07FFFF00
01FFFC00
003FE000
ENDCHAR
STARTCHAR 00E9
ENCODING 233
SWIDTH 540 0
DWIDTH 30 0
BBX 26 40 2 0
BITMAP
0001FF00
0003FC00
0003F800
0007F000
0007E000
000FE000
001FC000
001F0000
00000000
00000000
00000000
003FC000
01FFF000
07FFFC00
0FFFFE00
1FFFFF00
3FE07F00
3F803F80
7F001F80
7F001FC0
FE000FC0
FE000FC0
FFFFFFC0
FFFFFFC0
FFFFFFC0
FFFFFFC0
FE000000
FE000000
FE000000
FE000000
7F000000
7F000000
7F800200
3FC00F00
1FF03F80
1FFFFFC0
0FFFFF80
07FFFF00
01FFFC00
003FE000
ENDCHAR
STARTCHAR 00EA
ENCODING 234
SWIDTH 540 0
DWIDTH 30 0
BBX 26 40 2 0
BITMAP
001FC000
003FE000
007FF000
00FFF000
01F9F800
03F0FC00
07E07E00
00000100
00000000
00000000
00000000
003FC000
01FFF000
07FFFC00
0FFFFE00
1FFFFF00
3FE07F00
3F803F80
7F001F80
7F001FC0
FE000FC0
FE000FC0
FFFFFFC0
FFFFFFC0
FFFFFFC0
FFFFFFC0
FE000000
FE000000
FE000000
FE000000
7F000000
7F000000
7F800200
3FC00F00
1FF03F80
1FFFFFC0
0FFFFF80
07FFFF00
01FFFC00
003FE000
ENDCHAR
STARTCHAR 00EB
ENCODING 235
SWIDTH 540 0
DWIDTH 30 0
BBX 26 40 2 0
BITMAP
01C03C00
03E07E00
07F0FE00
07F0FF00
07F0FF00
07F0FE00
07F07E00
01C03C00
00000000
00000000
00000000
003FC000
01FFF000
07FFFC00
0FFFFE00
1FFFFF00
3FE07F00
3F803F80
7F001F80
7F001FC0
FE000FC0
FE000FC0
FFFFFFC0
FFFFFFC0
FFFFFFC0
FFFFFFC0
FE000000
FE000000
FE000000
FE000000
7F000000
7F000000
7F800200
3FC00F00
1FF03F80
1FFFFFC0
0FFFFF80
07FFFF00
01FFFC00
003FE000
ENDCHAR
STARTCHAR 00EC
ENCODING 236
SWIDTH 252 0
DWIDTH 14 0
BBX 13 40 -2 0
BITMAP
FF80
3F80
1FC0
0FE0
07E0
03F0
01F0
00F8
0000
0000
0000
03F8
03F8
03F8
03F8
03F8
03F8
03F8
03F8
03F8
03F8
03F8
03F8
03F8
03F8
03F8
03F8
03F8
03F8
03F8
03F8
03F8
03F8
03F8
03F8
03F8
03F8
03F8
03F8
03F8
ENDCHAR
STARTCHAR 00ED
ENCODING 237
SWIDTH 252 0
DWIDTH 14 0
BBX 13 40 4 0
BITMAP
0FF8
1FE0
1FC0
3F80
3F00
7F00
FE00
F800
0000
0000
0000
FE00
FE00
FE00
FE00
FE00
FE00
FE00
FE00
FE00
FE00
FE00
FE00
FE00
FE00
FE00
FE00
FE00
FE00
FE00
FE00
FE00
FE00
FE00
FE00
FE00
FE00
FE00
FE00
FE00
ENDCHAR
STARTCHAR 00EE
ENCODING 238
SWIDTH 252 0
DWIDTH 14 0
BBX 19 40 -2 0
BITMAP
03F800
07FC00
0FFE00
1FFE00
3F3F00
7E1F80
FC0FC0
000020
000000
000000
000000
03F800
03F800
03F800
03F800
03F800
03F800
03F800
03F800
03F800
03F800
03F800
03F800
03F800
03F800
03F800
03F800
03F800
03F800
03F800
03F800
03F800
03F800
03F800
03F800
03F800
03F800
03F800
03F800
03F800
ENDCHAR
STARTCHAR 00EF
ENCODING 239
SWIDTH 252 0
DWIDTH 14 0
BBX 17 40 -1 0
BITMAP
381E00
FC3F00
FE7F80
FE7F80
FE7F80
FE7F80
FC3F00
381E00
000000
000000
000000
07F000
07F000
07F000
07F000
07F000
07F000
07F000
07F000
07F000
07F000
07F000
07F000
07F000
07F000
07F000
07F000
07F000
07F000
07F000
07F000
07F000
07F000
07F000
07F000
07F000
07F000
07F000
07F000
07F000
ENDCHAR
STARTCHAR 00F0
ENCODING 240
SWIDTH 576 0
DWIDTH 32 0
BBX 28 40 2 0
BITMAP
01800200
03F80600
03FE1E00
03FFFF00
03FFFE00
01FFFC00
003FF800
003FFC00
007FFE00
00FEFF00
00783F80
00701F80
00201FC0
00000FC0
007F0FC0
03FFE7E0
07FFF7E0
0FFFFFE0
1FFFFFE0
3FE07FF0
7F801FF0
7F000FF0
FF000FF0
FE0007F0
FE0007F0
FE0007F0
FE0007F0
FE0007E0
FE0007E0
FE000FE0
FE000FE0
7F000FC0
7F001FC0
7F803F80
3FE0FF80
1FFFFF00
0FFFFE00
07FFFC00
01FFF000
007FC000
ENDCHAR
STARTCHAR 00F1
ENCODING 241
SWIDTH 576 0
DWIDTH 32 0
BBX 25 40 3 0
BITMAP
00F03C00
03FE3C00
07FFFC00
07FFFC00
07FFF800
0F8FF000
0F83E000
00000000
00000000
00000000
00000000
FC1FE000
FC7FF800
FEFFFC00
FFFFFE00
FFFFFF00
FFE0FF00
FF807F80
FF003F80
FE003F80
FE003F80
FE001F80
FE001F80
FE001F80
FE001F80
FE001F80
FE001F80
FE001F80
FE001F80
FE001F80
FE001F80
FE001F80
FE001F80
FE001F80
FE001F80
FE001F80
FE001F80
FE001F80
FE001F80
FE001F80
ENDCHAR
STARTCHAR 00F2
ENCODING 242
SWIDTH 576 0
DWIDTH 32 0
BBX 28 40 2 0
BITMAP
07FC0000
01FC0000
00FE0000
007F0000
003F0000
001F8000
000F8000
0007C000
00000000
00000000
00000000
003FC000
01FFF800
07FFFE00
0FFFFF00
1FFFFF80
3FE07FC0
3FC01FC0
7F801FE0
7F000FE0
7F000FF0
FE0007F0
FE0007F0
FE0007F0
FE0007F0
FE0007F0
FE0007F0
FE0007F0
FE0007F0
FE0007F0
7F000FF0
7F000FE0
7F801FE0
3FC01FC0
3FE07FC0
1FFFFF80
0FFFFF00
07FFFE00
01FFF800
003FC000
ENDCHAR
STARTCHAR 00F3
ENCODING 243
SWIDTH 576 0
DWIDTH 32 0
BBX 28 40 2 0
BITMAP
0001FF00
0003FC00
0003F800
0007F000
0007E000
000FE000
001FC000
001F0000
00000000
00000000
00000000
003FC000
01FFF800
07FFFE00
0FFFFF00
1FFFFF80
3FE07FC0
3FC01FC0
7F801FE0
7F000FE0
7F000FF0
FE0007F0
FE0007F0
FE0007F0
FE0007F0
FE0007F0
FE0007F0
FE0007F0
FE0007F0
FE0007F0
7F000FF0
7F000FE0
7F801FE0
3FC01FC0
3FE07FC0
1FFFFF80
0FFFFF00
07FFFE00
01FFF800
003FC000
ENDCHAR
STARTCHAR 00F4
ENCODING 244
SWIDTH 576 0
DWIDTH 32 0
BBX 28 40 2 0
BITMAP
001FC000
003FE000
007FF000
00FFF000
01F9F800
03F0FC00
07E07E00
00000100
00000000
00000000
00000000
003FC000
01FFF800
07FFFE00
0FFFFF00
1FFFFF80
3FE07FC0
3FC01FC0
7F801FE0
7F000FE0
7F000FF0
FE0007F0
FE0007F0
FE0007F0
FE0007F0
FE0007F0
FE0007F0
FE0007F0
FE0007F0
FE0007F0
7F000FF0
7F000FE0
7F801FE0
3FC01FC0
3FE07FC0
1FFFFF80
0FFFFF00
07FFFE00
01FFF800
003FC000
ENDCHAR
STARTCHAR 00F5
ENCODING 245
SWIDTH 576 0
DWIDTH 32 0
BBX 28 40 2 0
BITMAP
00781E00
01FF1E00
03FFFE00
03FFFE00
03FFFC00
07C7F800
07C1F000
00000000
00000000
00000000
00000000
003FC000
01FFF800
07FFFE00
0FFFFF00
1FFFFF80
3FE07FC0
3FC01FC0
7F801FE0
7F000FE0
7F000FF0
FE0007F0
FE0007F0
FE0007F0
FE0007F0
FE0007F0
FE0007F0
FE0007F0
FE0007F0
FE0007F0
7F000FF0
7F000FE0
7F801FE0
3FC01FC0
3FE07FC0
1FFFFF80
0FFFFF00
07FFFE00
01FFF800
003FC000
ENDCHAR
STARTCHAR 00F6
ENCODING 246
SWIDTH 576 0
DWIDTH 32 0
BBX 28 40 2 0
BITMAP
01C03C00
03E07E00
07F0FE00
07F0FF00
07F0FF00
07F0FE00
07F07E00
01C03C00
00000000
00000000
00000000
003FC000
01FFF800
07FFFE00
0FFFFF00
1FFFFF80
3FE07FC0
3FC01FC0
7F801FE0
7F000FE0
7F000FF0
FE0007F0
FE0007F0
FE0007F0
FE0007F0
FE0007F0
FE0007F0
FE0007F0
FE0007F0
FE0007F0
7F000FF0
7F000FE0
7F801FE0
3FC01FC0
3FE07FC0
1FFFFF80
0FFFFF00
07FFFE00
01FFF800
003FC000
ENDCHAR
STARTCHAR 00F7
ENCODING 247
SWIDTH 576 0
DWIDTH 32 0
BBX 27 28 3 5
BITMAP
001E0000
003F8000
007F8000
007F8000
007F8000
007F8000
003F8000
001E0000
00000000
00000000
00000000
FFFFFFE0
FFFFFFE0
FFFFFFE0
FFFFFFE0
FFFFFFE0
00000000
00000000
00000000
00000000
001E0000
003F8000
007F8000
007F8000
007F8000
007F8000
003F8000
001E0000
ENDCHAR
STARTCHAR 00F8
ENCODING 248
SWIDTH 576 0
DWIDTH 32 0
BBX 30 33 1 -1
BITMAP
0000001C
000000FC
000000F8
001FE1F0
00FFFFE0
03FFFFE0
07FFFFC0
0FFFFFC0
1FF03FE0
1FC01FE0
3FC03FF0
3F807FF0
3F00FFF8
7F00FBF8
7F01F3F8
7F03E3F8
7F07E1F8
7F07C1F8
7F0F81F8
7F1F03F8
7F3F03F8
7F3E03F8
3F7C03F8
3FF807F0
3FF007F0
1FF00FE0
1FF03FE0
0FFFFFC0
0FFFFF80
1FFFFF00
1FFFFC00
3E1FE000
FC000000
ENDCHAR
STARTCHAR 00F9
ENCODING 249
SWIDTH 576 0
DWIDTH 32 0
BBX 25 40 3 0
BITMAP
0FF80000
03F80000
01FC0000
00FE0000
007E0000
003F0000
001F0000
000F8000
00000000
00000000
00000000
FE003F80
FE003F80
FE003F80
FE003F80
FE003F80
FE003F80
FE003F80
FE003F80
FE003F80
FE003F80
FE003F80
FE003F80
FE003F80
FE003F80
FE003F80
FE003F80
FE003F80
FE003F80
FE003F80
FE003F80
FE003F80
FF003F80
7F00FF80
7FC1FF80
3FFFFF80
3FFFFF80
1FFF9F80
0FFF1F80
03FC0F80
ENDCHAR
STARTCHAR 00FA
ENCODING 250
SWIDTH 576 0
DWIDTH 32 0
BBX 25 40 3 0
BITMAP
0003FE00
0007F800
0007F000
000FE000
000FC000
001FC000
003F8000
003E0000
00000000
00000000
00000000
FE003F80
FE003F80
FE003F80
FE003F80
FE003F80
FE003F80
FE003F80
FE003F80
FE003F80
FE003F80
FE003F80
FE003F80
FE003F80
FE003F80
FE003F80
FE003F80
FE003F80
FE003F80
FE003F80
FE003F80
FE003F80
FF003F80
7F00FF80
7FC1FF80
3FFFFF80
3FFFFF80
1FFF9F80
0FFF1F80
03FC0F80
ENDCHAR
STARTCHAR 00FB
ENCODING 251
SWIDTH 576 0
DWIDTH 32 0
BBX 25 40 3 0
BITMAP
003F8000
007FC000
00FFE000
01FFE000
03F3F000
07E1F800
0FC0FC00
00000200
00000000
00000000
00000000
FE003F80
FE003F80
FE003F80
FE003F80
FE003F80
FE003F80
FE003F80
FE003F80
FE003F80
FE003F80
FE003F80
FE003F80
FE003F80
FE003F80
FE003F80
FE003F80
FE003F80
FE003F80
FE003F80
FE003F80
FE003F80
FF003F80
7F00FF80
7FC1FF80
3FFFFF80
3FFFFF80
1FFF9F80
0FFF1F80
03FC0F80
ENDCHAR
STARTCHAR 00FC
ENCODING 252
SWIDTH 576 0
DWIDTH 32 0
BBX 25 40 3 0
BITMAP
03807800
07C0FC00
0FE1FC00
0FE1FE00
0FE1FE00
0FE1FC00
0FE0FC00
03807800
00000000
00000000
00000000
FE003F80
FE003F80
FE003F80
FE003F80
FE003F80
FE003F80
FE003F80
FE003F80
FE003F80
FE003F80
FE003F80
FE003F80
FE003F80
FE003F80
FE003F80
FE003F80
FE003F80
FE003F80
FE003F80
FE003F80
FE003F80
FF003F80
7F00FF80
7FC1FF80
3FFFFF80
3FFFFF80
1FFF9F80
0FFF1F80
03FC0F80
ENDCHAR
STARTCHAR 00FD
ENCODING 253
SWIDTH 540 0
DWIDTH 30 0
BBX 30 49 0 -9
BITMAP
0000FF80
0001FE00
0001FC00
0003F800
0003F000
0007F000
000FE000
000F8000
00000000
00000000
00000000
FF0001FC
7F0003F8
7F8003F0
3F8007F0
3FC007F0
1FC00FE0
1FC00FE0
1FE00FC0
0FE01FC0
0FF01F80
07F03F80
07F03F80
03F83F00
03F87F00
01FC7E00
01FC7E00
01FCFC00
00FEFC00
00FFFC00
007FF800
007FF800
003FF000
003FF000
003FE000
001FE000
001FE000
000FC000
001FC000
001F8000
003F8000
003F0000
007F0000
007F0000
00FE0000
00FE0000
00FC0000
01FC0000
03F80000
ENDCHAR
STARTCHAR 00FE
ENCODING 254
SWIDTH 576 0
DWIDTH 32 0
BBX 27 50 3 -9
BITMAP
FE000000
FE000000
FE000000
FE000000
FE000000
FE000000
FE000000
FE000000
FE000000
FE000000
FE000000
FE000000
FE07E000
FE3FF800
FE7FFE00
FEFFFF00
FFFFFF00
FFE0FF80
FF803F80
FF003FC0
FE001FC0
FE001FC0
FE001FE0
FE000FE0
FE000FE0
FE000FE0
FE000FE0
FE000FE0
FE000FE0
FE001FE0
FE001FC0
FE001FC0
FE001FC0
FE003F80
FF007F80
FFC1FF00
FFFFFF00
FFFFFE00
FEFFFC00
FE7FF000
FE1FC000
FE000000
FE000000
FE000000
FE000000
FE000000
FE000000
FE000000
FE000000
FE000000
ENDCHAR
STARTCHAR 00FF
ENCODING 255
SWIDTH 540 0
DWIDTH 30 0
BBX 30 49 0 -9
BITMAP
00E01E00
01F03F00
03F87F00
03F87F80
03F87F80
03F87F00
03F83F00
00E01E00
00000000
00000000
00000000
FF0001FC
7F0003F8
7F8003F0
3F8007F0
3FC007F0
1FC00FE0
1FC00FE0
1FE00FC0
0FE01FC0
0FF01F80
07F03F80
07F03F80
03F83F00
03F87F00
01FC7E00
01FC7E00
01FCFC00
00FEFC00
00FFFC00
007FF800
007FF800
003FF000
003FF000
003FE000
001FE000
001FE000
000FC000
001FC000
001F8000
003F8000
003F0000
007F0000
007F0000
00FE0000
00FE0000
00FC0000
01FC0000
03F80000
ENDCHAR
STARTCHAR 0100
ENCODING 256
SWIDTH 702 0
DWIDTH 39 0
BBX 39 48 0 0
BITMAP
001FFFF000
001FFFF000
001FFFF000
001FFFF000
0000000000
0000000000
0000000000
0000000000
0001FF0000
0001FF0000
0001FF0000
0003FF8000
0003FF8000
0007FF8000
0007FFC000
0007EFC000
000FEFE000
000FEFE000
001FCFE000
001FC7F000
001FC7F000
003F83F800
003F83F800
007F83F800
007F01FC00
007F01FC00
00FE01FE00
00FE00FE00
01FE00FE00
01FC007F00
01FC007F00
03FC007F80
03F8003F80
07FFFFFF80
07FFFFFFC0
07FFFFFFC0
0FFFFFFFE0
0FFFFFFFE0
1FE0000FE0
1FE0000FF0
1FC00007F0
3FC00007F8
3F800007F8
7F800003F8
7F800003FC
7F000001FC
FF000001FE
FE000000FE
ENDCHAR
STARTCHAR 0101
ENCODING 257
SWIDTH 504 0
DWIDTH 28 0
BBX 24 39 1 0
BITMAP
07FFFC
07FFFC
07FFFC
07FFFC
07FFFC
000000
000000
000000
000000
000000
007F80
03FFE0
0FFFF8
1FFFFC
3FFFFE
1FC1FE
1F00FF
00007F
00007F
00003F
00003F
00003F
001FFF
01FFFF
07FFFF
1FFFFF
3FF03F
7F803F
7F003F
7E003F
FE003F
FE007F
FE00FF
7F83FF
7FFFFF
7FFFFF
3FFF1F
1FFE1F
07F01F
ENDCHAR
STARTCHAR 0102
ENCODING 258
SWIDTH 702 0
DWIDTH 39 0
BBX 39 51 0 0
BITMAP
003E01F000
003E01F000
003F01F000
003F83F000
001FFFE000
000FFFE000
0007FF8000
0001FE0000
0000000000
0000000000
0000000000
0001FF0000
0001FF0000
0001FF0000
0003FF8000
0003FF8000
0007FF8000
0007FFC000
0007EFC000
000FEFE000
000FEFE000
001FCFE000
001FC7F000
001FC7F000
003F83F800
003F83F800
007F83F800
007F01FC00
007F01FC00
00FE01FE00
00FE00FE00
01FE00FE00
01FC007F00
01FC007F00
03FC007F80
03F8003F80
07FFFFFF80
07FFFFFFC0
07FFFFFFC0
0FFFFFFFE0
0FFFFFFFE0
1FE0000FE0
1FE0000FF0
1FC00007F0
3FC00007F8
3F800007F8
7F800003F8
7F800003FC
7F000001FC
FF000001FE
FE000000FE
ENDCHAR
STARTCHAR 0103
ENCODING 259
SWIDTH 504 0
DWIDTH 28 0
BBX 24 40 1 0
BITMAP
07C07C
07C07C
07E0F8
07FFF8
03FFF8
03FFF0
00FFE0
003F80
000000
000000
000000
007F80
03FFE0
0FFFF8
1FFFFC
3FFFFE
1FC1FE
1F00FF
00007F
00007F
00003F
00003F
00003F
001FFF
01FFFF
07FFFF
1FFFFF
3FF03F
7F803F
7F003F
7E003F
FE003F
FE007F
FE00FF
7F83FF
7FFFFF
7FFFFF
3FFF1F
1FFE1F
07F01F
ENDCHAR
STARTCHAR 0104
ENCODING 260
SWIDTH 702 0
DWIDTH 39 0
BBX 41 49 0 -9
BITMAP
0001FE000000
0001FF000000
0001FF000000
0003FF800000
0003FF800000
0007FF800000
0007FFC00000
0007EFC00000
000FEFE00000
000FEFE00000
001FC7E00000
001FC7F00000
001F87F00000
003F83F80000
003F83F80000
007F01F80000
007F01FC0000
007E01FC0000
00FE00FE0000
00FE00FE0000
01FC00FE0000
01FC007F0000
01FC007F0000
03F8003F8000
03FFFFFF8000
07FFFFFF8000
07FFFFFFC000
07FFFFFFC000
0FFFFFFFE000
0FE0000FE000
1FE0000FE000
1FC00007F000
1FC00007F000
3FC00007F800
3F800003F800
7F800003F800
7F800003FC00
7F000001FC00
FF000001FE00
FE000000FE00
000000007800
00000001F000
00000001E000
00000003E000
00000003E000
00000003FF00
00000003FF00
00000001FF80
00000000FC00
ENDCHAR
STARTCHAR 0105
ENCODING 261
SWIDTH 504 0
DWIDTH 28 0
BBX 27 38 1 -9
BITMAP
007F8000
03FFF000
0FFFF800
1FFFFC00
3FFFFE00
1FC1FE00
1F00FF00
00007F00
00007F00
00003F00
00003F00
00003F00
001FFF00
01FFFF00
07FFFF00
1FFFFF00
3FF03F00
7F803F00
7F003F00
7E003F00
FE003F00
FE007F00
FE00FF00
7F83FF00
7FFFFF00
7FFFFF00
3FFF1F00
1FFE1F00
07F00F00
00001E00
00003C00
00007800
0000F800
0000FC00
0000FFC0
00007FE0
00007FE0
00001F80
ENDCHAR
STARTCHAR 0106
ENCODING 262
SWIDTH 666 0
DWIDTH 37 0
BBX 34 52 2 0
BITMAP
000000FF00
000003FE00
000007FC00
00000FF800
00001FF000
00001FE000
00003F8000
00007F0000
0000FE0000
0000000000
0000000000
0000000000
0001FF8000
000FFFF000
003FFFFC00
00FFFFFF00
01FFFFFF80
03FFFFFFC0
07FF80FF80
0FFC001F00
1FF8000E00
1FE0000000
3FE0000000
3FC0000000
7F80000000
7F80000000
7F80000000
7F00000000
FF00000000
FF00000000
FF00000000
FF00000000
FF00000000
FF00000000
FF00000000
FF00000000
7F00000000
7F80000000
7F80000000
7F80000000
3FC0000000
3FE0000000
1FF0000200
1FF8000F00
0FFC001F80
07FF807FC0
03FFFFFFC0
01FFFFFF80
00FFFFFF00
007FFFFC00
000FFFF000
0001FF8000
ENDCHAR
STARTCHAR 0107
ENCODING 263
SWIDTH 486 0
DWIDTH 27 0
BBX 24 40 2 0
BITMAP
0003FE
0007F8
0007F0
000FE0
000FC0
001FC0
003F80
003E00
000000
000000
000000
003FC0
01FFF8
07FFFC
0FFFFF
1FFFFE
3FF07E
3FC01C
7F8000
7F0000
7F0000
FE0000
FE0000
FE0000
FE0000
FE0000
FE0000
FE0000
FE0000
FE0000
7F0000
7F0000
7F8008
3FC01C
3FE07E
1FFFFF
0FFFFE
07FFFC
01FFF0
007F80
ENDCHAR
STARTCHAR 0108
ENCODING 264
SWIDTH 666 0
DWIDTH 37 0
BBX 34 51 2 0
BITMAP
00007E0000
0000FF0000
0001FF8000
0003FFC000
0003E7E000
0007E3F000
000FC1F800
003F81FC00
0000000000
0000000000
0000000000
0001FF8000
000FFFF000
003FFFFC00
00FFFFFF00
01FFFFFF80
03FFFFFFC0
07FF80FF80
0FFC001F00
1FF8000E00
1FE0000000
3FE0000000
3FC0000000
7F80000000
7F80000000
7F80000000
7F00000000
FF00000000
FF00000000
FF00000000
FF00000000
FF00000000
FF00000000
FF00000000
FF00000000
7F00000000
7F80000000
7F80000000
7F80000000
3FC0000000
3FE0000000
1FF0000200
1FF8000F00
0FFC001F80
07FF807FC0
03FFFFFFC0
01FFFFFF80
00FFFFFF00
007FFFFC00
000FFFF000
0001FF8000
ENDCHAR
STARTCHAR 0109
ENCODING 265
SWIDTH 486 0
DWIDTH 27 0
BBX 24 40 2 0
BITMAP
003F80
007FC0
00FFE0
01FFE0
03F3F0
07E1F8
0FC0FC
000002
000000
000000
000000
003FC0
01FFF8
07FFFC
0FFFFF
1FFFFE
3FF07E
3FC01C
7F8000
7F0000
7F0000
FE0000
FE0000
FE0000
FE0000
FE0000
FE0000
FE0000
FE0000
FE0000
7F0000
7F0000
7F8008
3FC01C
3FE07E
1FFFFF
0FFFFE
07FFFC
01FFF0
007F80
ENDCHAR
STARTCHAR 010A
ENCODING 266
SWIDTH 666 0
DWIDTH 37 0
BBX 34 51 2 0
BITMAP
00003C0000
00007E0000
0000FF0000
0000FF0000
0000FF0000
0000FF0000
00007E0000
00003C0000
0000000000
0000000000
0000000000
0001FF8000
000FFFF000
003FFFFC00
00FFFFFF00
01FFFFFF80
03FFFFFFC0
07FF80FF80
0FFC001F00
1FF8000E00
1FE0000000
3FE0000000
3FC0000000
7F80000000
7F80000000
7F80000000
7F00000000
FF00000000
FF00000000
FF00000000
FF00000000
FF00000000
FF00000000
FF00000000
FF00000000
7F00000000
7F80000000
7F80000000
7F80000000
3FC0000000
3FE0000000
1FF0000200
1FF8000F00
0FFC001F80
07FF807FC0
03FFFFFFC0
01FFFFFF80
00FFFFFF00
007FFFFC00
000FFFF000
0001FF8000
ENDCHAR
STARTCHAR 010B
ENCODING 267
SWIDTH 486 0
DWIDTH 27 0
BBX 24 41 2 0
BITMAP
001E00
003F00
007F80
007FC0
007FC0
007FC0
007F80
003F00
001E00
000000
000000
000000
003FC0
01FFF8
07FFFC
0FFFFF
1FFFFE
3FF07E
3FC01C
7F8000
7F0000
7F0000
FE0000
FE0000
FE0000
FE0000
FE0000
FE0000
FE0000
FE0000
FE0000
7F0000
7F0000
7F8008
3FC01C
3FE07E
1FFFFF
0FFFFE
07FFFC
01FFF0
007F80
ENDCHAR
STARTCHAR 010C
ENCODING 268
SWIDTH 666 0
DWIDTH 37 0
BBX 34 51 2 0
BITMAP
003E007C00
001F81F800
000FC3F000
0007E7F000
0003F7E000
0001FFC000
0000FF8000
0000FF0000
0000000000
0000000000
0000000000
0001FF8000
000FFFF000
003FFFFC00
00FFFFFF00
01FFFFFF80
03FFFFFFC0
07FF80FF80
0FFC001F00
1FF8000E00
1FE0000000
3FE0000000
3FC0000000
7F80000000
7F80000000
7F80000000
7F00000000
FF00000000
FF00000000
FF00000000
FF00000000
FF00000000
FF00000000
FF00000000
FF00000000
7F00000000
7F80000000
7F80000000
7F80000000
3FC0000000
3FE0000000
1FF0000200
1FF8000F00
0FFC001F80
07FF807FC0
03FFFFFFC0
01FFFFFF80
00FFFFFF00
007FFFFC00
000FFFF000
0001FF8000
ENDCHAR
STARTCHAR 010D
ENCODING 269
SWIDTH 486 0
DWIDTH 27 0
BBX 24 40 2 0
BITMAP
0FC07E
07E0FC
03F1F8
01FBF0
01FFE0
00FFC0
007F80
000000
000000
000000
000000
003FC0
01FFF8
07FFFC
0FFFFF
1FFFFE
3FF07E
3FC01C
7F8000
7F0000
7F0000
FE0000
FE0000
FE0000
FE0000
FE0000
FE0000
FE0000
FE0000
FE0000
7F0000
7F0000
7F8008
3FC01C
3FE07E
1FFFFF
0FFFFE
07FFFC
01FFF0
007F80
ENDCHAR
STARTCHAR 010E
ENCODING 270
SWIDTH 774 0
DWIDTH 43 0
BBX 35 51 5 0
BITMAP
0F801F0000
07E07E0000
03F0FC0000
01F9FC0000
00FDF80000
007FF00000
003FE00000
003FC00000
0000000000
0000000000
0000000000
FFFFF00000
FFFFFE0000
FFFFFFC000
FFFFFFE000
FFFFFFF800
FFFFFFFC00
FE001FFE00
FE0007FE00
FE0001FF00
FE0000FF80
FE00007F80
FE00003FC0
FE00003FC0
FE00001FE0
FE00001FE0
FE00001FE0
FE00001FE0
FE00000FE0
FE00000FE0
FE00000FE0
FE00000FE0
FE00000FE0
FE00000FE0
FE00001FE0
FE00001FE0
FE00001FE0
FE00001FE0
FE00003FC0
FE00003FC0
FE00007F80
FE0000FF80
FE0001FF00
FE0007FE00
FE001FFE00
FFFFFFFC00
FFFFFFF800
FFFFFFE000
FFFFFFC000
FFFFFE0000
FFFFF00000
ENDCHAR
STARTCHAR 010F
ENCODING 271
SWIDTH 576 0
DWIDTH 32 0
BBX 36 41 2 0
BITMAP
00001FC3F0
00001FC3F0
00001FC3F0
00001FC3F0
00001FC3E0
00001FC7E0
00001FC7C0
00001FC7C0
00001FC7C0
00001FC780
00001FC000
00001FC000
007F1FC000
03FFDFC000
07FFFFC000
0FFFFFC000
1FFFFFC000
3FE0FFC000
3FC03FC000
7F801FC000
7F001FC000
7F001FC000
FF001FC000
FE001FC000
FE001FC000
FE001FC000
FE001FC000
FE001FC000
FE001FC000
FE001FC000
FE001FC000
FF001FC000
7F001FC000
7F001FC000
7F807FC000
3FC0FFC000
3FFFFFC000
1FFFEFC000
0FFFCFC000
07FF8FC000
01FC07C000
ENDCHAR
STARTCHAR 0110
ENCODING 272
SWIDTH 774 0
DWIDTH 43 0
BBX 41 40 0 0
BITMAP
07FFFF800000
07FFFFF80000
07FFFFFE0000
07FFFFFF8000
07FFFFFFC000
07FFFFFFE000
07F800FFF000
07F8001FF800
07F8000FFC00
07F80003FC00
07F80003FE00
07F80001FE00
07F80000FF00
07F80000FF00
07F80000FF00
07F800007F80
07F800007F80
07F800007F80
FFFFF0007F80
FFFFF0007F80
FFFFF0007F80
FFFFF0007F80
07F800007F80
07F800007F80
07F800007F80
07F80000FF00
07F80000FF00
07F80000FF00
07F80001FE00
07F80003FE00
07F80003FC00
07F8000FFC00
07F8001FF800
07F800FFF000
07FFFFFFE000
07FFFFFFC000
07FFFFFF8000
07FFFFFE0000
07FFFFF80000
07FFFF800000
ENDCHAR
STARTCHAR 0111
ENCODING 273
SWIDTH 576 0
DWIDTH 32 0
BBX 30 41 2 0
BITMAP
00001FC0
00001FC0
00001FC0
00001FC0
00001FC0
0007FFFC
0007FFFC
0007FFFC
0007FFFC
00001FC0
00001FC0
00001FC0
007F1FC0
03FFDFC0
07FFFFC0
0FFFFFC0
1FFFFFC0
3FE07FC0
3FC03FC0
7F801FC0
7F001FC0
7F001FC0
FF001FC0
FE001FC0
FE001FC0
FE001FC0
FE001FC0
FE001FC0
FE001FC0
FE001FC0
FE001FC0
FF001FC0
7F001FC0
7F001FC0
7F807FC0
3FC0FFC0
3FFFFFC0
1FFFEFC0
0FFFCFC0
07FF8FC0
01FC07C0
ENDCHAR
STARTCHAR 0112
ENCODING 274
SWIDTH 576 0
DWIDTH 32 0
BBX 25 48 5 0
BITMAP
07FFFC00
07FFFC00
07FFFC00
07FFFC00
00000000
00000000
00000000
00000000
FFFFFF80
FFFFFF80
FFFFFF80
FFFFFF80
FFFFFF80
FFFFFF80
FE000000
FE000000
FE000000
FE000000
FE000000
FE000000
FE000000
FE000000
FE000000
FE000000
FE000000
FFFFF800
FFFFF800
FFFFF800
FFFFF800
FFFFF800
FFFFF800
FE000000
FE000000
FE000000
FE000000
FE000000
FE000000
FE000000
FE000000
FE000000
FE000000
FE000000
FFFFFF80
FFFFFF80
FFFFFF80
FFFFFF80
FFFFFF80
FFFFFF80
ENDCHAR
STARTCHAR 0113
ENCODING 275
SWIDTH 540 0
DWIDTH 30 0
BBX 26 39 2 0
BITMAP
03FFFE00
03FFFE00
03FFFE00
03FFFE00
03FFFE00
00000000
00000000
00000000
00000000
00000000
003FC000
01FFF000
07FFFC00
0FFFFE00
1FFFFF00
3FE07F00
3F803F80
7F001F80
7F001FC0
FE000FC0
FE000FC0
FFFFFFC0
FFFFFFC0
FFFFFFC0
FFFFFFC0
FE000000
FE000000
FE000000
FE000000
7F000000
7F000000
7F800200
3FC00F00
1FF03F80
1FFFFFC0
0FFFFF80
07FFFF00
01FFFC00
003FE000
ENDCHAR
STARTCHAR 0114
ENCODING 276
SWIDTH 576 0
DWIDTH 32 0
BBX 25 51 5 0
BITMAP
0F807C00
0F807C00
0FC07C00
0FE0FC00
07FFF800
03FFF800
01FFE000
007F8000
00000000
00000000
00000000
FFFFFF80
FFFFFF80
FFFFFF80
FFFFFF80
FFFFFF80
FFFFFF80
FE000000
FE000000
FE000000
FE000000
FE000000
FE000000
FE000000
FE000000
FE000000
FE000000
FE000000
FFFFF800
FFFFF800
FFFFF800
FFFFF800
FFFFF800
FFFFF800
FE000000
FE000000
FE000000
FE000000
FE000000
FE000000
FE000000
FE000000
FE000000
FE000000
FE000000
FFFFFF80
FFFFFF80
FFFFFF80
FFFFFF80
FFFFFF80
FFFFFF80
ENDCHAR
STARTCHAR 0115
ENCODING 277
SWIDTH 540 0
DWIDTH 30 0
BBX 26 40 2 0
BITMAP
03E03E00
03E03E00
03F07C00
03FFFC00
01FFFC00
01FFF800
007FF000
001FC000
00000000
00000000
00000000
003FC000
01FFF000
07FFFC00
0FFFFE00
1FFFFF00
3FE07F00
3F803F80
7F001F80
7F001FC0
FE000FC0
FE000FC0
FFFFFFC0
FFFFFFC0
FFFFFFC0
FFFFFFC0
FE000000
FE000000
FE000000
FE000000
7F000000
7F000000
7F800200
3FC00F00
1FF03F80
1FFFFFC0
0FFFFF80
07FFFF00
01FFFC00
003FE000
ENDCHAR
STARTCHAR 0116
ENCODING 278
SWIDTH 576 0
DWIDTH 32 0
BBX 25 51 5 0
BITMAP
003C0000
007E0000
00FF0000
00FF0000
00FF0000
00FF0000
007E0000
003C0000
00000000
00000000
00000000
FFFFFF80
FFFFFF80
FFFFFF80
FFFFFF80
FFFFFF80
FFFFFF80
FE000000
FE000000
FE000000
FE000000
FE000000
FE000000
FE000000
FE000000
FE000000
FE000000
FE000000
FFFFF800
FFFFF800
FFFFF800
FFFFF800
FFFFF800
FFFFF800
FE000000
FE000000
FE000000
FE000000
FE000000
FE000000
FE000000
FE000000
FE000000
FE000000
FE000000
FFFFFF80
FFFFFF80
FFFFFF80
FFFFFF80
FFFFFF80
FFFFFF80
ENDCHAR
STARTCHAR 0117
ENCODING 279
SWIDTH 540 0
DWIDTH 30 0
BBX 26 41 2 0
BITMAP
000F0000
001F8000
003FC000
003FE000
003FE000
003FE000
003FC000
001F8000
000F0000
00000000
00000000
00000000
003FC000
01FFF000
07FFFC00
0FFFFE00
1FFFFF00
3FE07F00
3F803F80
7F001F80
7F001FC0
FE000FC0
FE000FC0
FFFFFFC0
FFFFFFC0
FFFFFFC0
FFFFFFC0
FE000000
FE000000
FE000000
FE000000
7F000000
7F000000
7F800200
3FC00F00
1FF03F80
1FFFFFC0
0FFFFF80
07FFFF00
01FFFC00
003FE000
ENDCHAR
STARTCHAR 0118
ENCODING 280
SWIDTH 576 0
DWIDTH 32 0
BBX 25 49 5 -9
BITMAP
FFFFFF80
FFFFFF80
FFFFFF80
FFFFFF80
FFFFFF80
FFFFFF80
FE000000
FE000000
FE000000
FE000000
FE000000
FE000000
FE000000
FE000000
FE000000
FE000000
FFFFF800
FFFFF800
FFFFF800
FFFFF800
FFFFF800
FFFFF800
FE000000
FE000000
FE000000
FE000000
FE000000
FE000000
FE000000
FE000000
FE000000
FE000000
FE000000
FE000000
FFFFFF80
FFFFFF80
FFFFFF80
FFFFFF80
FFFFFF80
FFFFFF80
00007C00
0000F000
0001F000
0001F000
0003F000
0003FF00
0001FF80
0001FF80
00007E00
ENDCHAR
STARTCHAR 0119
ENCODING 281
SWIDTH 540 0
DWIDTH 30 0
BBX 26 38 2 -9
BITMAP
003FC000
01FFF000
07FFFC00
0FFFFE00
1FFFFF00
3FE07F00
3F803F80
7F001F80
7F001FC0
FE000FC0
FE000FC0
FFFFFFC0
FFFFFFC0
FFFFFFC0
FFFFFFC0
FE000000
FE000000
FE000000
FE000000
7F000000
7F000000
7F800700
3FC01F00
3FF8FF80
1FFFFFC0
0FFFFF80
07FFFE00
01FFF800
007FC000
000F0000
001E0000
003E0000
003E0000
003E0000
003FF000
003FF000
001FF000
000FC000
ENDCHAR
STARTCHAR 011A
ENCODING 282
SWIDTH 576 0
DWIDTH 32 0
BBX 25 51 5 0
BITMAP
1F003E00
0FC0FC00
07E1F800
03F3F800
01FBF000
00FFE000
007FC000
007F8000
00000000
00000000
00000000
FFFFFF80
FFFFFF80
FFFFFF80
FFFFFF80
FFFFFF80
FFFFFF80
FE000000
FE000000
FE000000
FE000000
FE000000
FE000000
FE000000
FE000000
FE000000
FE000000
FE000000
FFFFF800
FFFFF800
FFFFF800
FFFFF800
FFFFF800
FFFFF800
FE000000
FE000000
FE000000
FE000000
FE000000
FE000000
FE000000
FE000000
FE000000
FE000000
FE000000
FFFFFF80
FFFFFF80
FFFFFF80
FFFFFF80
FFFFFF80
FFFFFF80
ENDCHAR
STARTCHAR 011B
ENCODING 283
SWIDTH 540 0
DWIDTH 30 0
BBX 26 40 2 0
BITMAP
07E03F00
03F07E00
01F8FC00
00FDF800
00FFF000
007FE000
003FC000
00000000
00000000
00000000
00000000
003FC000
01FFF000
07FFFC00
0FFFFE00
1FFFFF00
3FE07F00
3F803F80
7F001F80
7F001FC0
FE000FC0
FE000FC0
FFFFFFC0
FFFFFFC0
FFFFFFC0
FFFFFFC0
FE000000
FE000000
FE000000
FE000000
7F000000
7F000000
7F800200
3FC00F00
1FF03F80
1FFFFFC0
0FFFFF80
07FFFF00
01FFFC00
003FE000
ENDCHAR
STARTCHAR 011C
ENCODING 284
SWIDTH 738 0
DWIDTH 41 0
BBX 36 51 2 0
BITMAP
00003F0000
00007F8000
0000FFC000
0001FFE000
0001F3F000
0003F1F800
0007E0FC00
001FC0FE00
0000000000
0000000000
0000000000
0000FFC000
000FFFFC00
003FFFFF00
00FFFFFFC0
01FFFFFFE0
03FFFFFFF0
07FF807FE0
0FFC000FC0
1FF80003C0
1FF0000000
3FE0000000
3FC0000000
7F80000000
7F80000000
7F80000000
FF00000000
FF00000000
FF00000000
FF00000000
FF00000000
FF0003FFF0
FF0003FFF0
FF0003FFF0
FF0003FFF0
7F0001FFF0
7F800007F0
7F800007F0
7FC00007F0
3FC00007F0
3FE00007F0
1FF00007F0
0FF80007F0
0FFE0007F0
07FF803FF0
03FFFFFFF0
01FFFFFFF0
007FFFFFE0
001FFFFF80
0007FFFE00
00007FE000
ENDCHAR
STARTCHAR 011D
ENCODING 285
SWIDTH 540 0
DWIDTH 30 0
BBX 28 50 1 -10
BITMAP
003F8000
007FC000
00FFE000
01FFE000
03F3F000
07E1F800
0FC0FC00
00000200
00000000
00000000
00000000
007F8000
03FFE000
07FFFFF0
0FFFFFF0
1FFFFFF0
3FC0FFE0
3F807F00
3F003F00
3F003F00
3F003F00
3F003F00
3F003F00
3F807F00
3FC0FE00
1FFFFE00
0FFFFC00
07FFF800
03FFE000
0FFF8000
1F800000
1F000000
3FC00000
3FFFF000
1FFFFF00
1FFFFF80
07FFFFC0
1FFFFFE0
3F003FE0
7E000FE0
7E0007E0
FC0007E0
FE000FE0
FE001FC0
7F807FC0
7FFFFF80
3FFFFF00
1FFFFE00
07FFF800
00FFC000
ENDCHAR
STARTCHAR 011E
ENCODING 286
SWIDTH 738 0
DWIDTH 41 0
BBX 36 51 2 0
BITMAP
000F807C00
000F807C00
000FC07C00
000FE0FC00
0007FFF800
0003FFF800
0001FFE000
00007F8000
0000000000
0000000000
0000000000
0000FFC000
000FFFFC00
003FFFFF00
00FFFFFFC0
01FFFFFFE0
03FFFFFFF0
07FF807FE0
0FFC000FC0
1FF80003C0
1FF0000000
3FE0000000
3FC0000000
7F80000000
7F80000000
7F80000000
FF00000000
FF00000000
FF00000000
FF00000000
FF00000000
FF0003FFF0
FF0003FFF0
FF0003FFF0
FF0003FFF0
7F0001FFF0
7F800007F0
7F800007F0
7FC00007F0
3FC00007F0
3FE00007F0
1FF00007F0
0FF80007F0
0FFE0007F0
07FF803FF0
03FFFFFFF0
01FFFFFFF0
007FFFFFE0
001FFFFF80
0007FFFE00
00007FE000
ENDCHAR
STARTCHAR 011F
ENCODING 287
SWIDTH 540 0
DWIDTH 30 0
BBX 28 50 1 -10
BITMAP
07C07C00
07C07C00
07E0F800
07FFF800
03FFF800
03FFF000
00FFE000
003F8000
00000000
00000000
00000000
007F8000
03FFE000
07FFFFF0
0FFFFFF0
1FFFFFF0
3FC0FFE0
3F807F00
3F003F00
3F003F00
3F003F00
3F003F00
3F003F00
3F807F00
3FC0FE00
1FFFFE00
0FFFFC00
07FFF800
03FFE000
0FFF8000
1F800000
1F000000
3FC00000
3FFFF000
1FFFFF00
1FFFFF80
07FFFFC0
1FFFFFE0
3F003FE0
7E000FE0
7E0007E0
FC0007E0
FE000FE0
FE001FC0
7F807FC0
7FFFFF80
3FFFFF00
1FFFFE00
07FFF800
00FFC000
ENDCHAR
STARTCHAR 0120
ENCODING 288
SWIDTH 738 0
DWIDTH 41 0
BBX 36 51 2 0
BITMAP
00001E0000
00003F0000
00007F8000
00007F8000
00007F8000
00007F8000
00003F0000
00001E0000
0000000000
0000000000
0000000000
0000FFC000
000FFFFC00
003FFFFF00
00FFFFFFC0
01FFFFFFE0
03FFFFFFF0
07FF807FE0
0FFC000FC0
1FF80003C0
1FF0000000
3FE0000000
3FC0000000
7F80000000
7F80000000
7F80000000
FF00000000
FF00000000
FF00000000
FF00000000
FF00000000
FF0003FFF0
FF0003FFF0
FF0003FFF0
FF0003FFF0
7F0001FFF0
7F800007F0
7F800007F0
7FC00007F0
3FC00007F0
3FE00007F0
1FF00007F0
0FF80007F0
0FFE0007F0
07FF803FF0
03FFFFFFF0
01FFFFFFF0
007FFFFFE0
001FFFFF80
0007FFFE00
00007FE000
ENDCHAR
STARTCHAR 0121
ENCODING 289
SWIDTH 540 0
DWIDTH 30 0
BBX 28 51 1 -10
BITMAP
001E0000
003F0000
007F8000
007FC000
007FC000
007FC000
007F8000
003F0000
001E0000
00000000
00000000
00000000
007F8000
03FFE000
07FFFFF0
0FFFFFF0
1FFFFFF0
3FC0FFE0
3F807F00
3F003F00
3F003F00
3F003F00
3F003F00
3F003F00
3F807F00
3FC0FE00
1FFFFE00
0FFFFC00
07FFF800
03FFE000
0FFF8000
1F800000
1F000000
3FC00000
3FFFF000
1FFFFF00
1FFFFF80
07FFFFC0
1FFFFFE0
3F003FE0
7E000FE0
7E0007E0
FC0007E0
FE000FE0
FE001FC0
7F807FC0
7FFFFF80
3FFFFF00
1FFFFE00
07FFF800
00FFC000
ENDCHAR
STARTCHAR 0122
ENCODING 290
SWIDTH 738 0
DWIDTH 41 0
BBX 36 51 2 -11
BITMAP
0000FFC000
000FFFFC00
003FFFFF00
00FFFFFFC0
01FFFFFFE0
03FFFFFFF0
07FF807FE0
0FFC000FC0
1FF80003C0
1FF0000000
3FE0000000
3FC0000000
7F80000000
7F80000000
7F80000000
FF00000000
FF00000000
FF00000000
FF00000000
FF00000000
FF0003FFF0
FF0003FFF0
FF0003FFF0
FF0003FFF0
7F0001FFF0
7F800007F0
7F800007F0
7FC00007F0
3FC00007F0
3FE00007F0
1FF00007F0
0FF80007F0
0FFE0007F0
07FF803FF0
03FFFFFFF0
01FFFFFFF0
007FFFFFE0
001FFFFF80
0007FFFE00
0000FFE000
0000000000
0000000000
0000000000
0000F80000
0000FC0000
0000F80000
0000F80000
0001F80000
0001F00000
0001F00000
0001E00000
ENDCHAR
STARTCHAR 0123
ENCODING 291
SWIDTH 540 0
DWIDTH 30 0
BBX 28 50 1 -10
BITMAP
0007C000
00078000
000F8000
000F8000
001F8000
001F8000
001F0000
003F0000
00000000
00000000
00000000
007F8000
03FFE000
07FFFFF0
0FFFFFF0
1FFFFFF0
3FC0FFE0
3F807F00
3F003F00
3F003F00
3F003F00
3F003F00
3F003F00
3F807F00
3FC0FE00
1FFFFE00
0FFFFC00
07FFF800
03FFE000
0FFF8000
1F800000
1F000000
3FC00000
3FFFF000
1FFFFF00
1FFFFF80
07FFFFC0
1FFFFFE0
3F003FE0
7E000FE0
7E0007E0
FC0007E0
FE000FE0
FE001FC0
7F807FC0
7FFFFF80
3FFFFF00
1FFFFE00
07FFF800
00FFC000
ENDCHAR
STARTCHAR 0124
ENCODING 292
SWIDTH 774 0
DWIDTH 43 0
BBX 34 51 5 0
BITMAP
0007E00000
000FF00000
001FF80000
003FFC0000
003E7E0000
007E3F0000
00FC1F8000
03F81FC000
0000000000
0000000000
0000000000
FE00003FC0
FE00003FC0
FE00003FC0
FE00003FC0
FE00003FC0
FE00003FC0
FE00003FC0
FE00003FC0
FE00003FC0
FE00003FC0
FE00003FC0
FE00003FC0
FE00003FC0
FE00003FC0
FE00003FC0
FE00003FC0
FE00003FC0
FFFFFFFFC0
FFFFFFFFC0
FFFFFFFFC0
FFFFFFFFC0
FFFFFFFFC0
FE00003FC0
FE00003FC0
FE00003FC0
FE00003FC0
FE00003FC0
FE00003FC0
FE00003FC0
FE00003FC0
FE00003FC0
FE00003FC0
FE00003FC0
FE00003FC0
FE00003FC0
FE00003FC0
FE00003FC0
FE00003FC0
FE00003FC0
FE00003FC0
ENDCHAR
STARTCHAR 0125
ENCODING 293
SWIDTH 576 0
DWIDTH 32 0
BBX 31 51 -3 0
BITMAP
01F80000
03FC0000
07FE0000
0FFF0000
0F9F8000
1F8FC000
3F07E000
FE07F000
00000000
00000000
03F80000
03F80000
03F80000
03F80000
03F80000
03F80000
03F80000
03F80000
03F80000
03F80000
03F80000
03F80000
03F83F80
03F8FFE0
03FBFFF0
03FFFFF8
03FFFFFC
03FF83FC
03FE01FE
03FC00FE
03F800FE
03F800FE
03F8007E
03F8007E
03F8007E
03F8007E
03F8007E
03F8007E
03F8007E
03F8007E
03F8007E
03F8007E
03F8007E
03F8007E
03F8007E
03F8007E
03F8007E
03F8007E
03F8007E
03F8007E
03F8007E
ENDCHAR
STARTCHAR 0126
ENCODING 294
SWIDTH 792 0
DWIDTH 44 0
BBX 42 40 1 0
BITMAP
0FE00003FC00
0FE00003FC00
0FE00003FC00
0FE00003FC00
0FE00003FC00
0FE00003FC00
FFFFFFFFFFC0
FFFFFFFFFFC0
FFFFFFFFFFC0
FFFFFFFFFFC0
FFFFFFFFFFC0
0FE00003FC00
0FE00003FC00
0FE00003FC00
0FE00003FC00
0FE00003FC00
0FE00003FC00
0FFFFFFFFC00
0FFFFFFFFC00
0FFFFFFFFC00
0FFFFFFFFC00
0FFFFFFFFC00
0FE00003FC00
0FE00003FC00
0FE00003FC00
0FE00003FC00
0FE00003FC00
0FE00003FC00
0FE00003FC00
0FE00003FC00
0FE00003FC00
0FE00003FC00
0FE00003FC00
0FE00003FC00
0FE00003FC00
0FE00003FC00
0FE00003FC00
0FE00003FC00
0FE00003FC00
0FE00003FC00
ENDCHAR
STARTCHAR 0127
ENCODING 295
SWIDTH 576 0
DWIDTH 32 0
BBX 29 41 -1 0
BITMAP
0FE00000
0FE00000
0FE00000
0FE00000
0FE00000
FFFFE000
FFFFE000
FFFFE000
FFFFE000
0FE00000
0FE00000
0FE00000
0FE0FE00
0FE3FF80
0FEFFFC0
0FFFFFE0
0FFFFFF0
0FFE0FF0
0FF807F8
0FF003F8
0FE003F8
0FE003F8
0FE003F8
0FE003F8
0FE003F8
0FE003F8
0FE003F8
0FE003F8
0FE003F8
0FE003F8
0FE003F8
0FE003F8
0FE003F8
0FE003F8
0FE003F8
0FE003F8
0FE003F8
0FE003F8
0FE003F8
0FE003F8
0FE003F8
ENDCHAR
STARTCHAR 0128
ENCODING 296
SWIDTH 306 0
DWIDTH 17 0
BBX 20 51 -2 0
BITMAP
0F80F0
1FE0F0
3FF1F0
7FFFF0
7FFFE0
7C7FE0
F83FC0
F80F80
000000
000000
000000
01FC00
01FC00
01FC00
01FC00
01FC00
01FC00
01FC00
01FC00
01FC00
01FC00
01FC00
01FC00
01FC00
01FC00
01FC00
01FC00
01FC00
01FC00
01FC00
01FC00
01FC00
01FC00
01FC00
01FC00
01FC00
01FC00
01FC00
01FC00
01FC00
01FC00
01FC00
01FC00
01FC00
01FC00
01FC00
01FC00
01FC00
01FC00
01FC00
01FC00
ENDCHAR
STARTCHAR 0129
ENCODING 297
SWIDTH 252 0
DWIDTH 14 0
BBX 18 40 -2 0
BITMAP
0F03C0
3FE3C0
7FFFC0
7FFFC0
7FFF80
F8FF00
F83E00
000000
000000
000000
000000
03F800
03F800
03F800
03F800
03F800
03F800
03F800
03F800
03F800
03F800
03F800
03F800
03F800
03F800
03F800
03F800
03F800
03F800
03F800
03F800
03F800
03F800
03F800
03F800
03F800
03F800
03F800
03F800
03F800
ENDCHAR
STARTCHAR 012A
ENCODING 298
SWIDTH 306 0
DWIDTH 17 0
BBX 17 48 0 0
BITMAP
FFFF80
FFFF80
FFFF80
FFFF80
000000
000000
000000
000000
07F000
07F000
07F000
07F000
07F000
07F000
07F000
07F000
07F000
07F000
07F000
07F000
07F000
07F000
07F000
07F000
07F000
07F000
07F000
07F000
07F000
07F000
07F000
07F000
07F000
07F000
07F000
07F000
07F000
07F000
07F000
07F000
07F000
07F000
07F000
07F000
07F000
07F000
07F000
07F000
ENDCHAR
STARTCHAR 012B
ENCODING 299
SWIDTH 252 0
DWIDTH 14 0
BBX 17 39 -1 0
BITMAP
FFFF80
FFFF80
FFFF80
FFFF80
FFFF80
000000
000000
000000
000000
000000
07F000
07F000
07F000
07F000
07F000
07F000
07F000
07F000
07F000
07F000
07F000
07F000
07F000
07F000
07F000
07F000
07F000
07F000
07F000
07F000
07F000
07F000
07F000
07F000
07F000
07F000
07F000
07F000
07F000
ENDCHAR
STARTCHAR 012C
ENCODING 300
SWIDTH 306 0
DWIDTH 17 0
BBX 18 51 -1 0
BITMAP
F807C0
F807C0
FC07C0
FE0FC0
7FFF80
3FFF80
1FFE00
07F800
000000
000000
000000
03F800
03F800
03F800
03F800
03F800
03F800
03F800
03F800
03F800
03F800
03F800
03F800
03F800
03F800
03F800
03F800
03F800
03F800
03F800
03F800
03F800
03F800
03F800
03F800
03F800
03F800
03F800
03F800
03F800
03F800
03F800
03F800
03F800
03F800
03F800
03F800
03F800
03F800
03F800
03F800
ENDCHAR
STARTCHAR 012D
ENCODING 301
SWIDTH 252 0
DWIDTH 14 0
BBX 17 40 -1 0
BITMAP
F80F80
F80F80
FC1F00
FFFF00
7FFF00
7FFE00
1FFC00
07F000
000000
000000
000000
07F000
07F000
07F000
07F000
07F000
07F000
07F000
07F000
07F000
07F000
07F000
07F000
07F000
07F000
07F000
07F000
07F000
07F000
07F000
07F000
07F000
07F000
07F000
07F000
07F000
07F000
07F000
07F000
07F000
ENDCHAR
STARTCHAR 012E
ENCODING 302
SWIDTH 306 0
DWIDTH 17 0
BBX 11 49 3 -9
BITMAP
3F80
3F80
3F80
3F80
3F80
3F80
3F80
3F80
3F80
3F80
3F80
3F80
3F80
3F80
3F80
3F80
3F80
3F80
3F80
3F80
3F80
3F80
3F80
3F80
3F80
3F80
3F80
3F80
3F80
3F80
3F80
3F80
3F80
3F80
3F80
3F80
3F80
3F80
3F80
3F80
1E00
3C00
7800
F800
F800
FFC0
FFC0
7FE0
3F80
ENDCHAR
STARTCHAR 012F
ENCODING 303
SWIDTH 252 0
DWIDTH 14 0
BBX 11 50 2 -9
BITMAP
1E00
3F00
7F80
7F80
7FC0
7F80
7F80
3F00
1E00
0000
0000
0000
3F80
3F80
3F80
3F80
3F80
3F80
3F80
3F80
3F80
3F80
3F80
3F80
3F80
3F80
3F80
3F80
3F80
3F80
3F80
3F80
3F80
3F80
3F80
3F80
3F80
3F80
3F80
3F80
3F80
1E00
3C00
7800
F800
F800
FFC0
FFC0
7FE0
3F80
ENDCHAR
STARTCHAR 0130
ENCODING 304
SWIDTH 306 0
DWIDTH 17 0
BBX 8 51 4 0
BITMAP
3C
7E
FF
FF
FF
FF
7E
3C
00
00
00
7F
7F
7F
7F
7F
7F
7F
7F
7F
7F
7F
7F
7F
7F
7F
7F
7F
7F
7F
7F
7F
7F
7F
7F
7F
7F
7F
7F
7F
7F
7F
7F
7F
7F
7F
7F
7F
7F
7F
7F
ENDCHAR
STARTCHAR 0131
ENCODING 305
SWIDTH 252 0
DWIDTH 14 0
BBX 7 29 4 0
BITMAP
FE
FE
FE
FE
FE
FE
FE
FE
FE
FE
FE
FE
FE
FE
FE
FE
FE
FE
FE
FE
FE
FE
FE
FE
FE
FE
FE
FE
FE
ENDCHAR
STARTCHAR 0132
ENCODING 306
SWIDTH 756 0
DWIDTH 42 0
BBX 33 40 5 0
BITMAP
FE00007F80
FE00007F80
FE00007F80
FE00007F80
FE00007F80
FE00007F80
FE00007F80
FE00007F80
FE00007F80
FE00007F80
FE00007F80
FE00007F80
FE00007F80
FE00007F80
FE00007F80
FE00007F80
FE00007F80
FE00007F80
FE00007F80
FE00007F80
FE00007F80
FE00007F80
FE00007F80
FE00007F80
FE00007F80
FE00007F80
FE00007F80
FE00007F80
FE00007F80
FE00007F80
FE00007F00
FE0000FF00
FE0001FF00
FE0003FE00
FE03FFFE00
FE03FFFC00
FE03FFF800
FE03FFF000
FE03FFE000
FE01FF0000
ENDCHAR
STARTCHAR 0133
ENCODING 307
SWIDTH 522 0
DWIDTH 29 0
BBX 24 51 3 -10
BITMAP
3C0078
7E00FC
FF01FE
FF01FE
FF81FF
FF01FE
FF01FE
7E00FC
3C0078
000000
000000
000000
7F00FE
7F00FE
7F00FE
7F00FE
7F00FE
7F00FE
7F00FE
7F00FE
7F00FE
7F00FE
7F00FE
7F00FE
7F00FE
7F00FE
7F00FE
7F00FE
7F00FE
7F00FE
7F00FE
7F00FE
7F00FE
7F00FE
7F00FE
7F00FE
7F00FE
7F00FE
7F00FE
7F00FE
7F00FE
0000FE
0000FE
0000FC
0001FC
0003FC
003FFC
003FF8
003FF0
003FE0
003F80
ENDCHAR
STARTCHAR 0134
ENCODING 308
SWIDTH 432 0
DWIDTH 24 0
BBX 25 51 1 0
BITMAP
000FC000
001FE000
003FF000
007FF800
007CFC00
00FC7E00
01F83F00
07F03F80
00000000
00000000
00000000
001FE000
001FE000
001FE000
001FE000
001FE000
001FE000
001FE000
001FE000
001FE000
001FE000
001FE000
001FE000
001FE000
001FE000
001FE000
001FE000
001FE000
001FE000
001FE000
001FE000
001FE000
001FE000
001FE000
001FE000
001FE000
001FE000
001FE000
001FE000
001FE000
001FE000
001FC000
003FC000
007FC000
00FF8000
FFFF8000
FFFF0000
FFFE0000
FFFC0000
FFF80000
7FC00000
ENDCHAR
STARTCHAR 0135
ENCODING 309
SWIDTH 252 0
DWIDTH 14 0
BBX 19 50 -2 -10
BITMAP
03F800
07FC00
0FFE00
1FFE00
3F3F00
7E1F80
FC0FC0
000020
000000
000000
000000
03F800
03F800
03F800
03F800
03F800
03F800
03F800
03F800
03F800
03F800
03F800
03F800
03F800
03F800
03F800
03F800
03F800
03F800
03F800
03F800
03F800
03F800
03F800
03F800
03F800
03F800
03F800
03F800
03F800
03F800
03F800
03F000
07F000
0FF000
FFF000
FFE000
FFC000
FF8000
FE0000
ENDCHAR
STARTCHAR 0136
ENCODING 310
SWIDTH 684 0
DWIDTH 38 0
BBX 34 51 5 -11
BITMAP
FE0000FF80
FE0001FF00
FE0003FE00
FE0007FC00
FE0007F800
FE000FF000
FE001FF000
FE003FE000
FE007FC000
FE007F8000
FE00FF0000
FE01FE0000
FE03FE0000
FE03FC0000
FE07F80000
FE0FF00000
FE1FE00000
FFFFE00000
FFFF800000
FFFFC00000
FFFFE00000
FFFFF00000
FE0FF80000
FE07F80000
FE03FC0000
FE03FE0000
FE01FF0000
FE00FF0000
FE007F8000
FE007FC000
FE003FE000
FE001FE000
FE000FF000
FE000FF800
FE0007FC00
FE0003FC00
FE0001FE00
FE0001FF00
FE0000FF80
FE00007FC0
0000000000
0000000000
0000000000
000F800000
000FC00000
000F800000
000F800000
001F800000
001F000000
001F000000
001E000000
ENDCHAR
STARTCHAR 0137
ENCODING 311
SWIDTH 540 0
DWIDTH 30 0
BBX 27 52 3 -11
BITMAP
FE000000
FE000000
FE000000
FE000000
FE000000
FE000000
FE000000
FE000000
FE000000
FE000000
FE000000
FE000000
FE003FC0
FE007F80
FE007F00
FE00FF00
FE01FE00
FE03FC00
FE07F800
FE07F000
FE0FE000
FE1FE000
FE3FC000
FFFF8000
FFFF0000
FFFF0000
FFFF8000
FFFFC000
FE1FC000
FE1FE000
FE0FF000
FE07F000
FE07F800
FE03FC00
FE01FC00
FE01FE00
FE00FF00
FE007F80
FE007F80
FE003FC0
FE001FE0
00000000
00000000
00000000
003E0000
003F0000
003E0000
003E0000
007E0000
007C0000
007C0000
00780000
ENDCHAR
STARTCHAR 0138
ENCODING 312
SWIDTH 540 0
DWIDTH 30 0
BBX 27 29 3 0
BITMAP
FE003FC0
FE007F80
FE007F00
FE00FF00
FE01FE00
FE03FC00
FE07F800
FE07F000
FE0FE000
FE1FE000
FE3FC000
FFFF8000
FFFF0000
FFFF0000
FFFF8000
FFFFC000
FE1FC000
FE1FE000
FE0FF000
FE07F000
FE07F800
FE03FC00
FE01FC00
FE01FE00
FE00FF00
FE007F80
FE007F80
FE003FC0
FE001FE0
ENDCHAR
STARTCHAR 0139
ENCODING 313
SWIDTH 522 0
DWIDTH 29 0
BBX 24 52 4 0
BITMAP
00FF00
03FE00
07FC00
0FF800
1FF000
1FE000
3F8000
7F0000
FE0000
000000
000000
000000
7F0000
7F0000
7F0000
7F0000
7F0000
7F0000
7F0000
7F0000
7F0000
7F0000
7F0000
7F0000
7F0000
7F0000
7F0000
7F0000
7F0000
7F0000
7F0000
7F0000
7F0000
7F0000
7F0000
7F0000
7F0000
7F0000
7F0000
7F0000
7F0000
7F0000
7F0000
7F0000
7F0000
7F0000
7FFFFF
7FFFFF
7FFFFF
7FFFFF
7FFFFF
7FFFFF
ENDCHAR
STARTCHAR 013A
ENCODING 314
SWIDTH 252 0
DWIDTH 14 0
BBX 16 52 2 0
BITMAP
00FF
03FE
07FC
0FF8
1FF0
1FE0
3F80
7F00
FE00
0000
0000
7F00
7F00
7F00
7F00
7F00
7F00
7F00
7F00
7F00
7F00
7F00
7F00
7F00
7F00
7F00
7F00
7F00
7F00
7F00
7F00
7F00
7F00
7F00
7F00
7F00
7F00
7F00
7F00
7F00
7F00
7F00
7F00
7F00
7F00
7F00
7F00
7F00
7F00
7F00
7F00
7F00
ENDCHAR
STARTCHAR 013B
ENCODING 315
SWIDTH 522 0
DWIDTH 29 0
BBX 23 51 5 -11
BITMAP
FE0000
FE0000
FE0000
FE0000
FE0000
FE0000
FE0000
FE0000
FE0000
FE0000
FE0000
FE0000
FE0000
FE0000
FE0000
FE0000
FE0000
FE0000
FE0000
FE0000
FE0000
FE0000
FE0000
FE0000
FE0000
FE0000
FE0000
FE0000
FE0000
FE0000
FE0000
FE0000
FE0000
FE0000
FFFFFE
FFFFFE
FFFFFE
FFFFFE
FFFFFE
FFFFFE
000000
000000
000000
00F800
00FC00
00F800
00F800
01F800
01F000
01F000
01E000
ENDCHAR
STARTCHAR 013C
ENCODING 316
SWIDTH 252 0
DWIDTH 14 0
BBX 7 52 4 -11
BITMAP
FC
FC
FC
FC
FC
FC
FC
FC
FC
FC
FC
FC
FC
FC
FC
FC
FC
FC
FC
FC
FC
FC
FC
FC
FC
FC
FC
FC
FC
FC
FC
FC
FC
FC
FC
FC
FC
FC
FC
FC
FC
00
00
00
7C
7E
7C
7C
FC
F8
F8
F0
ENDCHAR
STARTCHAR 013D
ENCODING 317
SWIDTH 522 0
DWIDTH 29 0
BBX 23 41 5 0
BITMAP
0007E0
FE07E0
FE07E0
FE07E0
FE07C0
FE0FC0
FE0F80
FE0F80
FE0F80
FE0F00
FE0000
FE0000
FE0000
FE0000
FE0000
FE0000
FE0000
FE0000
FE0000
FE0000
FE0000
FE0000
FE0000
FE0000
FE0000
FE0000
FE0000
FE0000
FE0000
FE0000
FE0000
FE0000
FE0000
FE0000
FE0000
FFFFFE
FFFFFE
FFFFFE
FFFFFE
FFFFFE
FFFFFE
ENDCHAR
STARTCHAR 013E
ENCODING 318
SWIDTH 252 0
DWIDTH 14 0
BBX 16 41 4 0
BITMAP
FC3F
FC3F
FC3F
FC3F
FC3E
FC7E
FC7C
FC7C
FC7C
FC78
FC00
FC00
FC00
FC00
FC00
FC00
FC00
FC00
FC00
FC00
FC00
FC00
FC00
FC00
FC00
FC00
FC00
FC00
FC00
FC00
FC00
FC00
FC00
FC00
FC00
FC00
FC00
FC00
FC00
FC00
FC00
ENDCHAR
STARTCHAR 013F
ENCODING 319
SWIDTH 540 0
DWIDTH 30 0
BBX 23 40 5 0
BITMAP
FE0000
FE0000
FE0000
FE0000
FE0000
FE0000
FE0000
FE0000
FE0000
FE0000
FE0000
FE0000
FE0000
FE0000
FE00F0
FE01F8
FE03FC
FE03FE
FE03FE
FE03FE
FE03FC
FE01F8
FE00F0
FE0000
FE0000
FE0000
FE0000
FE0000
FE0000
FE0000
FE0000
FE0000
FE0000
FE0000
FFFFFE
FFFFFE
FFFFFE
FFFFFE
FFFFFE
FFFFFE
ENDCHAR
STARTCHAR 0140
ENCODING 320
SWIDTH 396 0
DWIDTH 22 0
BBX 18 41 4 0
BITMAP
FC0000
FC0000
FC0000
FC0000
FC0000
FC0000
FC0000
FC0000
FC0000
FC0000
FC0000
FC0000
FC0000
FC0000
FC0000
FC0F00
FC3F80
FC3FC0
FC7FC0
FC7FC0
FC3FC0
FC3F80
FC0F00
FC0000
FC0000
FC0000
FC0000
FC0000
FC0000
FC0000
FC0000
FC0000
FC0000
FC0000
FC0000
FC0000
FC0000
FC0000
FC0000
FC0000
FC0000
ENDCHAR
STARTCHAR 0141
ENCODING 321
SWIDTH 540 0
DWIDTH 30 0
BBX 29 40 0 0
BITMAP
07F80000
07F80000
07F80000
07F80000
07F80000
07F80000
07F80000
07F80000
07F80000
07F80000
07F80000
07F80200
07F80600
07F81E00
07F8FE00
07FBFE00
07FFFE00
07FFFC00
07FFF800
07FFE000
0FFF8000
3FFE0000
FFF80000
FFF80000
FFF80000
FFF80000
F7F80000
C7F80000
07F80000
07F80000
07F80000
07F80000
07F80000
07F80000
07FFFFF8
07FFFFF8
07FFFFF8
07FFFFF8
07FFFFF8
07FFFFF8
ENDCHAR
STARTCHAR 0142
ENCODING 322
SWIDTH 324 0
DWIDTH 18 0
BBX 17 41 1 0
BITMAP
07F000
07F000
07F000
07F000
07F000
07F000
07F000
07F000
07F000
07F000
07F000
07F000
07F000
07F180
07FF80
07FF80
07FF80
0FFF00
7FFE00
FFF000
FFF000
FFF000
F7F000
87F000
07F000
07F000
07F000
07F000
07F000
07F000
07F000
07F000
07F000
07F000
07F000
07F000
07F000
07F000
07F000
07F000
07F000
ENDCHAR
STARTCHAR 0143
ENCODING 323
SWIDTH 774 0
DWIDTH 43 0
BBX 34 52 5 0
BITMAP
00000FF000
00003FE000
00007FC000
0000FF8000
0001FF0000
0001FE0000
0003F80000
0007F00000
000FE00000
0000000000
0000000000
0000000000
F800001FC0
FC00001FC0
FE00001FC0
FF00001FC0
FF80001FC0
FF80001FC0
FFC0001FC0
FFE0001FC0
FFF0001FC0
FFF0001FC0
FFF8001FC0
FFFC001FC0
FFFE001FC0
FDFF001FC0
FCFF001FC0
FC7F801FC0
FC7FC01FC0
FC3FE01FC0
FC1FF01FC0
FC0FF01FC0
FC07F81FC0
FC07FC1FC0
FC03FE1FC0
FC01FE1FC0
FC00FF1FC0
FC007F9FC0
FC007FDFC0
FC003FFFC0
FC001FFFC0
FC000FFFC0
FC0007FFC0
FC0007FFC0
FC0003FFC0
FC0001FFC0
FC0000FFC0
FC00007FC0
FC00007FC0
FC00003FC0
FC00001FC0
FC00000FC0
ENDCHAR
STARTCHAR 0144
ENCODING 324
SWIDTH 576 0
DWIDTH 32 0
BBX 25 40 3 0
BITMAP
0003FE00
0007F800
0007F000
000FE000
000FC000
001FC000
003F8000
003E0000
00000000
00000000
00000000
FC1FE000
FC7FF800
FEFFFC00
FFFFFE00
FFFFFF00
FFE0FF00
FF807F80
FF003F80
FE003F80
FE003F80
FE001F80
FE001F80
FE001F80
FE001F80
FE001F80
FE001F80
FE001F80
FE001F80
FE001F80
FE001F80
FE001F80
FE001F80
FE001F80
FE001F80
FE001F80
FE001F80
FE001F80
FE001F80
FE001F80
ENDCHAR
STARTCHAR 0145
ENCODING 325
SWIDTH 774 0
DWIDTH 43 0
BBX 34 51 5 -11
BITMAP
F800001FC0
FC00001FC0
FE00001FC0
FF00001FC0
FF80001FC0
FF80001FC0
FFC0001FC0
FFE0001FC0
FFF0001FC0
FFF0001FC0
FFF8001FC0
FFFC001FC0
FFFE001FC0
FDFF001FC0
FCFF001FC0
FC7F801FC0
FC7FC01FC0
FC3FE01FC0
FC1FF01FC0
FC0FF01FC0
FC07F81FC0
FC07FC1FC0
FC03FE1FC0
FC01FE1FC0
FC00FF1FC0
FC007F9FC0
FC007FDFC0
FC003FFFC0
FC001FFFC0
FC000FFFC0
FC0007FFC0
FC0007FFC0
FC0003FFC0
FC0001FFC0
FC0000FFC0
FC00007FC0
FC00007FC0
FC00003FC0
FC00001FC0
FC00000FC0
0000000000
0000000000
0000000000
0003E00000
0003F00000
0003E00000
0003E00000
0007E00000
0007C00000
0007C00000
0007800000
ENDCHAR
STARTCHAR 0146
ENCODING 326
SWIDTH 576 0
DWIDTH 32 0
BBX 25 40 3 -11
BITMAP
FC1FE000
FC7FF800
FEFFFC00
FFFFFE00
FFFFFF00
FFE0FF00
FF807F80
FF003F80
FE003F80
FE003F80
FE001F80
FE001F80
FE001F80
FE001F80
FE001F80
FE001F80
FE001F80
FE001F80
FE001F80
FE001F80
FE001F80
FE001F80
FE001F80
FE001F80
FE001F80
FE001F80
FE001F80
FE001F80
FE001F80
00000000
00000000
00000000
001F0000
001F8000
001F0000
001F0000
003F0000
003E0000
003E0000
003C0000
ENDCHAR
STARTCHAR 0147
ENCODING 327
SWIDTH 774 0
DWIDTH 43 0
BBX 34 51 5 0
BITMAP
01F003E000
00FC0FC000
007E1F8000
003F3F8000
001FBF0000
000FFE0000
0007FC0000
0007F80000
0000000000
0000000000
0000000000
F800001FC0
FC00001FC0
FE00001FC0
FF00001FC0
FF80001FC0
FF80001FC0
FFC0001FC0
FFE0001FC0
FFF0001FC0
FFF0001FC0
FFF8001FC0
FFFC001FC0
FFFE001FC0
FDFF001FC0
FCFF001FC0
FC7F801FC0
FC7FC01FC0
FC3FE01FC0
FC1FF01FC0
FC0FF01FC0
FC07F81FC0
FC07FC1FC0
FC03FE1FC0
FC01FE1FC0
FC00FF1FC0
FC007F9FC0
FC007FDFC0
FC003FFFC0
FC001FFFC0
FC000FFFC0
FC0007FFC0
FC0007FFC0
FC0003FFC0
FC0001FFC0
FC0000FFC0
FC00007FC0
FC00007FC0
FC00003FC0
FC00001FC0
FC00000FC0
ENDCHAR
STARTCHAR 0148
ENCODING 328
SWIDTH 576 0
DWIDTH 32 0
BBX 25 40 3 0
BITMAP
0FC07E00
07E0FC00
03F1F800
01FBF000
01FFE000
00FFC000
007F8000
00000000
00000000
00000000
00000000
FC1FE000
FC7FF800
FEFFFC00
FFFFFE00
FFFFFF00
FFE0FF00
FF807F80
FF003F80
FE003F80
FE003F80
FE001F80
FE001F80
FE001F80
FE001F80
FE001F80
FE001F80
FE001F80
FE001F80
FE001F80
FE001F80
FE001F80
FE001F80
FE001F80
FE001F80
FE001F80
FE001F80
FE001F80
FE001F80
FE001F80
ENDCHAR
STARTCHAR 0149
ENCODING 329
SWIDTH 630 0
DWIDTH 35 0
BBX 32 43 0 0
BITMAP
1C000000
7E000000
FE000000
7E000000
7E000000
3F000000
3F000000
3F000000
3F000000
3E000000
3E000000
3E000000
7C000000
7C000000
F9F83FC0
F1F8FFF0
61FDFFF8
01FFFFFC
01FFFFFE
01FFC1FE
01FF00FF
01FE007F
01FC007F
01FC007F
01FC003F
01FC003F
01FC003F
01FC003F
01FC003F
01FC003F
01FC003F
01FC003F
01FC003F
01FC003F
01FC003F
01FC003F
01FC003F
01FC003F
01FC003F
01FC003F
01FC003F
01FC003F
01FC003F
ENDCHAR
STARTCHAR 014A
ENCODING 330
SWIDTH 774 0
DWIDTH 43 0
BBX 34 50 5 -10
BITMAP
F800001FC0
FC00001FC0
FE00001FC0
FF00001FC0
FF80001FC0
FF80001FC0
FFC0001FC0
FFE0001FC0
FFF0001FC0
FFF0001FC0
FFF8001FC0
FFFC001FC0
FFFE001FC0
FDFF001FC0
FCFF001FC0
FC7F801FC0
FC7FC01FC0
FC3FE01FC0
FC1FF01FC0
FC0FF01FC0
FC07F81FC0
FC07FC1FC0
FC03FE1FC0
FC01FE1FC0
FC00FF1FC0
FC007F9FC0
FC007FDFC0
FC003FFFC0
FC001FFFC0
FC000FFFC0
FC0007FFC0
FC0007FFC0
FC0003FFC0
FC0001FFC0
FC0000FFC0
FC00007FC0
FC00007FC0
FC00003FC0
FC00001FC0
FC00001FC0
0000001FC0
0000001F80
0000001F80
0000003F80
0000007F80
00001FFF00
00001FFF00
00001FFE00
00003FF800
00000FE000
ENDCHAR
STARTCHAR 014B
ENCODING 331
SWIDTH 576 0
DWIDTH 32 0
BBX 25 39 3 -10
BITMAP
FC1FE000
FC7FF800
FEFFFC00
FFFFFE00
FFFFFF00
FFE0FF00
FF807F80
FF003F80
FE003F80
FE003F80
FE001F80
FE001F80
FE001F80
FE001F80
FE001F80
FE001F80
FE001F80
FE001F80
FE001F80
FE001F80
FE001F80
FE001F80
FE001F80
FE001F80
FE001F80
FE001F80
FE001F80
FE001F80
FE001F80
00003F80
00003F80
00003F80
00003F80
0000FF00
001FFF00
003FFE00
003FFC00
003FF800
001FE000
ENDCHAR
STARTCHAR 014C
ENCODING 332
SWIDTH 810 0
DWIDTH 45 0
BBX 41 48 2 0
BITMAP
000FFFF80000
000FFFF80000
000FFFF80000
000FFFF80000
000000000000
000000000000
000000000000
000000000000
0000FFC00000
000FFFF80000
003FFFFE0000
00FFFFFF8000
01FFFFFFC000
03FFFFFFE000
07FF80FFF000
0FFC001FF800
1FF80007FC00
1FE00003FC00
3FE00001FE00
3FC00001FE00
7F800000FF00
7F800000FF00
7F8000007F00
7F0000007F80
FF0000007F80
FF0000007F80
FF0000007F80
FF0000007F80
FF0000007F80
FF0000007F80
FF0000007F80
FF0000007F80
7F0000007F80
7F8000007F00
7F800000FF00
7F800000FF00
3FC00001FE00
3FE00001FE00
1FE00003FC00
1FF80007FC00
0FFC001FF800
07FF807FF000
03FFFFFFE000
01FFFFFFC000
00FFFFFF8000
003FFFFE0000
000FFFF80000
0000FFC00000
ENDCHAR
STARTCHAR 014D
ENCODING 333
SWIDTH 576 0
DWIDTH 32 0
BBX 28 39 2 0
BITMAP
03FFFE00
03FFFE00
03FFFE00
03FFFE00
03FFFE00
00000000
00000000
00000000
00000000
00000000
003FC000
01FFF800
07FFFE00
0FFFFF00
1FFFFF80
3FE07FC0
3FC01FC0
7F801FE0
7F000FE0
7F000FF0
FE0007F0
FE0007F0
FE0007F0
FE0007F0
FE0007F0
FE0007F0
FE0007F0
FE0007F0
FE0007F0
7F000FF0
7F000FE0
7F801FE0
3FC01FC0
3FE07FC0
1FFFFF80
0FFFFF00
07FFFE00
01FFF800
003FC000
ENDCHAR
STARTCHAR 014E
ENCODING 334
SWIDTH 810 0
DWIDTH 45 0
BBX 41 51 2 0
BITMAP
001F00F80000
001F00F80000
001F80F80000
001FC1F80000
000FFFF00000
0007FFF00000
0003FFC00000
0000FF000000
000000000000
000000000000
000000000000
0000FFC00000
000FFFF80000
003FFFFE0000
00FFFFFF8000
01FFFFFFC000
03FFFFFFE000
07FF80FFF000
0FFC001FF800
1FF80007FC00
1FE00003FC00
3FE00001FE00
3FC00001FE00
7F800000FF00
7F800000FF00
7F8000007F00
7F0000007F80
FF0000007F80
FF0000007F80
FF0000007F80
FF0000007F80
FF0000007F80
FF0000007F80
FF0000007F80
FF0000007F80
7F0000007F80
7F8000007F00
7F800000FF00
7F800000FF00
3FC00001FE00
3FE00001FE00
1FE00003FC00
1FF80007FC00
0FFC001FF800
07FF807FF000
03FFFFFFE000
01FFFFFFC000
00FFFFFF8000
003FFFFE0000
000FFFF80000
0000FFC00000
ENDCHAR
STARTCHAR 014F
ENCODING 335
SWIDTH 576 0
DWIDTH 32 0
BBX 28 40 2 0
BITMAP
03E03E00
03E03E00
03F07C00
03FFFC00
01FFFC00
01FFF800
007FF000
001FC000
00000000
00000000
00000000
003FC000
01FFF800
07FFFE00
0FFFFF00
1FFFFF80
3FE07FC0
3FC01FC0
7F801FE0
7F000FE0
7F000FF0
FE0007F0
FE0007F0
FE0007F0
FE0007F0
FE0007F0
FE0007F0
FE0007F0
FE0007F0
FE0007F0
7F000FF0
7F000FE0
7F801FE0
3FC01FC0
3FE07FC0
1FFFFF80
0FFFFF00
07FFFE00
01FFF800
003FC000
ENDCHAR
STARTCHAR 0150
ENCODING 336
SWIDTH 810 0
DWIDTH 45 0
BBX 41 51 2 0
BITMAP
00003F0FE000
00007E1FC000
0000FC3F8000
0001F87F0000
0001F0FE0000
0003F0F80000
0003E1F00000
0007C3E00000
000000000000
000000000000
000000000000
0000FFC00000
000FFFF80000
003FFFFE0000
00FFFFFF8000
01FFFFFFC000
03FFFFFFE000
07FF80FFF000
0FFC001FF800
1FF80007FC00
1FE00003FC00
3FE00001FE00
3FC00001FE00
7F800000FF00
7F800000FF00
7F8000007F00
7F0000007F80
FF0000007F80
FF0000007F80
FF0000007F80
FF0000007F80
FF0000007F80
FF0000007F80
FF0000007F80
FF0000007F80
7F0000007F80
7F8000007F00
7F800000FF00
7F800000FF00
3FC00001FE00
3FE00001FE00
1FE00003FC00
1FF80007FC00
0FFC001FF800
07FF807FF000
03FFFFFFE000
01FFFFFFC000
00FFFFFF8000
003FFFFE0000
000FFFF80000
0000FFC00000
ENDCHAR
STARTCHAR 0151
ENCODING 337
SWIDTH 576 0
DWIDTH 32 0
BBX 28 40 2 0
BITMAP
000FC7F0
001F8FC0
003F1F80
003E3F00
007C3E00
007C7C00
00F8F800
01F1F000
00000000
00000000
00000000
003FC000
01FFF800
07FFFE00
0FFFFF00
1FFFFF80
3FE07FC0
3FC01FC0
7F801FE0
7F000FE0
7F000FF0
FE0007F0
FE0007F0
FE0007F0
FE0007F0
FE0007F0
FE0007F0
FE0007F0
FE0007F0
FE0007F0
7F000FF0
7F000FE0
7F801FE0
3FC01FC0
3FE07FC0
1FFFFF80
0FFFFF00
07FFFE00
01FFF800
003FC000
ENDCHAR
STARTCHAR 0152
ENCODING 338
SWIDTH 1098 0
DWIDTH 61 0
BBX 56 40 2 0
BITMAP
0003FE00FFFFFF
001FFFC0FFFFFF
007FFFF0FFFFFF
00FFFFFCFFFFFF
03FFFFFEFFFFFF
07FFFFFFFFFFFF
07FF01FFFC0000
0FFC007FFC0000
1FF0001FFC0000
1FE0000FFC0000
3FC0000FFC0000
3FC00007FC0000
7F800007FC0000
7F800003FC0000
7F800003FC0000
7F000003FC0000
FF000001FFFFF8
FF000001FFFFF8
FF000001FFFFF8
FF000001FFFFF8
FF000001FFFFF8
FF000001FFFFF8
FF000001FC0000
FF000001FC0000
7F000003FC0000
7F800003FC0000
7F800003FC0000
7F800007FC0000
3FC00007FC0000
3FC0000FFC0000
1FE0000FFC0000
1FF0001FFC0000
0FFC007FFC0000
07FF01FFFC0000
07FFFFFFFFFFFF
03FFFFFEFFFFFF
00FFFFFCFFFFFF
007FFFF0FFFFFF
001FFFC0FFFFFF
0003FE00FFFFFF
ENDCHAR
STARTCHAR 0153
ENCODING 339
SWIDTH 882 0
DWIDTH 49 0
BBX 45 29 2 0
BITMAP
007F8003F800
01FFE00FFE00
07FFF83FFF80
0FFFFC7FFFC0
1FFFFEFFFFE0
3FE0FFFE0FE0
3F803FF807F0
7F801FF003F0
7F001FF003F8
7F001FE001F8
FE000FE001F8
FE000FE001F8
FE000FFFFFF8
FE000FFFFFF8
FE000FFFFFF8
FE000FFFFFF8
FE000FE00000
FE000FE00000
FE000FE00000
7F001FF00000
7F001FF00000
7F801FF80040
3F803FFC01E0
3FE0FFFE07F0
1FFFFEFFFFF8
0FFFFC7FFFF0
07FFF83FFFE0
01FFE01FFF80
007F8003FC00
ENDCHAR
STARTCHAR 0154
ENCODING 340
SWIDTH 648 0
DWIDTH 36 0
BBX 31 52 5 0
BITMAP
0000FF00
0003FE00
0007FC00
000FF800
001FF000
001FE000
003F8000
007F0000
00FE0000
00000000
00000000
00000000
FFFF8000
FFFFF800
FFFFFE00
FFFFFF00
FFFFFF80
FFFFFFC0
FE00FFC0
FE003FE0
FE001FE0
FE000FE0
FE000FE0
FE000FE0
FE000FE0
FE000FE0
FE000FE0
FE001FE0
FE001FC0
FE007FC0
FE01FF80
FFFFFF00
FFFFFE00
FFFFF800
FFFFE000
FFFFF000
FE0FF800
FE07F800
FE03FC00
FE03FE00
FE01FE00
FE00FF00
FE00FF80
FE007F80
FE003FC0
FE003FE0
FE001FE0
FE000FF0
FE000FF8
FE0007F8
FE0003FC
FE0003FE
ENDCHAR
STARTCHAR 0155
ENCODING 341
SWIDTH 378 0
DWIDTH 21 0
BBX 19 40 3 0
BITMAP
003FE0
007F80
007F00
00FE00
00FC00
01FC00
03F800
03E000
000000
000000
000000
FC0FC0
FC3FC0
FE7FC0
FEFF80
FFFF80
FFFF80
FFFF80
FFE000
FF8000
FF8000
FF0000
FF0000
FE0000
FE0000
FE0000
FE0000
FE0000
FE0000
FE0000
FE0000
FE0000
FE0000
FE0000
FE0000
FE0000
FE0000
FE0000
FE0000
FE0000
ENDCHAR
STARTCHAR 0156
ENCODING 342
SWIDTH 648 0
DWIDTH 36 0
BBX 31 51 5 -11
BITMAP
FFFF8000
FFFFF800
FFFFFE00
FFFFFF00
FFFFFF80
FFFFFFC0
FE00FFC0
FE003FE0
FE001FE0
FE000FE0
FE000FE0
FE000FE0
FE000FE0
FE000FE0
FE000FE0
FE001FE0
FE001FC0
FE007FC0
FE01FF80
FFFFFF00
FFFFFE00
FFFFF800
FFFFE000
FFFFF000
FE0FF800
FE07F800
FE03FC00
FE03FE00
FE01FE00
FE00FF00
FE00FF80
FE007F80
FE003FC0
FE003FE0
FE001FE0
FE000FF0
FE000FF8
FE0007F8
FE0003FC
FE0003FE
00000000
00000000
00000000
001F0000
001F8000
001F0000
001F0000
003F0000
003E0000
003E0000
003C0000
ENDCHAR
STARTCHAR 0157
ENCODING 343
SWIDTH 378 0
DWIDTH 21 0
BBX 18 40 3 -11
BITMAP
FC0FC0
FC3FC0
FE7FC0
FEFF80
FFFF80
FFFF80
FFFF80
FFE000
FF8000
FF8000
FF0000
FF0000
FE0000
FE0000
FE0000
FE0000
FE0000
FE0000
FE0000
FE0000
FE0000
FE0000
FE0000
FE0000
FE0000
FE0000
FE0000
FE0000
FE0000
000000
000000
000000
3E0000
3F0000
3E0000
3E0000
7E0000
7C0000
7C0000
780000
ENDCHAR
STARTCHAR 0158
ENCODING 344
SWIDTH 648 0
DWIDTH 36 0
BBX 31 51 5 0
BITMAP
3E007C00
1F81F800
0FC3F000
07E7F000
03F7E000
01FFC000
00FF8000
00FF0000
00000000
00000000
00000000
FFFF8000
FFFFF800
FFFFFE00
FFFFFF00
FFFFFF80
FFFFFFC0
FE00FFC0
FE003FE0
FE001FE0
FE000FE0
FE000FE0
FE000FE0
FE000FE0
FE000FE0
FE000FE0
FE001FE0
FE001FC0
FE007FC0
FE01FF80
FFFFFF00
FFFFFE00
FFFFF800
FFFFE000
FFFFF000
FE0FF800
FE07F800
FE03FC00
FE03FE00
FE01FE00
FE00FF00
FE00FF80
FE007F80
FE003FC0
FE003FE0
FE001FE0
FE000FF0
FE000FF8
FE0007F8
FE0003FC
FE0003FE
ENDCHAR
STARTCHAR 0159
ENCODING 345
SWIDTH 378 0
DWIDTH 21 0
BBX 19 40 3 0
BITMAP
FC07E0
7E0FC0
3F1F80
1FBF00
1FFE00
0FFC00
07F800
000000
000000
000000
000000
FC0FC0
FC3FC0
FE7FC0
FEFF80
FFFF80
FFFF80
FFFF80
FFE000
FF8000
FF8000
FF0000
FF0000
FE0000
FE0000
FE0000
FE0000
FE0000
FE0000
FE0000
FE0000
FE0000
FE0000
FE0000
FE0000
FE0000
FE0000
FE0000
FE0000
FE0000
ENDCHAR
STARTCHAR 015A
ENCODING 346
SWIDTH 558 0
DWIDTH 31 0
BBX 28 52 1 0
BITMAP
00001FE0
00007FC0
0000FF80
0001FF00
0003FE00
0003FC00
0007F000
000FE000
001FC000
00000000
00000000
00000000
001FF000
00FFFE00
01FFFF80
07FFFFC0
0FFFFFE0
0FFFFFC0
1FF03FC0
1FC00780
3FC00100
3F800000
3F800000
3F800000
3F800000
3FC00000
3FE00000
1FFC0000
1FFF8000
0FFFF000
07FFFC00
03FFFF00
01FFFF80
003FFFC0
0007FFC0
0000FFE0
00003FE0
00000FF0
00000FF0
000007F0
000007F0
00000FF0
08000FE0
3C000FE0
3F001FE0
7FC07FC0
FFFFFFC0
7FFFFF80
3FFFFF00
0FFFFE00
03FFF800
007FC000
ENDCHAR
STARTCHAR 015B
ENCODING 347
SWIDTH 450 0
DWIDTH 25 0
BBX 22 40 1 0
BITMAP
0007FC
000FF0
000FE0
001FC0
001F80
003F80
007F00
007C00
000000
000000
000000
00FF00
03FFE0
0FFFF0
1FFFFC
3FFFF8
3FC1F0
7F0020
7F0000
7F0000
7F0000
7FC000
3FF000
3FFE00
1FFFC0
0FFFE0
03FFF0
007FF8
000FF8
0003FC
0001FC
0001FC
0001FC
3C01F8
3F07F8
7FFFF8
FFFFF0
3FFFE0
0FFF80
03FE00
ENDCHAR
STARTCHAR 015C
ENCODING 348
SWIDTH 558 0
DWIDTH 31 0
BBX 28 51 1 0
BITMAP
000FC000
001FE000
003FF000
007FF800
007CFC00
00FC7E00
01F83F00
07F03F80
00000000
00000000
00000000
001FF000
00FFFE00
01FFFF80
07FFFFC0
0FFFFFE0
0FFFFFC0
1FF03FC0
1FC00780
3FC00100
3F800000
3F800000
3F800000
3F800000
3FC00000
3FE00000
1FFC0000
1FFF8000
0FFFF000
07FFFC00
03FFFF00
01FFFF80
003FFFC0
0007FFC0
0000FFE0
00003FE0
00000FF0
00000FF0
000007F0
000007F0
00000FF0
08000FE0
3C000FE0
3F001FE0
7FC07FC0
FFFFFFC0
7FFFFF80
3FFFFF00
0FFFFE00
03FFF800
007FC000
ENDCHAR
STARTCHAR 015D
ENCODING 349
SWIDTH 450 0
DWIDTH 25 0
BBX 22 40 1 0
BITMAP
007F00
00FF80
01FFC0
03FFC0
07E7E0
0FC3F0
1F81F8
000004
000000
000000
000000
00FF00
03FFE0
0FFFF0
1FFFFC
3FFFF8
3FC1F0
7F0020
7F0000
7F0000
7F0000
7FC000
3FF000
3FFE00
1FFFC0
0FFFE0
03FFF0
007FF8
000FF8
0003FC
0001FC
0001FC
0001FC
3C01F8
3F07F8
7FFFF8
FFFFF0
3FFFE0
0FFF80
03FE00
ENDCHAR
STARTCHAR 015E
ENCODING 350
SWIDTH 558 0
DWIDTH 31 0
BBX 28 50 1 -10
BITMAP
001FF000
00FFFE00
01FFFF80
07FFFFC0
0FFFFFE0
0FFFFFC0
1FF03FC0
1FC00780
3FC00100
3F800000
3F800000
3F800000
3F800000
3FC00000
3FE00000
1FF80000
1FFF0000
0FFFE000
07FFFC00
03FFFF00
01FFFF80
003FFFC0
0007FFC0
0000FFE0
00003FE0
00000FE0
00000FF0
000007F0
000007F0
00000FF0
08000FE0
3C000FE0
3F001FE0
7FC07FC0
FFFFFFC0
7FFFFF80
3FFFFF00
0FFFFE00
03FFF800
007FE000
000F0000
000F0000
000FE000
001FF000
0003F800
0001F800
0001F800
003FF000
003FE000
003F8000
ENDCHAR
STARTCHAR 015F
ENCODING 351
SWIDTH 450 0
DWIDTH 25 0
BBX 22 39 1 -10
BITMAP
00FF00
03FFE0
0FFFF0
1FFFFC
3FFFF8
3FC1F0
7F0070
7F0000
7F0000
7F0000
7F8000
3FF000
3FFE00
1FFF80
0FFFE0
07FFF0
01FFF8
003FF8
0007FC
0001FC
0001FC
0001FC
1001FC
3C03F8
7F8FF8
FFFFF0
7FFFE0
3FFFC0
07FF00
007800
00F000
00FC00
01FF00
003F80
001F80
001F80
01FF80
03FF00
03FC00
ENDCHAR
STARTCHAR 0160
ENCODING 352
SWIDTH 558 0
DWIDTH 31 0
BBX 28 51 1 0
BITMAP
07C00F80
03F03F00
01F87E00
00FCFE00
007EFC00
003FF800
001FF000
001FE000
00000000
00000000
00000000
001FF000
00FFFE00
01FFFF80
07FFFFC0
0FFFFFE0
0FFFFFC0
1FF03FC0
1FC00780
3FC00100
3F800000
3F800000
3F800000
3F800000
3FC00000
3FE00000
1FFC0000
1FFF8000
0FFFF000
07FFFC00
03FFFF00
01FFFF80
003FFFC0
0007FFC0
0000FFE0
00003FE0
00000FF0
00000FF0
000007F0
000007F0
00000FF0
08000FE0
3C000FE0
3F001FE0
7FC07FC0
FFFFFFC0
7FFFFF80
3FFFFF00
0FFFFE00
03FFF800
007FC000
ENDCHAR
STARTCHAR 0161
ENCODING 353
SWIDTH 450 0
DWIDTH 25 0
BBX 22 40 1 0
BITMAP
1F80FC
0FC1F8
07E3F0
03F7E0
03FFC0
01FF80
00FF00
000000
000000
000000
000000
00FF00
03FFE0
0FFFF0
1FFFFC
3FFFF8
3FC1F0
7F0020
7F0000
7F0000
7F0000
7FC000
3FF000
3FFE00
1FFFC0
0FFFE0
03FFF0
007FF8
000FF8
0003FC
0001FC
0001FC
0001FC
3C01F8
3F07F8
7FFFF8
FFFFF0
3FFFE0
0FFF80
03FE00
ENDCHAR
STARTCHAR 0162
ENCODING 354
SWIDTH 612 0
DWIDTH 34 0
BBX 32 50 1 -10
BITMAP
FFFFFFFF
FFFFFFFF
FFFFFFFF
FFFFFFFF
FFFFFFFF
FFFFFFFF
000FF000
000FF000
000FF000
000FF000
000FF000
000FF000
000FF000
000FF000
000FF000
000FF000
000FF000
000FF000
000FF000
000FF000
000FF000
000FF000
000FF000
000FF000
000FF000
000FF000
000FF000
000FF000
000FF000
000FF000
000FF000
000FF000
000FF000
000FF000
000FF000
000FF000
000FF000
000FF000
000FF000
000FF000
0003C000
00078000
0007F000
0007F800
0001FC00
00007C00
0000FC00
000FFC00
001FF800
000FE000
ENDCHAR
STARTCHAR 0163
ENCODING 355
SWIDTH 378 0
DWIDTH 21 0
BBX 20 47 1 -10
BITMAP
03E000
03E000
03E000
03E000
07E000
07E000
07E000
07E000
3FFFE0
FFFFE0
FFFFE0
FFFFE0
FFFFE0
0FE000
0FE000
0FE000
0FE000
0FE000
0FE000
0FE000
0FE000
0FE000
0FE000
0FE000
0FE000
0FE000
0FE000
0FE000
0FE000
0FE000
0FF000
0FF9C0
07FFC0
07FFE0
03FFF0
03FFE0
00FF80
003C00
007800
007F00
00FF80
001FC0
000FC0
000FC0
00FFC0
01FF80
01FE00
ENDCHAR
STARTCHAR 0164
ENCODING 356
SWIDTH 612 0
DWIDTH 34 0
BBX 32 51 1 0
BITMAP
03E007C0
01F81F80
00FC3F00
007E7F00
003F7E00
001FFC00
000FF800
000FF000
00000000
00000000
00000000
FFFFFFFF
FFFFFFFF
FFFFFFFF
FFFFFFFF
FFFFFFFF
FFFFFFFF
000FF000
000FF000
000FF000
000FF000
000FF000
000FF000
000FF000
000FF000
000FF000
000FF000
000FF000
000FF000
000FF000
000FF000
000FF000
000FF000
000FF000
000FF000
000FF000
000FF000
000FF000
000FF000
000FF000
000FF000
000FF000
000FF000
000FF000
000FF000
000FF000
000FF000
000FF000
000FF000
000FF000
000FF000
ENDCHAR
STARTCHAR 0165
ENCODING 357
SWIDTH 378 0
DWIDTH 21 0
BBX 23 41 1 0
BITMAP
00007E
00007E
00007E
00E07E
03E07C
03E0FC
03E0F8
07E0F8
07E0F8
07E0F0
07E000
07E000
3FFFE0
FFFFE0
FFFFE0
FFFFE0
FFFFE0
0FE000
0FE000
0FE000
0FE000
0FE000
0FE000
0FE000
0FE000
0FE000
0FE000
0FE000
0FE000
0FE000
0FE000
0FE000
0FE000
0FE000
0FE000
0FF180
07FFC0
07FFE0
03FFF0
01FFC0
007F00
ENDCHAR
STARTCHAR 0166
ENCODING 358
SWIDTH 612 0
DWIDTH 34 0
BBX 32 40 1 0
BITMAP
FFFFFFFF
FFFFFFFF
FFFFFFFF
FFFFFFFF
FFFFFFFF
FFFFFFFF
000FF000
000FF000
000FF000
000FF000
000FF000
000FF000
000FF000
000FF000
000FF000
000FF000
0FFFFFF8
0FFFFFF8
0FFFFFF8
0FFFFFF8
0FFFFFF8
000FF000
000FF000
000FF000
000FF000
000FF000
000FF000
000FF000
000FF000
000FF000
000FF000
000FF000
000FF000
000FF000
000FF000
000FF000
000FF000
000FF000
000FF000
000FF000
ENDCHAR
STARTCHAR 0167
ENCODING 359
SWIDTH 378 0
DWIDTH 21 0
BBX 20 38 1 0
BITMAP
00E000
03E000
03E000
03E000
03E000
07E000
07E000
07E000
07E000
3FFFE0
FFFFE0
FFFFE0
FFFFE0
FFFFE0
0FE000
0FE000
0FE000
0FE000
7FFFE0
7FFFE0
7FFFE0
7FFFE0
0FE000
0FE000
0FE000
0FE000
0FE000
0FE000
0FE000
0FE000
0FE000
0FE000
07F180
07FFC0
07FFE0
03FFF0
01FFC0
007F00
ENDCHAR
STARTCHAR 0168
ENCODING 360
SWIDTH 756 0
DWIDTH 42 0
BBX 34 51 4 0
BITMAP
001F01E000
003FC1E000
007FE3E000
00FFFFE000
00FFFFC000
00F8FFC000
01F07F8000
01F01F0000
0000000000
0000000000
0000000000
FF00003FC0
FF00003FC0
FF00003FC0
FF00003FC0
FF00003FC0
FF00003FC0
FF00003FC0
FF00003FC0
FF00003FC0
FF00003FC0
FF00003FC0
FF00003FC0
FF00003FC0
FF00003FC0
FF00003FC0
FF00003FC0
FF00003FC0
FF00003FC0
FF00003FC0
FF00003FC0
FF00003FC0
FF00003FC0
FF00003FC0
FF00003FC0
FF00003FC0
FF00003FC0
FF00003F80
FF00003F80
7F00007F80
7F80007F80
7F8000FF00
3FC001FF00
3FE003FE00
1FF80FFE00
0FFFFFFC00
07FFFFF800
03FFFFF000
01FFFFC000
007FFF8000
000FF80000
ENDCHAR
STARTCHAR 0169
ENCODING 361
SWIDTH 576 0
DWIDTH 32 0
BBX 25 40 3 0
BITMAP
00F03C00
03FE3C00
07FFFC00
07FFFC00
07FFF800
0F8FF000
0F83E000
00000000
00000000
00000000
00000000
FE003F80
FE003F80
FE003F80
FE003F80
FE003F80
FE003F80
FE003F80
FE003F80
FE003F80
FE003F80
FE003F80
FE003F80
FE003F80
FE003F80
FE003F80
FE003F80
FE003F80
FE003F80
FE003F80
FE003F80
FE003F80
FF003F80
7F00FF80
7FC1FF80
3FFFFF80
3FFFFF80
1FFF9F80
0FFF1F80
03FC0F80
ENDCHAR
STARTCHAR 016A
ENCODING 362
SWIDTH 756 0
DWIDTH 42 0
BBX 34 48 4 0
BITMAP
007FFFC000
007FFFC000
007FFFC000
007FFFC000
0000000000
0000000000
0000000000
0000000000
FF00003FC0
FF00003FC0
FF00003FC0
FF00003FC0
FF00003FC0
FF00003FC0
FF00003FC0
FF00003FC0
FF00003FC0
FF00003FC0
FF00003FC0
FF00003FC0
FF00003FC0
FF00003FC0
FF00003FC0
FF00003FC0
FF00003FC0
FF00003FC0
FF00003FC0
FF00003FC0
FF00003FC0
FF00003FC0
FF00003FC0
FF00003FC0
FF00003FC0
FF00003FC0
FF00003F80
FF00003F80
7F00007F80
7F80007F80
7F8000FF00
3FC001FF00
3FE003FE00
1FF80FFE00
0FFFFFFC00
07FFFFF800
03FFFFF000
01FFFFC000
007FFF8000
000FF80000
ENDCHAR
STARTCHAR 016B
ENCODING 363
SWIDTH 576 0
DWIDTH 32 0
BBX 25 39 3 0
BITMAP
07FFFC00
07FFFC00
07FFFC00
07FFFC00
07FFFC00
00000000
00000000
00000000
00000000
00000000
FE003F80
FE003F80
FE003F80
FE003F80
FE003F80
FE003F80
FE003F80
FE003F80
FE003F80
FE003F80
FE003F80
FE003F80
FE003F80
FE003F80
FE003F80
FE003F80
FE003F80
FE003F80
FE003F80
FE003F80
FE003F80
FF003F80
7F00FF80
7FC1FF80
3FFFFF80
3FFFFF80
1FFF9F80
0FFF1F80
03FC0F80
ENDCHAR
STARTCHAR 016C
ENCODING 364
SWIDTH 756 0
DWIDTH 42 0
BBX 34 51 4 0
BITMAP
00F807C000
00F807C000
00FC07C000
00FE0FC000
007FFF8000
003FFF8000
001FFE0000
0007F80000
0000000000
0000000000
0000000000
FF00003FC0
FF00003FC0
FF00003FC0
FF00003FC0
FF00003FC0
FF00003FC0
FF00003FC0
FF00003FC0
FF00003FC0
FF00003FC0
FF00003FC0
FF00003FC0
FF00003FC0
FF00003FC0
FF00003FC0
FF00003FC0
FF00003FC0
FF00003FC0
FF00003FC0
FF00003FC0
FF00003FC0
FF00003FC0
FF00003FC0
FF00003FC0
FF00003FC0
FF00003FC0
FF00003F80
FF00003F80
7F00007F80
7F80007F80
7F8000FF00
3FC001FF00
3FE003FE00
1FF80FFE00
0FFFFFFC00
07FFFFF800
03FFFFF000
01FFFFC000
007FFF8000
000FF80000
ENDCHAR
STARTCHAR 016D
ENCODING 365
SWIDTH 576 0
DWIDTH 32 0
BBX 25 40 3 0
BITMAP
07C07C00
07C07C00
07E0F800
07FFF800
03FFF800
03FFF000
00FFE000
003F8000
00000000
00000000
00000000
FE003F80
FE003F80
FE003F80
FE003F80
FE003F80
FE003F80
FE003F80
FE003F80
FE003F80
FE003F80
FE003F80
FE003F80
FE003F80
FE003F80
FE003F80
FE003F80
FE003F80
FE003F80
FE003F80
FE003F80
FE003F80
FF003F80
7F00FF80
7FC1FF80
3FFFFF80
3FFFFF80
1FFF9F80
0FFF1F80
03FC0F80
ENDCHAR
STARTCHAR 016E
ENCODING 366
SWIDTH 756 0
DWIDTH 42 0
BBX 34 53 4 0
BITMAP
0001F00000
0007F80000
000FFC0000
000F1E0000
001E0E0000
001E0E0000
001E0E0000
000F1E0000
000FFC0000
0007F80000
0001F00000
0000000000
0000000000
FF00003FC0
FF00003FC0
FF00003FC0
FF00003FC0
FF00003FC0
FF00003FC0
FF00003FC0
FF00003FC0
FF00003FC0
FF00003FC0
FF00003FC0
FF00003FC0
FF00003FC0
FF00003FC0
FF00003FC0
FF00003FC0
FF00003FC0
FF00003FC0
FF00003FC0
FF00003FC0
FF00003FC0
FF00003FC0
FF00003FC0
FF00003FC0
FF00003FC0
FF00003FC0
FF00003F80
FF00003F80
7F00007F80
7F80007F80
7F8000FF00
3FC001FF00
3FE003FE00
1FF80FFE00
0FFFFFFC00
07FFFFF800
03FFFFF000
01FFFFC000
007FFF8000
000FF80000
ENDCHAR
STARTCHAR 016F
ENCODING 367
SWIDTH 576 0
DWIDTH 32 0
BBX 25 42 3 0
BITMAP
001F0000
007F8000
00FFC000
01F1E000
01E0E000
01E0E000
01E0E000
01F1E000
00FFE000
007FC000
001F0000
00000000
00000000
FE003F80
FE003F80
FE003F80
FE003F80
FE003F80
FE003F80
FE003F80
FE003F80
FE003F80
FE003F80
FE003F80
FE003F80
FE003F80
FE003F80
FE003F80
FE003F80
FE003F80
FE003F80
FE003F80
FE003F80
FE003F80
FF003F80
7F00FF80
7FC1FF80
3FFFFF80
3FFFFF80
1FFF9F80
0FFF1F80
03FC0F80
ENDCHAR
STARTCHAR 0170
ENCODING 368
SWIDTH 756 0
DWIDTH 42 0
BBX 34 51 4 0
BITMAP
0001F87F00
0003F0FE00
0007E1FC00
000FC3F800
000F87F000
001F87C000
001F0F8000
003E1F0000
0000000000
0000000000
0000000000
FF00003FC0
FF00003FC0
FF00003FC0
FF00003FC0
FF00003FC0
FF00003FC0
FF00003FC0
FF00003FC0
FF00003FC0
FF00003FC0
FF00003FC0
FF00003FC0
FF00003FC0
FF00003FC0
FF00003FC0
FF00003FC0
FF00003FC0
FF00003FC0
FF00003FC0
FF00003FC0
FF00003FC0
FF00003FC0
FF00003FC0
FF00003FC0
FF00003FC0
FF00003FC0
FF00003F80
FF00003F80
7F00007F80
7F80007F80
7F8000FF00
3FC001FF00
3FE003FE00
1FF80FFE00
0FFFFFFC00
07FFFFF800
03FFFFF000
01FFFFC000
007FFF8000
000FF80000
ENDCHAR
STARTCHAR 0171
ENCODING 369
SWIDTH 576 0
DWIDTH 32 0
BBX 27 40 3 0
BITMAP
001F8FE0
003F1F80
007E3F00
007C7E00
00F87C00
00F8F800
01F1F000
03E3E000
00000000
00000000
00000000
FE003F80
FE003F80
FE003F80
FE003F80
FE003F80
FE003F80
FE003F80
FE003F80
FE003F80
FE003F80
FE003F80
FE003F80
FE003F80
FE003F80
FE003F80
FE003F80
FE003F80
FE003F80
FE003F80
FE003F80
FE003F80
FF003F80
7F00FF80
7FC1FF80
3FFFFF80
3FFFFF80
1FFF9F80
0FFF1F80
03FC0F80
ENDCHAR
STARTCHAR 0172
ENCODING 370
SWIDTH 756 0
DWIDTH 42 0
BBX 34 49 4 -9
BITMAP
FF00003FC0
FF00003FC0
FF00003FC0
FF00003FC0
FF00003FC0
FF00003FC0
FF00003FC0
FF00003FC0
FF00003FC0
FF00003FC0
FF00003FC0
FF00003FC0
FF00003FC0
FF00003FC0
FF00003FC0
FF00003FC0
FF00003FC0
FF00003FC0
FF00003FC0
FF00003FC0
FF00003FC0
FF00003FC0
FF00003FC0
FF00003FC0
FF00003FC0
FF00003F80
FF00003F80
FF00003F80
7F00007F80
7F80007F80
7F8000FF00
3FC001FF00
3FE003FE00
1FF80FFE00
1FFFFFFC00
0FFFFFF800
07FFFFF000
01FFFFC000
007FFF0000
001FF80000
0001E00000
0003C00000
0007800000
000F800000
000FC00000
000FFC0000
000FFE0000
0007FE0000
0001F80000
ENDCHAR
STARTCHAR 0173
ENCODING 371
SWIDTH 576 0
DWIDTH 32 0
BBX 28 38 3 -9
BITMAP
FE003F80
FE003F80
FE003F80
FE003F80
FE003F80
FE003F80
FE003F80
FE003F80
FE003F80
FE003F80
FE003F80
FE003F80
FE003F80
FE003F80
FE003F80
FE003F80
FE003F80
FE003F80
FE003F80
FE003F80
FE003F80
FF003F80
7F00FF80
7FC1FF80
3FFFFF80
3FFFFF80
1FFF9F80
0FFF1F80
03FC0F80
00000F00
00001E00
00003C00
00007C00
00007E00
00007FE0
00007FF0
00003FF0
00000FC0
ENDCHAR
STARTCHAR 0174
ENCODING 372
SWIDTH 1062 0
DWIDTH 59 0
BBX 58 51 0 0
BITMAP
0000003F00000000
0000007F80000000
000000FFC0000000
000001FFE0000000
000001F3F0000000
000003F1F8000000
000007E0FC000000
00001FC0FE000000
0000000000000000
0000000000000000
0000000000000000
FF00001F00001FC0
7F80003F80003FC0
7FC0003FC0003FC0
3FC0007FC0007F80
3FC0007FC0007F80
3FC0007FE0007F80
1FE000FFE0007F00
1FE000FFE000FF00
1FE000FFF000FF00
1FF001FFF000FE00
0FF001FFF001FE00
0FF001FBF801FE00
0FF003FBF801FC00
07F803FBF801FC00
07F803F1FC03FC00
07F807F1FC03FC00
03FC07F1FC03F800
03FC07E0FE07F800
03FC0FE0FE07F800
01FC0FE0FE07F000
01FE0FC07F07F000
01FE1FC07F0FF000
00FE1FC07F0FE000
00FF1F803F0FE000
00FF3F803F9FE000
00FF3F803F9FC000
007F3F001F9FC000
007FBF001FDFC000
007FFF001FFF8000
003FFE000FFF8000
003FFE000FFF8000
003FFE000FFF0000
001FFC0007FF0000
001FFC0007FF0000
001FFC0007FF0000
000FF80003FE0000
000FF80003FE0000
000FF80003FE0000
0007F00001FC0000
0007F00001FC0000
ENDCHAR
STARTCHAR 0175
ENCODING 373
SWIDTH 810 0
DWIDTH 45 0
BBX 43 40 1 0
BITMAP
00003F800000
00007FC00000
0000FFE00000
0001FFE00000
0003F3F00000
0007E1F80000
000FC0FC0000
000000020000
000000000000
000000000000
000000000000
FC001F8007E0
FE003F800FE0
FE003F800FE0
7F003FC00FC0
7F007FC01FC0
7F007FC01FC0
3F007FE01F80
3F80FFE01F80
3F80FBE03F80
3F80FBF03F00
1F81FBF03F00
1FC1FBF07F00
1FC1F1F07F00
0FC3F1F87E00
0FC3F1F87E00
0FE3E0F8FE00
07E3E0FCFC00
07E7E0FCFC00
07E7C07CFC00
03F7C07DF800
03FFC07FF800
03FF807FF800
01FF803FF000
01FF803FF000
01FF003FF000
00FF001FE000
00FF001FE000
00FF001FE000
00FE000FC000
ENDCHAR
STARTCHAR 0176
ENCODING 374
SWIDTH 648 0
DWIDTH 36 0
BBX 37 51 0 0
BITMAP
0001F80000
0003FC0000
0007FE0000
000FFF0000
000F9F8000
001F8FC000
003F07E000
00FE07F000
0000000000
0000000000
0000000000
FF00000FF8
7F80000FF0
7F80001FE0
3FC0003FE0
3FC0003FC0
1FE0007F80
0FE0007F80
0FF000FF00
07F800FF00
07F801FE00
03FC01FC00
01FC03FC00
01FE03F800
00FE07F800
00FF0FF000
007F0FE000
003F9FE000
003F9FC000
001FDFC000
001FFF8000
000FFF0000
0007FF0000
0007FE0000
0003FE0000
0003FC0000
0003FC0000
0003FC0000
0003FC0000
0003FC0000
0003FC0000
0003FC0000
0003FC0000
0003FC0000
0003FC0000
0003FC0000
0003FC0000
0003FC0000
0003FC0000
0003FC0000
0003FC0000
ENDCHAR
STARTCHAR 0177
ENCODING 375
SWIDTH 540 0
DWIDTH 30 0
BBX 30 49 0 -9
BITMAP
000FE000
001FF000
003FF800
007FF800
00FCFC00
01F87E00
03F03F00
00000080
00000000
00000000
00000000
FF0001FC
7F0003F8
7F8003F0
3F8007F0
3FC007F0
1FC00FE0
1FC00FE0
1FE00FC0
0FE01FC0
0FF01F80
07F03F80
07F03F80
03F83F00
03F87F00
01FC7E00
01FC7E00
01FCFC00
00FEFC00
00FFFC00
007FF800
007FF800
003FF000
003FF000
003FE000
001FE000
001FE000
000FC000
001FC000
001F8000
003F8000
003F0000
007F0000
007F0000
00FE0000
00FE0000
00FC0000
01FC0000
03F80000
ENDCHAR
STARTCHAR 0178
ENCODING 376
SWIDTH 648 0
DWIDTH 36 0
BBX 37 50 0 0
BITMAP
003C03C000
007E07E000
00FF07F000
00FF07F000
00FF07F000
007E07E000
003C03C000
0000000000
0000000000
0000000000
FF00000FF8
7F80000FF0
7F80001FE0
3FC0003FE0
3FC0003FC0
1FE0007F80
0FE0007F80
0FF000FF00
07F800FF00
07F801FE00
03FC01FC00
01FC03FC00
01FE03F800
00FE07F800
00FF0FF000
007F0FE000
003F9FE000
003F9FC000
001FDFC000
001FFF8000
000FFF0000
0007FF0000
0007FE0000
0003FE0000
0003FC0000
0003FC0000
0003FC0000
0003FC0000
0003FC0000
0003FC0000
0003FC0000
0003FC0000
0003FC0000
0003FC0000
0003FC0000
0003FC0000
0003FC0000
0003FC0000
0003FC0000
0003FC0000
ENDCHAR
STARTCHAR 0179
ENCODING 377
SWIDTH 612 0
DWIDTH 34 0
BBX 31 52 1 0
BITMAP
00000FF0
00003FE0
00007FC0
0000FF80
0001FF00
0001FE00
0003F800
0007F000
000FE000
00000000
00000000
00000000
7FFFFFFE
7FFFFFFE
7FFFFFFE
7FFFFFFE
7FFFFFFE
7FFFFFFC
000007FC
000007F8
00000FF0
00001FE0
00003FE0
00003FC0
00007F80
0000FF80
0000FF00
0001FE00
0003FC00
0007FC00
0007F800
000FF000
001FF000
001FE000
003FC000
007F8000
00FF8000
00FF0000
01FE0000
03FE0000
03FC0000
07F80000
0FF00000
1FF00000
1FE00000
3FC00000
7FFFFFFE
7FFFFFFE
FFFFFFFE
FFFFFFFE
FFFFFFFE
FFFFFFFE
ENDCHAR
STARTCHAR 017A
ENCODING 378
SWIDTH 468 0
DWIDTH 26 0
BBX 23 40 1 0
BITMAP
0007FC
000FF0
000FE0
001FC0
001F80
003F80
007F00
007C00
000000
000000
000000
7FFFFE
7FFFFE
7FFFFE
7FFFFE
7FFFFE
0001FC
0003F8
0007F8
0007F0
000FE0
001FC0
003FC0
003F80
007F00
00FF00
01FE00
01FC00
03F800
07F800
07F000
0FE000
1FC000
3FC000
3F8000
7FFFFE
7FFFFE
FFFFFE
FFFFFE
FFFFFE
ENDCHAR
STARTCHAR 017B
ENCODING 379
SWIDTH 612 0
DWIDTH 34 0
BBX 31 51 1 0
BITMAP
0003C000
0007E000
000FF000
000FF000
000FF000
000FF000
0007E000
0003C000
00000000
00000000
00000000
7FFFFFFE
7FFFFFFE
7FFFFFFE
7FFFFFFE
7FFFFFFE
7FFFFFFC
000007FC
000007F8
00000FF0
00001FE0
00003FE0
00003FC0
00007F80
0000FF80
0000FF00
0001FE00
0003FC00
0007FC00
0007F800
000FF000
001FF000
001FE000
003FC000
007F8000
00FF8000
00FF0000
01FE0000
03FE0000
03FC0000
07F80000
0FF00000
1FF00000
1FE00000
3FC00000
7FFFFFFE
7FFFFFFE
FFFFFFFE
FFFFFFFE
FFFFFFFE
FFFFFFFE
ENDCHAR
STARTCHAR 017C
ENCODING 380
SWIDTH 468 0
DWIDTH 26 0
BBX 23 41 1 0
BITMAP
003C00
007E00
00FF00
00FF80
00FF80
00FF80
00FF00
007E00
003C00
000000
000000
000000
7FFFFE
7FFFFE
7FFFFE
7FFFFE
7FFFFE
0001FC
0003F8
0007F8
0007F0
000FE0
001FC0
003FC0
003F80
007F00
00FF00
01FE00
01FC00
03F800
07F800
07F000
0FE000
1FC000
3FC000
3F8000
7FFFFE
7FFFFE
FFFFFE
FFFFFE
FFFFFE
ENDCHAR
STARTCHAR 017D
ENCODING 381
SWIDTH 612 0
DWIDTH 34 0
BBX 31 51 1 0
BITMAP
03E007C0
01F81F80
00FC3F00
007E7F00
003F7E00
001FFC00
000FF800
000FF000
00000000
00000000
00000000
7FFFFFFE
7FFFFFFE
7FFFFFFE
7FFFFFFE
7FFFFFFE
7FFFFFFC
000007FC
000007F8
00000FF0
00001FE0
00003FE0
00003FC0
00007F80
0000FF80
0000FF00
0001FE00
0003FC00
0007FC00
0007F800
000FF000
001FF000
001FE000
003FC000
007F8000
00FF8000
00FF0000
01FE0000
03FE0000
03FC0000
07F80000
0FF00000
1FF00000
1FE00000
3FC00000
7FFFFFFE
7FFFFFFE
FFFFFFFE
FFFFFFFE
FFFFFFFE
FFFFFFFE
ENDCHAR
STARTCHAR 017E
ENCODING 382
SWIDTH 468 0
DWIDTH 26 0
BBX 23 40 1 0
BITMAP
1F80FC
0FC1F8
07E3F0
03F7E0
03FFC0
01FF80
00FF00
000000
000000
000000
000000
7FFFFE
7FFFFE
7FFFFE
7FFFFE
7FFFFE
0001FC
0003F8
0007F8
0007F0
000FE0
001FC0
003FC0
003F80
007F00
00FF00
01FE00
01FC00
03F800
07F800
07F000
0FE000
1FC000
3FC000
3F8000
7FFFFE
7FFFFE
FFFFFE
FFFFFE
FFFFFE
ENDCHAR
STARTCHAR 017F
ENCODING 383
SWIDTH 306 0
DWIDTH 17 0
BBX 19 40 1 0
BITMAP
001FE0
007FE0
01FFE0
03FFE0
03FFE0
07FC00
07F000
07F000
0FF000
0FE000
0FE000
FFE000
FFE000
FFE000
FFE000
7FE000
0FE000
0FE000
0FE000
0FE000
0FE000
0FE000
0FE000
0FE000
0FE000
0FE000
0FE000
0FE000
0FE000
0FE000
0FE000
0FE000
0FE000
0FE000
0FE000
0FE000
0FE000
0FE000
0FE000
0FE000
ENDCHAR
STARTCHAR 0180
ENCODING 384
SWIDTH 576 0
DWIDTH 32 0
BBX 31 41 -1 0
BITMAP
0FE00000
0FE00000
0FE00000
0FE00000
0FE00000
FFFFC000
FFFFC000
FFFFC000
FFFFC000
0FE00000
0FE00000
0FE00000
0FE07E00
0FE3FFC0
0FE7FFE0
0FEFFFF0
0FFFFFF0
0FFE0FF8
0FF803F8
0FF003FC
0FF001FC
0FE001FC
0FE001FE
0FE000FE
0FE000FE
0FE000FE
0FE000FE
0FE000FE
0FE000FE
0FE001FE
0FE001FC
0FE001FC
0FE001FC
0FE003F8
0FF007F8
0FFC0FF0
0FFFFFF0
0FFFFFE0
0FEFFFC0
0FE7FF00
0FC1FC00
ENDCHAR
STARTCHAR 0181
ENCODING 385
SWIDTH 828 0
DWIDTH 46 0
BBX 43 40 1 0
BITMAP
00FFFFFF0000
07FFFFFFF000
1FFFFFFFFC00
3FFFFFFFFE00
7FFFFFFFFF00
7FFFFFFFFF00
FF07F003FF80
FE07F000FF80
FE07F0007F80
FC07F0003F80
FC07F0003FC0
FC07F0003F80
FE07F0003F80
FE07F0003F80
7807F0007F00
0007F000FF00
0007F003FE00
0007FFFFFC00
0007FFFFF000
0007FFFFF000
0007FFFFFC00
0007FFFFFF00
0007F001FF80
0007F0007FC0
0007F0003FC0
0007F0001FC0
0007F0001FE0
0007F0001FE0
0007F0001FE0
0007F0001FE0
0007F0001FC0
0007F0003FC0
0007F0007FC0
0007F001FF80
0007FFFFFF80
0007FFFFFF00
0007FFFFFE00
0007FFFFFC00
0007FFFFF000
0007FFFF8000
ENDCHAR
STARTCHAR 0182
ENCODING 386
SWIDTH 630 0
DWIDTH 35 0
BBX 28 40 5 0
BITMAP
FFFFFFE0
FFFFFFE0
FFFFFFE0
FFFFFFE0
FFFFFFE0
FFFFFFE0
FE000000
FE000000
FE000000
FE000000
FE000000
FE000000
FE000000
FE000000
FE000000
FE000000
FFFFE000
FFFFFC00
FFFFFF00
FFFFFF80
FFFFFFC0
FFFFFFE0
FE007FE0
FE001FF0
FE000FF0
FE0007F0
FE0007F0
FE0007F0
FE0007F0
FE0007F0
FE0007F0
FE000FF0
FE001FE0
FE007FE0
FFFFFFC0
FFFFFFC0
FFFFFF80
FFFFFE00
FFFFF800
FFFFC000
ENDCHAR
STARTCHAR 0183
ENCODING 387
SWIDTH 576 0
DWIDTH 32 0
BBX 27 41 3 0
BITMAP
FFFFFF00
FFFFFF00
FFFFFF00
FFFFFF00
FFFFFF00
FE000000
FE000000
FE000000
FE000000
FE000000
FE000000
FE000000
FE07E000
FE3FF800
FE7FFE00
FEFFFF00
FFFFFF00
FFE0FF80
FF803F80
FF003FC0
FE001FC0
FE001FC0
FE001FE0
FE000FE0
FE000FE0
FE000FE0
FE000FE0
FE000FE0
FE000FE0
FE001FE0
FE001FC0
FE001FC0
FE001FC0
FE003F80
FF007F80
FFC1FF00
FFFFFF00
FFFFFE00
FEFFFC00
FE7FF000
FC1FC000
ENDCHAR
STARTCHAR 0184
ENCODING 388
SWIDTH 702 0
DWIDTH 39 0
BBX 37 40 1 0
BITMAP
00FC000000
00FC000000
01FC000000
03FC000000
07FC000000
0FFC000000
1FFC000000
1FFC000000
3FFC000000
7FFC000000
FFFC000000
FFFC000000
3FFC000000
1FFC000000
07FFFFE000
03FFFFFC00
01FFFFFF00
01FFFFFF80
01FFFFFFC0
01FFFFFFE0
01FC007FF0
01FC001FF0
01FC000FF0
01FC0007F8
01FC0007F8
01FC0003F8
01FC0003F8
01FC0003F8
01FC0003F8
01FC0007F8
01FC0007F8
01FC000FF0
01FC001FF0
01FC007FF0
01FFFFFFE0
01FFFFFFC0
01FFFFFF80
01FFFFFF00
01FFFFFC00
01FFFFE000
ENDCHAR
STARTCHAR 0185
ENCODING 389
SWIDTH 594 0
DWIDTH 33 0
BBX 33 41 -2 0
BITMAP
00FC000000
01FC000000
03FC000000
07FC000000
07FC000000
0FFC000000
1FFC000000
3FFC000000
7FFC000000
FFFC000000
3FFC000000
1FFC000000
07FC1FC000
03FC7FF000
01FDFFF800
01FFFFFC00
01FFFFFE00
01FF83FE00
01FF00FF00
01FE007F00
01FC007F00
01FC007F80
01FC003F80
01FC003F80
01FC003F80
01FC003F80
01FC003F80
01FC003F80
01FC003F80
01FC003F80
01FC007F80
01FC007F00
01FC007F00
01FC00FF00
01FE01FE00
01FF03FE00
01FFFFFC00
01FFFFF800
01FBFFF000
01F9FFE000
01F07F0000
ENDCHAR
STARTCHAR 0186
ENCODING 390
SWIDTH 666 0
DWIDTH 37 0
BBX 34 40 1 0
BITMAP
007FE00000
03FFFC0000
0FFFFF0000
3FFFFFC000
FFFFFFE000
7FFFFFF000
3FC03FF800
3F000FFC00
1C0003FE00
000001FE00
000000FF00
000000FF00
0000007F80
0000007F80
0000003F80
0000003FC0
0000003FC0
0000003FC0
0000003FC0
0000003FC0
0000003FC0
0000003FC0
0000003FC0
0000003FC0
0000003FC0
0000003F80
0000007F80
0000007F80
000000FF80
000001FF00
100001FF00
3C0007FE00
7E000FFC00
FFC03FFC00
FFFFFFF800
7FFFFFF000
3FFFFFC000
0FFFFF8000
03FFFE0000
007FE00000
ENDCHAR
STARTCHAR 0187
ENCODING 391
SWIDTH 666 0
DWIDTH 37 0
BBX 43 50 2 0
BITMAP
000000007F80
00000001FFE0
00000003FFC0
00000007FFC0
00000007FFC0
0000000FFFC0
0000000FF000
0000000FE000
0000000FC000
0000000FC000
0001FF8FC000
000FFFFFC000
003FFFFFC000
00FFFFFFC000
01FFFFFFC000
03FFFFFF8000
07FF80FF8000
0FFC001F0000
1FF8000E0000
1FF000000000
3FE000000000
3FC000000000
7F8000000000
7F8000000000
7F8000000000
7F0000000000
FF0000000000
FF0000000000
FF0000000000
FF0000000000
FF0000000000
FF0000000000
FF0000000000
FF0000000000
7F0000000000
7F8000000000
7F8000000000
7F8000000000
3FC000000000
3FE000000000
1FF000020000
1FF800070000
0FFC001F8000
07FF807FC000
03FFFFFFC000
01FFFFFF8000
00FFFFFF0000
007FFFFC0000
000FFFF00000
0001FF800000
ENDCHAR
STARTCHAR 0188
ENCODING 392
SWIDTH 486 0
DWIDTH 27 0
BBX 31 40 2 0
BITMAP
000001F8
000007FE
00000FFE
00001FFE
00001FFC
00003F80
00003F00
00003F00
00003F00
00003F00
00003F00
003FFF00
01FFFF00
07FFFF00
0FFFFF00
1FFFFE00
3FF07E00
3FC01C00
7F800000
7F000000
7F000000
FE000000
FE000000
FE000000
FE000000
FE000000
FE000000
FE000000
FE000000
FE000000
7F000000
7F000000
7F800800
3FC01E00
3FE07E00
1FFFFF00
0FFFFE00
07FFFC00
01FFF000
007F8000
ENDCHAR
STARTCHAR 0189
ENCODING 393
SWIDTH 774 0
DWIDTH 43 0
BBX 41 40 0 0
BITMAP
07FFFF800000
07FFFFF80000
07FFFFFE0000
07FFFFFF8000
07FFFFFFC000
07FFFFFFE000
07F800FFF000
07F8001FF800
07F8000FFC00
07F80003FC00
07F80003FE00
07F80001FE00
07F80000FF00
07F80000FF00
07F80000FF00
07F800007F80
07F800007F80
07F800007F80
FFFFF0007F80
FFFFF0007F80
FFFFF0007F80
FFFFF0007F80
07F800007F80
07F800007F80
07F800007F80
07F80000FF00
07F80000FF00
07F80000FF00
07F80001FE00
07F80003FE00
07F80003FC00
07F8000FFC00
07F8001FF800
07F800FFF000
07FFFFFFE000
07FFFFFFC000
07FFFFFF8000
07FFFFFE0000
07FFFFF80000
07FFFF800000
ENDCHAR
STARTCHAR 018A
ENCODING 394
SWIDTH 936 0
DWIDTH 52 0
BBX 49 40 1 0
BITMAP
00FFFFFF800000
07FFFFFFF80000
1FFFFFFFFE0000
3FFFFFFFFF0000
3FFFFFFFFFC000
7FF7FFFFFFE000
7F07F000FFF000
FE07F0001FF800
FE07F0000FF800
FC07F00007FC00
FC07F00003FC00
FC07F00001FE00
FE07F00001FE00
FE07F00000FF00
7C07F00000FF00
4007F00000FF00
0007F000007F00
0007F000007F00
0007F000007F80
0007F000007F80
0007F000007F80
0007F000007F80
0007F000007F00
0007F000007F00
0007F00000FF00
0007F00000FF00
0007F00000FF00
0007F00001FE00
0007F00001FE00
0007F00003FC00
0007F00007FC00
0007F0000FF800
0007F0001FF800
0007F000FFF000
0007FFFFFFE000
0007FFFFFFC000
0007FFFFFF0000
0007FFFFFE0000
0007FFFFF80000
0007FFFF800000
ENDCHAR
STARTCHAR 018B
ENCODING 395
SWIDTH 630 0
DWIDTH 35 0
BBX 29 40 2 0
BITMAP
7FFFFFF8
7FFFFFF8
7FFFFFF8
7FFFFFF8
7FFFFFF8
7FFFFFF8
000007F8
000007F8
000007F8
000007F8
000007F8
000007F8
000007F8
000007F8
000007F8
000007F8
007FFFF8
03FFFFF8
0FFFFFF8
1FFFFFF8
3FFFFFF8
7FFFFFF8
7FE007F8
FF8007F8
FF0007F8
FF0007F8
FE0007F8
FE0007F8
FE0007F8
FE0007F8
FF0007F8
FF0007F8
7F8007F8
7FE007F8
3FFFFFF8
1FFFFFF8
0FFFFFF8
07FFFFF8
01FFFFF8
003FFFF8
ENDCHAR
STARTCHAR 018C
ENCODING 396
SWIDTH 576 0
DWIDTH 32 0
BBX 26 41 2 0
BITMAP
3FFFFFC0
3FFFFFC0
3FFFFFC0
3FFFFFC0
3FFFFFC0
00001FC0
00001FC0
00001FC0
00001FC0
00001FC0
00001FC0
00001FC0
007F1FC0
03FFDFC0
07FFFFC0
0FFFFFC0
1FFFFFC0
3FE0FFC0
3FC03FC0
7F801FC0
7F001FC0
7F001FC0
FF001FC0
FE001FC0
FE001FC0
FE001FC0
FE001FC0
FE001FC0
FE001FC0
FE001FC0
FE001FC0
FF001FC0
7F001FC0
7F001FC0
7F807FC0
3FC0FFC0
3FFFFFC0
1FFFEFC0
0FFFCFC0
07FF8FC0
01FC07C0
ENDCHAR
STARTCHAR 018D
ENCODING 397
SWIDTH 540 0
DWIDTH 30 0
BBX 28 40 1 0
BITMAP
007FC000
01FFF800
07FFFC00
0FFFFF00
1FFFFF80
3FE0FF80
7F803FC0
7F001FE0
7F001FE0
FE000FE0
FE000FE0
FE000FF0
FE000FF0
FE000FF0
FE000FF0
FE000FE0
FE000FE0
7F000FE0
7F001FE0
7F801FC0
3FC03F80
1FE07F80
1FF0FF00
0FFFFC00
03FFF800
01FFE000
00FFF000
003FF800
000FFC00
0003FE00
0001FE00
00007F00
00007F00
00007F00
0FC07F00
0FFFFE00
1FFFFE00
1FFFFC00
1FFFF800
03FFC000
ENDCHAR
STARTCHAR 018E
ENCODING 398
SWIDTH 576 0
DWIDTH 32 0
BBX 26 40 2 0
BITMAP
FFFFFFC0
FFFFFFC0
FFFFFFC0
FFFFFFC0
FFFFFFC0
FFFFFFC0
00003FC0
00003FC0
00003FC0
00003FC0
00003FC0
00003FC0
00003FC0
00003FC0
00003FC0
00003FC0
00003FC0
0FFFFFC0
0FFFFFC0
0FFFFFC0
0FFFFFC0
0FFFFFC0
0FFFFFC0
00003FC0
00003FC0
00003FC0
00003FC0
00003FC0
00003FC0
00003FC0
00003FC0
00003FC0
00003FC0
00003FC0
FFFFFFC0
FFFFFFC0
FFFFFFC0
FFFFFFC0
FFFFFFC0
FFFFFFC0
ENDCHAR
STARTCHAR 018F
ENCODING 399
SWIDTH 738 0
DWIDTH 41 0
BBX 37 40 2 0
BITMAP
000FFC0000
00FFFF8000
03FFFFE000
0FFFFFF800
3FFFFFFC00
7FFFFFFE00
FFFFFFFF00
7FF007FF80
3F8001FFC0
1E00007FC0
0000003FE0
0000001FE0
0000001FF0
0000000FF0
0000000FF0
00000007F0
00000007F8
00000007F8
7FFFFFFFF8
FFFFFFFFF8
FFFFFFFFF8
FFFFFFFFF8
FFFFFFFFF8
FE000007F8
FE000007F8
FE00000FF0
FF00000FF0
7F00000FF0
7F00001FE0
7F80001FE0
3FC0003FC0
3FE0007FC0
1FF001FF80
1FFC07FF00
0FFFFFFF00
07FFFFFC00
03FFFFF800
00FFFFF000
003FFFC000
0007FC0000
ENDCHAR
STARTCHAR 0190
ENCODING 400
SWIDTH 594 0
DWIDTH 33 0
BBX 30 40 2 0
BITMAP
001FF800
00FFFF80
03FFFFE0
07FFFFF0
0FFFFFF8
1FFFFFF8
3FF80FF0
3FE001F0
7FC00000
7F800000
7F800000
7F800000
7F800000
3FC00000
3FE00000
1FF80000
0FFFFE00
03FFFE00
01FFFE00
07FFFE00
0FFFFE00
1FF80000
3FE00000
7FC00000
7F800000
7F000000
FF000000
FF000000
FF000000
FF000000
7F800070
7FC000F0
7FE001F8
3FF807FC
3FFFFFFC
1FFFFFF8
0FFFFFE0
03FFFFC0
00FFFF00
001FF000
ENDCHAR
STARTCHAR 0191
ENCODING 401
SWIDTH 576 0
DWIDTH 32 0
BBX 34 50 -4 -10
BITMAP
007FFFFFC0
007FFFFFC0
007FFFFFC0
007FFFFFC0
007FFFFFC0
007FFFFFC0
007F000000
007F000000
007F000000
007F000000
007F000000
007F000000
007F000000
007F000000
007F000000
007F000000
007F000000
007F000000
007FFFFE00
007FFFFE00
007FFFFE00
007FFFFE00
007FFFFE00
007FFFFE00
007F000000
007F000000
007F000000
007F000000
007F000000
007F000000
007F000000
007F000000
007F000000
007F000000
007F000000
007F000000
007F000000
007F000000
007F000000
00FF000000
00FF000000
00FF000000
00FF000000
01FE000000
7FFE000000
FFFE000000
FFFC000000
FFF8000000
FFF0000000
3FC0000000
ENDCHAR
STARTCHAR 0192
ENCODING 402
SWIDTH 360 0
DWIDTH 20 0
BBX 23 50 -4 -10
BITMAP
0000FE
0007FE
000FFE
001FFE
003FFE
003FC0
007F00
007F00
007F00
007F00
007F00
07FFFE
07FFFE
07FFFE
07FFFE
03FFFE
007F00
007F00
007F00
007F00
007F00
007F00
007F00
007F00
007F00
007F00
007F00
007F00
007F00
007F00
007F00
007F00
007F00
007F00
007F00
007F00
007F00
007F00
007F00
007F00
007F00
007F00
007E00
00FE00
01FE00
7FFC00
7FFC00
FFF800
FFE000
3F8000
ENDCHAR
STARTCHAR 0193
ENCODING 403
SWIDTH 738 0
DWIDTH 41 0
BBX 45 50 2 0
BITMAP
000000001FE0
000000007FF8
00000000FFF0
00000001FFF0
00000001FFF0
00000003FFF0
00000003FC00
00000003F800
00000003F000
00000003F000
0000FFC3F000
000FFFFFF000
003FFFFFF000
00FFFFFFF000
01FFFFFFF000
03FFFFFFF000
07FF807FE000
0FFC000FC000
1FF80003C000
1FF000000000
3FE000000000
3FC000000000
7F8000000000
7F8000000000
7F8000000000
FF0000000000
FF0000000000
FF0000000000
FF0000000000
FF0000000000
FF0003FFF000
FF0003FFF000
FF0003FFF000
FF0003FFF000
7F0001FFF000
7F800007F000
7F800007F000
7FC00007F000
3FC00007F000
3FE00007F000
1FF00007F000
1FF80007F000
0FFC0007F000
07FF803FF000
03FFFFFFF000
01FFFFFFF000
00FFFFFFE000
003FFFFF8000
000FFFFE0000
0000FFE00000
ENDCHAR
STARTCHAR 0194
ENCODING 404
SWIDTH 702 0
DWIDTH 39 0
BBX 41 40 -1 0
BITMAP
FF8000007F80
7F800000FF00
3FC00001FE00
3FE00001FE00
1FE00003FC00
0FF00007F800
0FF80007F000
07F8000FF000
03FC001FE000
03FE001FC000
01FE003FC000
00FF007F8000
007F807F0000
007F80FF0000
003FC1FE0000
001FE1FC0000
001FE3F80000
000FF7F80000
0007FFF00000
0003FFE00000
0003FFE00000
0001FFC00000
0000FF800000
0000FF800000
0001FFC00000
0003FFE00000
0007FFF00000
0007FFF00000
000FF7F80000
001FE3FC0000
003FC1FC0000
003FC1FE0000
007F80FF0000
00FF007F8000
01FF003F8000
01FFFFFFC000
03FFFFFFE000
07FFFFFFF000
0FFFFFFFF000
1FFFFFFFF800
ENDCHAR
STARTCHAR 0195
ENCODING 405
SWIDTH 864 0
DWIDTH 48 0
BBX 42 41 3 0
BITMAP
FE0000000000
FE0000000000
FE0000000000
FE0000000000
FE0000000000
FE0000000000
FE0000000000
FE0000000000
FE0000000000
FE0000000000
FE0000000000
FE0000000000
FE0FE0001FC0
FE3FF8001FC0
FEFFFC001FC0
FFFFFE001FC0
FFFFFF001FC0
FFE0FF001FC0
FF807F801FC0
FF003F801FC0
FE003F801FC0
FE003F801FC0
FE001F801FC0
FE001F801FC0
FE001F801FC0
FE001F801FC0
FE001F801FC0
FE001F801FC0
FE001F801FC0
FE001F801FC0
FE001F801FC0
FE001F801FC0
FE001FC03F80
FE001FC03F80
FE001FE03F80
FE000FF0FF80
FE000FFFFF00
FE0007FFFE00
FE0003FFFC00
FE0001FFF800
FE00003FC000
ENDCHAR
STARTCHAR 0196
ENCODING 406
SWIDTH 342 0
DWIDTH 19 0
BBX 14 40 4 0
BITMAP
FF00
FF00
FF00
FF00
FF00
FF00
FF00
FF00
FF00
FF00
FF00
FF00
FF00
FF00
FF00
FF00
FF00
FF00
FF00
FF00
FF00
FF00
FF00
FF00
FF00
FF00
FF00
FF00
FF00
FF00
FF00
FF00
FF00
7F80
7FFC
7FFC
3FFC
3FFC
1FFC
07F0
ENDCHAR
STARTCHAR 0197
ENCODING 407
SWIDTH 324 0
DWIDTH 18 0
BBX 18 40 0 0
BITMAP
07F800
07F800
07F800
07F800
07F800
07F800
07F800
07F800
07F800
07F800
07F800
07F800
07F800
07F800
07F800
07F800
07F800
FFFFC0
FFFFC0
FFFFC0
FFFFC0
FFFFC0
07F800
07F800
07F800
07F800
07F800
07F800
07F800
07F800
07F800
07F800
07F800
07F800
07F800
07F800
07F800
07F800
07F800
07F800
ENDCHAR
STARTCHAR 0198
ENCODING 408
SWIDTH 720 0
DWIDTH 40 0
BBX 34 40 5 0
BITMAP
FE00007FC0
FE0003FFC0
FE0007FFC0
FE000FFFC0
FE001FFFC0
FE003FE000
FE003FC000
FE007F8000
FE00FF0000
FE00FF0000
FE01FE0000
FE01FE0000
FE03FC0000
FE07F80000
FE07F80000
FE0FF00000
FE1FE00000
FFFFE00000
FFFF800000
FFFFC00000
FFFFE00000
FFFFF00000
FE0FF80000
FE07FC0000
FE03FC0000
FE03FE0000
FE01FF0000
FE00FF8000
FE007F8000
FE007FC000
FE003FE000
FE001FF000
FE000FF000
FE000FF800
FE0007FC00
FE0003FE00
FE0001FE00
FE0001FF00
FE0000FF80
FE00007FC0
ENDCHAR
STARTCHAR 0199
ENCODING 409
SWIDTH 540 0
DWIDTH 30 0
BBX 27 40 3 0
BITMAP
01FC0000
07FF0000
1FFF0000
3FFF0000
3FFE0000
7F800000
7F000000
7F000000
7E000000
FE000000
FE000000
FE003FC0
FE007F80
FE007F00
FE00FF00
FE01FE00
FE03FC00
FE07F800
FE07F000
FE0FE000
FE1FE000
FE3FC000
FFFF8000
FFFF0000
FFFF0000
FFFF8000
FFFFC000
FE1FC000
FE1FE000
FE0FF000
FE07F000
FE07F800
FE03FC00
FE01FC00
FE01FE00
FE00FF00
FE007F80
FE007F80
FE003FC0
FE001FE0
ENDCHAR
STARTCHAR 019A
ENCODING 410
SWIDTH 288 0
DWIDTH 16 0
BBX 14 41 1 0
BITMAP
1FC0
1FC0
1FC0
1FC0
1FC0
1FC0
1FC0
1FC0
1FC0
1FC0
1FC0
1FC0
1FC0
1FC0
1FC0
1FC0
1FC0
1FC0
FFFC
FFFC
FFFC
FFFC
FFFC
1FC0
1FC0
1FC0
1FC0
1FC0
1FC0
1FC0
1FC0
1FC0
1FC0
1FC0
1FC0
1FC0
1FC0
1FC0
1FC0
1FC0
1FC0
ENDCHAR
STARTCHAR 019B
ENCODING 411
SWIDTH 540 0
DWIDTH 30 0
BBX 29 40 0 0
BITMAP
1F800000
3FE00000
3FF00000
3FF80000
3FF80000
01FC0000
00FC7000
00FFF800
00FFF800
00FFF800
03FFC000
0FFF0000
0FFF0000
0FFF8000
061F8000
001FC000
003FC000
003FC000
007FE000
007FE000
007FE000
00FFF000
00FFF000
01FBF800
01F9F800
03F9F800
03F1FC00
07F0FC00
07F0FC00
07E0FE00
0FE07E00
0FE07F00
1FC03F00
1FC03F00
3F803F80
3F801FF8
7F801FF8
7F000FF8
7F0007F8
FE0001F8
ENDCHAR
STARTCHAR 019C
ENCODING 412
SWIDTH 1098 0
DWIDTH 61 0
BBX 53 40 4 0
BITMAP
FF0001FC0007F8
FF0001FC0007F8
FF0001FC0007F8
FF0001FC0007F8
FF0001FC0007F8
FF0001FC0007F8
FF0001FC0007F8
FF0001FC0007F8
FF0001FC0007F8
FF0001FC0007F8
FF0001FC0007F8
FF0001FC0007F8
FF0001FC0007F8
FF0001FC0007F8
FF0001FC0007F8
FF0001FC0007F8
FF0001FC0007F8
FF0001FC0007F8
FF0001FC0007F8
FF0001FC0007F8
FF0001FC0007F8
FF0001FC0007F8
FF0001FC0007F8
FF0001FC0007F8
FF0001FC0007F8
FF0001FC0007F8
FF0001FC0007F8
FF0003FC0007F8
FF0003FC0007F8
FF0003FE000FF8
7F8003FE000FF8
7F8007FE001FF8
7FC007FF003FF8
3FE00FFF807FF8
3FF03FFFC1FFF8
1FFFFF3FFFFBF8
0FFFFE1FFFF3F8
07FFFC0FFFE3F8
03FFF007FF83F8
007F8000FE01F8
ENDCHAR
STARTCHAR 019D
ENCODING 413
SWIDTH 774 0
DWIDTH 43 0
BBX 43 51 -4 -11
BITMAP
007C00000FE0
007E00000FE0
007F00000FE0
007F80000FE0
007FC0000FE0
007FC0000FE0
007FE0000FE0
007FF0000FE0
007FF8000FE0
007FF8000FE0
007FFC000FE0
007FFE000FE0
007FFF000FE0
007EFF800FE0
007E7F800FE0
007E3FC00FE0
007E3FE00FE0
007E1FF00FE0
007E0FF80FE0
007E07F80FE0
007E03FC0FE0
007E03FE0FE0
007E01FF0FE0
007E00FF0FE0
007E007F8FE0
007E003FCFE0
007E003FEFE0
007E001FFFE0
007E000FFFE0
007E0007FFE0
007E0003FFE0
007E0003FFE0
007E0001FFE0
007E0000FFE0
007E00007FE0
007E00003FE0
007E00003FE0
007E00001FE0
007E00000FE0
007E000007E0
00FE00000000
00FE00000000
00FE00000000
00FE00000000
01FE00000000
7FFC00000000
FFFC00000000
FFF800000000
FFF000000000
FFE000000000
7F8000000000
ENDCHAR
STARTCHAR 019E
ENCODING 414
SWIDTH 612 0
DWIDTH 34 0
BBX 30 38 1 -9
BITMAP
7C00FE00
FF03FF80
FF8FFFE0
FFDFFFF0
FFFFFFF0
1FFE0FF8
0FFC03F8
07F003F8
07F001FC
07F001FC
07F001FC
07F001FC
07F001FC
07F001FC
07F001FC
07F001FC
07F001FC
07F001FC
07F001FC
07F001FC
07F001FC
07F001FC
07F001FC
07F001FC
07F001FC
07F001FC
07F001FC
07F001FC
07F001FC
000001FC
000001FC
000001FC
000001FC
000001FC
000001FC
000001FC
000001FC
000001FC
ENDCHAR
STARTCHAR 019F
ENCODING 415
SWIDTH 810 0
DWIDTH 45 0
BBX 41 40 2 0
BITMAP
0000FFC00000
000FFFF80000
003FFFFE0000
00FFFFFF8000
01FFFFFFC000
03FFFFFFE000
07FF807FF000
0FFC001FF800
1FF80007FC00
1FF00003FC00
3FE00001FE00
3FC00001FE00
7F800000FF00
7F800000FF00
7F8000007F00
7F0000007F80
FF0000007F80
FFFFFFFFFF80
FFFFFFFFFF80
FFFFFFFFFF80
FFFFFFFFFF80
FFFFFFFFFF80
FF0000007F80
FF0000007F80
7F0000007F80
7F8000007F00
7F800000FF00
7F800000FF00
3FC00001FE00
3FE00003FE00
1FF00003FC00
1FF80007FC00
0FFC001FF800
07FF807FF000
03FFFFFFE000
01FFFFFFC000
00FFFFFF8000
003FFFFE0000
000FFFF80000
0000FFC00000
ENDCHAR
STARTCHAR 01A0
ENCODING 416
SWIDTH 864 0
DWIDTH 48 0
BBX 45 45 2 0
BITMAP
0000000001F8
0000000003F8
0000000007F8
0000000007F8
0000000003F8
0000FFC003F8
000FFFF803F8
003FFFFE01F8
00FFFFFF83F0
01FFFFFFC3F0
03FFFFFFEFE0
07FF80FFFFC0
0FFC001FFF80
1FF80007FE00
1FE00003FC00
3FE00001FE00
3FC00001FE00
7F800000FF00
7F800000FF00
7F8000007F00
7F0000007F80
FF0000007F80
FF0000007F80
FF0000007F80
FF0000007F80
FF0000007F80
FF0000007F80
FF0000007F80
FF0000007F80
7F0000007F80
7F8000007F00
7F800000FF00
7F800000FF00
3FC00001FE00
3FE00001FE00
1FE00003FC00
1FF80007FC00
0FFC001FF800
07FF807FF000
03FFFFFFE000
01FFFFFFC000
00FFFFFF8000
003FFFFE0000
000FFFF80000
0000FFC00000
ENDCHAR
STARTCHAR 01A1
ENCODING 417
SWIDTH 630 0
DWIDTH 35 0
BBX 34 34 2 0
BITMAP
00000003C0
0000001FC0
0000001FC0
0000001FC0
0000001FC0
003FC01FC0
01FFF80FC0
07FFFE0F80
0FFFFF0F80
1FFFFFBF00
3FE07FFE00
3FC01FFC00
7F801FF000
7F000FE000
7F000FF000
FE0007F000
FE0007F000
FE0007F000
FE0007F000
FE0007F000
FE0007F000
FE0007F000
FE0007F000
FE0007F000
7F000FF000
7F000FE000
7F801FE000
3FC01FC000
3FE07FC000
1FFFFF8000
0FFFFF0000
07FFFE0000
01FFF80000
003FC00000
ENDCHAR
STARTCHAR 01A2
ENCODING 418
SWIDTH 1044 0
DWIDTH 58 0
BBX 51 49 2 -9
BITMAP
0001FF0003F800
001FFFE01FFE00
007FFFF83FFF00
00FFFFFEFFFF80
03FFFFFFFFFFC0
07FFFFFFFFFFC0
07FF01FFF83FE0
0FFC007FF01FE0
1FF0003FE01FE0
1FE0001FF00FE0
3FC0000FF00FE0
3FC00007F80FE0
7F800007F80FE0
7F800003FC0FE0
7F800003FC0FE0
7F000003FC0FE0
FF000001FC0FE0
FF000001FC0FE0
FF000001FC0FE0
FF000001FC0FE0
FF000001FC0FE0
FF000001FC0FE0
FF000001FC0FE0
FF000003FC0FE0
7F000003FC0FE0
7F800003FC0FE0
7F800003FC0FE0
7F800007F80FE0
3FC00007F80FE0
3FC0000FF80FE0
1FE0001FF00FE0
1FF0003FF00FE0
0FFC007FE00FE0
07FF01FFC00FE0
07FFFFFF800FE0
03FFFFFF000FE0
00FFFFFE000FE0
007FFFF8000FE0
001FFFE0000FE0
0001FF00000FE0
00000000000FE0
00000000000FE0
00000000000FE0
00000000000FE0
00000000000FE0
00000000000FE0
00000000000FE0
00000000000FE0
00000000000FE0
ENDCHAR
STARTCHAR 01A3
ENCODING 419
SWIDTH 828 0
DWIDTH 46 0
BBX 41 38 2 -9
BITMAP
003FC00FE000
01FFF83FF800
07FFFE7FFC00
0FFFFFFFFE00
1FFFFFFFFE00
3FE07FF0FF00
3FC03FE07F00
7F801FE07F00
7F000FE03F00
7F000FE03F80
FE000FE03F80
FE000FE03F80
FE000FE03F80
FE000FE03F80
FE000FE03F80
FE000FE03F80
FE000FE03F80
FE000FE03F80
FE000FE03F80
7F000FC03F80
7F001FC03F80
7F801FC03F80
3FC03FC03F80
3FE07F803F80
1FFFFF003F80
0FFFFF003F80
07FFFC003F80
01FFF8003F80
003FC0003F80
000000003F80
000000003F80
000000003F80
000000003F80
000000003F80
000000003F80
000000003F80
000000003F80
000000003F80
ENDCHAR
STARTCHAR 01A4
ENCODING 420
SWIDTH 792 0
DWIDTH 44 0
BBX 42 40 1 0
BITMAP
00FFFFFE0000
07FFFFFFC000
1FFFFFFFF000
3FFFFFFFFC00
3FFFFFFFFE00
7FFFFFFFFE00
7F07F003FF00
FE07F000FF80
FE07F0007F80
FC07F0007F80
FC07F0003F80
FC07F0003F80
FE07F0003FC0
FE07F0003FC0
7C07F0003F80
4007F0003F80
0007F0007F80
0007F000FF80
0007F001FF00
0007F007FF00
0007FFFFFE00
0007FFFFFC00
0007FFFFF800
0007FFFFF000
0007FFFFC000
0007FFFE0000
0007F0000000
0007F0000000
0007F0000000
0007F0000000
0007F0000000
0007F0000000
0007F0000000
0007F0000000
0007F0000000
0007F0000000
0007F0000000
0007F0000000
0007F0000000
0007F0000000
ENDCHAR
STARTCHAR 01A5
ENCODING 421
SWIDTH 576 0
DWIDTH 32 0
BBX 27 49 3 -9
BITMAP
01FC0000
07FF0000
1FFF0000
3FFF0000
3FFE0000
7F800000
7F000000
7F000000
7E000000
FE000000
FE000000
FE07E000
FE3FF800
FE7FFE00
FEFFFF00
FFFFFF00
FFE0FF80
FF803F80
FF003FC0
FE001FC0
FE001FC0
FE001FE0
FE000FE0
FE000FE0
FE000FE0
FE000FE0
FE000FE0
FE000FE0
FE001FE0
FE001FC0
FE001FC0
FE001FC0
FE003F80
FF007F80
FFC1FF00
FFFFFF00
FFFFFE00
FEFFFC00
FE7FF000
FE1FC000
FE000000
FE000000
FE000000
FE000000
FE000000
FE000000
FE000000
FE000000
FE000000
ENDCHAR
STARTCHAR 01A6
ENCODING 422
SWIDTH 612 0
DWIDTH 34 0
BBX 31 45 5 -5
BITMAP
FE000000
FE000000
FE000000
FE000000
FE000000
FFFF8000
FFFFF800
FFFFFE00
FFFFFF00
FFFFFF80
FFFFFFC0
FE00FFC0
FE003FE0
FE001FE0
FE001FE0
FE000FE0
FE000FE0
FE000FE0
FE000FE0
FE000FE0
FE000FE0
FE001FE0
FE003FC0
FE007FC0
FE01FF80
FFFFFF00
FFFFFE00
FFFFF800
FFFFE000
FFFFF000
FE0FF800
FE07F800
FE03FC00
FE03FE00
FE01FE00
FE00FF00
FE00FF80
FE007FC0
FE003FC0
FE001FE0
00001FF0
00000FF0
000007F8
000007FC
000003FE
ENDCHAR
STARTCHAR 01A7
ENCODING 423
SWIDTH 540 0
DWIDTH 30 0
BBX 27 40 2 0
BITMAP
00FF8000
07FFF000
1FFFF800
3FFFFE00
7FFFFF00
3FFFFF00
3F81FF80
1E007F80
08003FC0
00003FC0
00003FC0
00003FC0
00003FC0
00007FC0
0000FF80
0001FF80
000FFF80
007FFF00
01FFFE00
07FFFC00
1FFFF000
3FFFC000
7FFE0000
7FF00000
FFC00000
FF800000
FF000000
FE000000
FE000000
FE000000
FE000100
FF000780
FF801FC0
7FC07FC0
7FFFFFE0
3FFFFFC0
1FFFFF80
0FFFFE00
03FFF800
007FC000
ENDCHAR
STARTCHAR 01A8
ENCODING 424
SWIDTH 450 0
DWIDTH 25 0
BBX 21 29 2 0
BITMAP
03FC00
1FFF80
3FFFC0
FFFFE0
7FFFF0
3E0FF0
3003F0
0003F8
0003F8
0007F0
000FF0
003FF0
01FFE0
07FFC0
1FFF00
3FFC00
7FF000
FF8000
FE0000
FC0000
FC0000
FC0000
FE00E0
FF03F0
FFFFF0
7FFFF8
3FFFF0
0FFFC0
03FE00
ENDCHAR
STARTCHAR 01A9
ENCODING 425
SWIDTH 612 0
DWIDTH 34 0
BBX 30 40 2 0
BITMAP
FFFFFFFC
FFFFFFFC
FFFFFFFC
FFFFFFFC
FFFFFFFC
7FFFFFFC
7F800000
3FE00000
1FF00000
0FF80000
07FC0000
03FC0000
01FE0000
01FF0000
00FF8000
007FC000
003FC000
001FE000
000FF000
0007F000
0007F000
0007F000
000FE000
001FC000
003FC000
007F8000
00FF0000
01FE0000
03FC0000
07F80000
07F80000
0FF00000
1FE00000
3FC00000
7F800000
FFFFFFFC
FFFFFFFC
FFFFFFFC
FFFFFFFC
FFFFFFFC
ENDCHAR
STARTCHAR 01AA
ENCODING 426
SWIDTH 360 0
DWIDTH 20 0
BBX 28 53 -3 -10
BITMAP
03F80000
0FFE0000
3FFF8000
3FFF8000
7FFFC000
FF1FE000
FE0FE000
FC0FE000
FC0FE000
FC0FE000
FE0FE000
FF1FE000
7FFFE000
7FFFE000
3FFFE000
1FFFE000
07FFE000
000FE000
000FE000
000FE000
000FE000
000FE000
000FE000
000FE000
000FE000
000FE000
000FE000
000FE000
000FE000
000FE000
000FE000
000FE000
000FE000
000FE000
000FE000
000FE000
000FE000
000FE000
000FE000
000FE000
000FE000
000FE000
000FE000
000FE000
0007E000
0007F000
0007F000
0007F800
0003FFE0
0001FFF0
0001FFF0
00007FF0
00001FC0
ENDCHAR
STARTCHAR 01AB
ENCODING 427
SWIDTH 378 0
DWIDTH 21 0
BBX 20 48 1 -10
BITMAP
00E000
03E000
03E000
03E000
07E000
07E000
07E000
07E000
07E000
3FFFE0
FFFFE0
FFFFE0
FFFFE0
FFFFE0
0FE000
0FE000
0FE000
0FE000
0FE000
0FE000
0FE000
0FE000
0FE000
0FE000
0FE000
0FE000
0FE000
0FE000
0FE000
0FE000
0FE000
0FF0F0
07FFF0
07FFF0
07FFF0
03FFF0
01FFF0
007FF0
0003F0
0003F0
0007E0
0007E0
000FE0
01FFE0
01FFC0
01FF80
03FF00
00FC00
ENDCHAR
STARTCHAR 01AC
ENCODING 428
SWIDTH 684 0
DWIDTH 38 0
BBX 36 40 1 0
BITMAP
00FFFFFFF0
07FFFFFFF0
0FFFFFFFF0
3FFFFFFFF0
3FFFFFFFF0
7FFFFFFFF0
7F807F0000
FE007F0000
FE007F0000
FC007F0000
FC007F0000
FE007F0000
FE007F0000
FE007F0000
7C007F0000
40007F0000
00007F0000
00007F0000
00007F0000
00007F0000
00007F0000
00007F0000
00007F0000
00007F0000
00007F0000
00007F0000
00007F0000
00007F0000
00007F0000
00007F0000
00007F0000
00007F0000
00007F0000
00007F0000
00007F0000
00007F0000
00007F0000
00007F0000
00007F0000
00007F0000
ENDCHAR
STARTCHAR 01AD
ENCODING 429
SWIDTH 378 0
DWIDTH 21 0
BBX 20 40 1 0
BITMAP
003F80
00FFC0
01FFC0
01FFC0
03FFC0
03F000
03E000
07E000
07E000
07E000
07E000
3FFFE0
FFFFE0
FFFFE0
FFFFE0
FFFFE0
0FE000
0FE000
0FE000
0FE000
0FE000
0FE000
0FE000
0FE000
0FE000
0FE000
0FE000
0FE000
0FE000
0FE000
0FE000
0FE000
0FE000
0FE000
0FF180
07FFC0
07FFE0
03FFF0
01FFC0
007F00
ENDCHAR
STARTCHAR 01AE
ENCODING 430
SWIDTH 612 0
DWIDTH 34 0
BBX 32 51 1 -11
BITMAP
FFFFFFFF
FFFFFFFF
FFFFFFFF
FFFFFFFF
FFFFFFFF
FFFFFFFF
000FF000
000FF000
000FF000
000FF000
000FF000
000FF000
000FF000
000FF000
000FF000
000FF000
000FF000
000FF000
000FF000
000FF000
000FF000
000FF000
000FF000
000FF000
000FF000
000FF000
000FF000
000FF000
000FF000
000FF000
000FF000
000FF000
000FF000
000FF000
000FF000
000FF000
000FF000
000FF000
000FF000
000FF000
000FF000
000FF000
000FF000
000FF000
0007F000
0007FC00
0007FFE0
0003FFF0
0001FFF0
0000FFF0
00001FE0
ENDCHAR
STARTCHAR 01AF
ENCODING 431
SWIDTH 882 0
DWIDTH 49 0
BBX 45 45 4 0
BITMAP
0000000001F8
0000000003F8
0000000007F8
0000000007F8
0000000003F8
FF00003FC3F8
FF00003FC1F8
FF00003FC3F0
FF00003FC3F0
FF00003FC7E0
FF00003FFFC0
FF00003FFF00
FF00003FFC00
FF00003FC000
FF00003FC000
FF00003FC000
FF00003FC000
FF00003FC000
FF00003FC000
FF00003FC000
FF00003FC000
FF00003FC000
FF00003FC000
FF00003FC000
FF00003FC000
FF00003FC000
FF00003FC000
FF00003FC000
FF00003FC000
FF00003FC000
FF00003F8000
FF00003F8000
FF00003F8000
7F00007F8000
7F80007F8000
7F8000FF0000
3FC001FF0000
3FE003FE0000
1FF80FFE0000
0FFFFFFC0000
07FFFFF80000
03FFFFF00000
01FFFFC00000
007FFF000000
000FF8000000
ENDCHAR
STARTCHAR 01B0
ENCODING 432
SWIDTH 666 0
DWIDTH 37 0
BBX 35 34 3 0
BITMAP
00000001E0
0000000FE0
0000000FE0
0000000FE0
0000000FE0
FE003F8FE0
FE003F87E0
FE003F87C0
FE003F8FC0
FE003F9F80
FE003FFF00
FE003FFE00
FE003FF000
FE003F8000
FE003F8000
FE003F8000
FE003F8000
FE003F8000
FE003F8000
FE003F8000
FE003F8000
FE003F8000
FE003F8000
FE003F8000
FE003F8000
FE003F8000
FF003F8000
7F00FF8000
7FC1FF8000
3FFFFF8000
3FFFFF8000
1FFF9F8000
0FFF1F8000
03FC0F8000
ENDCHAR
STARTCHAR 01B1
ENCODING 433
SWIDTH 828 0
DWIDTH 46 0
BBX 41 40 2 0
BITMAP
7FFFC0FFFF00
FFFFC0FFFF80
FFFFC0FFFF80
FFFFC0FFFF80
FFFFC0FFFF80
FFFFC0FFFF80
003FC0FF0000
00FFC0FF8000
01FFC0FFE000
03FE001FF000
07FC000FF800
0FF00007F800
0FF00003FC00
1FE00001FE00
3FC00001FE00
3FC00000FF00
3F800000FF00
7F8000007F00
7F8000007F00
7F8000007F80
7F0000007F80
7F0000007F80
7F0000007F80
7F0000007F80
7F8000007F80
7F8000007F00
3F8000007F00
3FC00000FF00
3FC00000FE00
1FE00001FE00
1FF00003FC00
0FF80007FC00
07FC001FF800
07FF807FF000
03FFFFFFE000
01FFFFFFC000
007FFFFF8000
003FFFFE0000
0007FFF80000
0000FFC00000
ENDCHAR
STARTCHAR 01B2
ENCODING 434
SWIDTH 738 0
DWIDTH 41 0
BBX 35 40 4 0
BITMAP
FF001FF000
FF001FFC00
FF001FFF00
FF001FFF00
FF001FFF80
FF000FFFC0
FF00003FC0
FF00001FC0
FF00001FE0
FF00001FE0
FF00001FE0
FF00001FE0
FF00001FE0
FF00001FE0
FF00001FE0
FF00001FE0
FF00001FE0
FF00001FC0
FF00001FC0
FF00003FC0
FF00003FC0
FF00003FC0
FF00003F80
FF00007F80
FF00007F00
FF0000FF00
FF0000FE00
FF0001FE00
FF0003FC00
FF0007FC00
7F000FF800
7F801FF000
7F803FE000
7FE0FFC000
3FFFFF8000
3FFFFF0000
1FFFFE0000
0FFFF80000
03FFE00000
00FF000000
ENDCHAR
STARTCHAR 01B3
ENCODING 435
SWIDTH 738 0
DWIDTH 41 0
BBX 41 40 0 0
BITMAP
FF000000FF00
FF800003FF80
7F80000FFF80
3FC0001FFF00
3FC0001FFF00
1FE0003FC000
1FE0007F8000
0FF0007F0000
07F800FE0000
07F800FE0000
03FC01FC0000
03FC03FC0000
01FE03F80000
00FE07F00000
00FF07F00000
007F0FE00000
007F9FE00000
003F9FC00000
001FDF800000
001FFF800000
000FFF000000
000FFF000000
0007FE000000
0003FE000000
0003FC000000
0003FC000000
0003FC000000
0003FC000000
0003FC000000
0003FC000000
0003FC000000
0003FC000000
0003FC000000
0003FC000000
0003FC000000
0003FC000000
0003FC000000
0003FC000000
0003FC000000
0003FC000000
ENDCHAR
STARTCHAR 01B4
ENCODING 436
SWIDTH 612 0
DWIDTH 34 0
BBX 34 38 0 -9
BITMAP
FF00003F80
7F0000FFC0
7F8003FF80
3F8003FF80
3F8007FF80
3FC007F000
1FC00FE000
1FE00FE000
0FE01FC000
0FE01FC000
07F01F8000
07F03F8000
03F83F0000
03F87F0000
03F87F0000
01FC7E0000
01FCFE0000
00FEFC0000
00FEFC0000
007FF80000
007FF80000
007FF00000
003FF00000
003FF00000
001FE00000
001FE00000
000FC00000
001FC00000
001F800000
003F800000
003F000000
003F000000
007F000000
007E000000
00FE000000
00FC000000
01FC000000
03F8000000
ENDCHAR
STARTCHAR 01B5
ENCODING 437
SWIDTH 612 0
DWIDTH 34 0
BBX 31 40 1 0
BITMAP
3FFFFFFE
3FFFFFFE
3FFFFFFE
3FFFFFFE
3FFFFFFE
3FFFFFFE
000007FC
000007F8
00000FF0
00001FF0
00001FE0
00003FC0
00007FC0
0000FF80
0000FF00
0001FE00
0003FE00
3FFFFFFC
3FFFFFFC
3FFFFFFC
3FFFFFFC
3FFFFFFC
003FC000
007F8000
00FF8000
00FF0000
01FE0000
03FE0000
07FC0000
07F80000
0FF00000
1FF00000
1FE00000
3FC00000
7FFFFFFE
7FFFFFFE
FFFFFFFE
FFFFFFFE
FFFFFFFE
FFFFFFFE
ENDCHAR
STARTCHAR 01B6
ENCODING 438
SWIDTH 468 0
DWIDTH 26 0
BBX 22 29 2 0
BITMAP
FFFFFC
FFFFFC
FFFFFC
FFFFFC
FFFFFC
0003F8
0007F8
0007F0
000FE0
001FC0
001FC0
003F80
FFFFF8
FFFFF8
FFFFF8
FFFFF8
FFFFF8
03F800
07F000
0FE000
1FC000
3FC000
3F8000
7F0000
FFFFFC
FFFFFC
FFFFFC
FFFFFC
FFFFFC
ENDCHAR
STARTCHAR 01B7
ENCODING 439
SWIDTH 594 0
DWIDTH 33 0
BBX 30 40 1 0
BITMAP
7FFFFFF8
7FFFFFF8
7FFFFFF8
7FFFFFF8
7FFFFFF0
7FFFFFF0
00003FE0
00007FC0
0000FF00
0001FE00
0003FC00
0007F800
000FF000
003FE000
007FC000
00FFF800
00FFFF00
00FFFFC0
00FFFFE0
00FFFFF0
0001FFF8
00001FF8
000007F8
000003FC
000003FC
000003FC
000003FC
000003FC
000003FC
000003FC
180007F8
3E000FF8
7F001FF0
FFC07FF0
7FFFFFE0
3FFFFFC0
1FFFFF80
0FFFFE00
03FFF800
007FC000
ENDCHAR
STARTCHAR 01B8
ENCODING 440
SWIDTH 594 0
DWIDTH 33 0
BBX 30 40 2 0
BITMAP
7FFFFFF8
7FFFFFF8
7FFFFFF8
7FFFFFF8
3FFFFFF8
1FFFFFF8
0FF00000
07F80000
03FC0000
01FE0000
00FF8000
007FC000
003FE000
001FF000
000FF800
007FFC00
03FFFC00
0FFFFC00
1FFFFC00
3FFFFC00
7FFE0000
7FE00000
7F800000
FF800000
FF000000
FF000000
FF000000
FF000000
FF000000
7F000000
7F800060
7FC001F0
3FE003F8
3FF80FFC
1FFFFFFC
0FFFFFF0
07FFFFE0
01FFFFC0
007FFF00
000FF800
ENDCHAR
STARTCHAR 01B9
ENCODING 441
SWIDTH 450 0
DWIDTH 25 0
BBX 24 39 2 -10
BITMAP
7FFFFC
7FFFFC
7FFFFC
7FFFFC
3FFFFC
3FC000
1FE000
0FE000
07F000
03F800
03FC00
01FE00
00FE00
007F00
003F80
007FC0
07FFC0
0FFFE0
1FFFE0
3FFFE0
7FC000
FF0000
FE0000
FE0000
FE0000
FE0000
FC0000
FC0000
FE0000
FE0000
FE0000
7F0000
7F801C
3FE07E
1FFFFE
0FFFFF
07FFFE
01FFF8
003FC0
ENDCHAR
STARTCHAR 01BA
ENCODING 442
SWIDTH 450 0
DWIDTH 25 0
BBX 22 39 1 -10
BITMAP
FFFFF8
FFFFF8
FFFFF8
FFFFF8
FFFFF8
0007F0
000FE0
001FC0
003F80
007F00
01FE00
03FF00
03FFC0
07FFF0
07FFF8
07FFF8
0003FC
0001FC
0001FC
0001FC
0001FC
0001FC
0003FC
001FF8
03FFF8
0FFFF0
3FFFE0
7FFFC0
7FFF00
FFF000
FE0000
FC0000
FC0000
FE0000
7FFC00
7FFC00
3FFC00
1FFE00
07F800
ENDCHAR
STARTCHAR 01BB
ENCODING 443
SWIDTH 594 0
DWIDTH 33 0
BBX 29 40 2 0
BITMAP
003FC000
01FFF800
03FFFE00
0FFFFF00
1FFFFF80
1FFFFF80
3FE07FC0
3F803FC0
7F001FE0
7F001FE0
7E000FE0
FE000FE0
00000FE0
00001FE0
00001FC0
00001FC0
00003F80
00007F80
7FFFFFF8
7FFFFFF8
7FFFFFF8
7FFFFFF8
7FFFFFF8
000FF000
001FE000
003FC000
007F8000
00FF0000
01FE0000
03FC0000
07F80000
0FF80000
1FF00000
3FE00000
7FDFFFE0
FFFFFFE0
FFFFFFF0
FFFFFFF0
FFFFFFF0
FFFFFFF0
ENDCHAR
STARTCHAR 01BC
ENCODING 444
SWIDTH 594 0
DWIDTH 33 0
BBX 30 40 1 0
BITMAP
3FFFFFF0
3FFFFFF0
3FFFFFF0
3FFFFFF0
3FFFFFF0
0FFFFFE0
01FC0000
01FC0000
03F80000
03F80000
03F00000
07F00000
07F00000
07FFF000
0FFFFE00
0FFFFF00
0FFFFFC0
1FFFFFE0
1FFFFFE0
07C07FF0
00000FF8
000007F8
000007F8
000003F8
000003F8
000003FC
000003FC
000003F8
000003F8
000007F8
180007F8
3E000FF0
7F001FF0
FFC07FE0
7FFFFFE0
3FFFFFC0
1FFFFF80
0FFFFE00
03FFF800
003FE000
ENDCHAR
STARTCHAR 01BD
ENCODING 445
SWIDTH 450 0
DWIDTH 25 0
BBX 22 29 1 0
BITMAP
7FFFFC
7FFFFC
7FFFFC
7FFFF8
3FFFF0
07E000
07E000
07E000
0FC000
0FC000
0FC000
1FFF00
1FFFE0
1FFFF0
3FFFF8
3FFFFC
0207FC
0001FC
0000FC
0000FC
0000FC
1000FC
3C01FC
FF03F8
7FFFF8
3FFFF0
1FFFE0
07FFC0
01FE00
ENDCHAR
STARTCHAR 01BE
ENCODING 446
SWIDTH 450 0
DWIDTH 25 0
BBX 22 38 1 0
BITMAP
00F800
00F800
00F800
01F800
01F800
01F800
01F800
01F800
01F800
1FFFF8
3FFFF8
3FFFF8
3FFFF8
3FFFF8
03F800
03F800
03F800
03FC00
01FE00
01FF80
00FFC0
007FF0
003FF8
000FF8
0007FC
0001FC
0001FC
0000FC
0000FC
0001FC
0001FC
7803FC
7F07F8
FFFFF8
7FFFF0
3FFFE0
0FFF80
01FE00
ENDCHAR
STARTCHAR 01BF
ENCODING 447
SWIDTH 576 0
DWIDTH 32 0
BBX 27 38 3 -9
BITMAP
FC07F000
FC3FFC00
FEFFFF00
FFFFFF80
FFFFFF80
FFE07FC0
FF803FC0
FF001FE0
FE001FE0
FE000FE0
FE000FE0
FE000FE0
FE000FE0
FE001FE0
FE001FC0
FE001FC0
FE003F80
FE003F80
FE007F00
FE00FF00
FE01FE00
FE07FC00
FE0FF800
FE3FF000
FEFFE000
FFFF8000
FFFF0000
FFFC0000
FFF00000
FFC00000
FE000000
FE000000
FE000000
FE000000
FE000000
FE000000
FE000000
FE000000
ENDCHAR
STARTCHAR 01C0
ENCODING 448
SWIDTH 216 0
DWIDTH 12 0
BBX 6 53 3 -9
BITMAP
FC
FC
FC
FC
FC
FC
FC
FC
FC
FC
FC
FC
FC
FC
FC
FC
FC
FC
FC
FC
FC
FC
FC
FC
FC
FC
FC
FC
FC
FC
FC
FC
FC
FC
FC
FC
FC
FC
FC
FC
FC
FC
FC
FC
FC
FC
FC
FC
FC
FC
FC
FC
FC
ENDCHAR
STARTCHAR 01C1
ENCODING 449
SWIDTH 522 0
DWIDTH 29 0
BBX 22 53 4 -9
BITMAP
F8007C
F8007C
F8007C
F8007C
F8007C
F8007C
F8007C
F8007C
F8007C
F8007C
F8007C
F8007C
F8007C
F8007C
F8007C
F8007C
F8007C
F8007C
F8007C
F8007C
F8007C
F8007C
F8007C
F8007C
F8007C
F8007C
F8007C
F8007C
F8007C
F8007C
F8007C
F8007C
F8007C
F8007C
F8007C
F8007C
F8007C
F8007C
F8007C
F8007C
F8007C
F8007C
F8007C
F8007C
F8007C
F8007C
F8007C
F8007C
F8007C
F8007C
F8007C
F8007C
F8007C
ENDCHAR
STARTCHAR 01C2
ENCODING 450
SWIDTH 540 0
DWIDTH 30 0
BBX 26 52 2 -11
BITMAP
003F8000
003F8000
003F8000
003F8000
003F8000
003F8000
003F8000
003F8000
003F8000
003F8000
003F8000
003F8000
003F8000
003F8000
003F8000
003F8000
003F8000
FFFFFFC0
FFFFFFC0
FFFFFFC0
FFFFFFC0
FFFFFFC0
003F8000
003F8000
003F8000
003F8000
003F8000
003F8000
003F8000
FFFFFFC0
FFFFFFC0
FFFFFFC0
FFFFFFC0
FFFFFFC0
003F8000
003F8000
003F8000
003F8000
003F8000
003F8000
003F8000
003F8000
003F8000
003F8000
003F8000
003F8000
003F8000
003F8000
003F8000
003F8000
003F8000
003F8000
ENDCHAR
STARTCHAR 01C3
ENCODING 451
SWIDTH 216 0
DWIDTH 12 0
BBX 8 40 2 0
BITMAP
7E
7E
7E
7E
7E
7E
7E
7E
7E
7E
7E
7E
7E
7E
7E
7E
7E
7E
7E
7E
7E
7E
7E
7E
3E
3E
00
00
00
00
00
00
3C
7E
FF
FF
FF
FF
7E
3C
ENDCHAR
STARTCHAR 01C4
ENCODING 452
SWIDTH 1386 0
DWIDTH 77 0
BBX 70 51 5 0
BITMAP
000000000007C00F80
000000000003F03F00
000000000001F87E00
000000000000FCFE00
0000000000007EFC00
0000000000003FF800
0000000000001FF000
0000000000001FE000
000000000000000000
000000000000000000
000000000000000000
FFFFF00000FFFFFFFC
FFFFFE0000FFFFFFFC
FFFFFFC000FFFFFFFC
FFFFFFE000FFFFFFFC
FFFFFFF800FFFFFFFC
FFFFFFFC00FFFFFFF8
FE001FFE0000000FF8
FE0007FE0000000FF0
FE0001FF0000001FE0
FE0000FF8000003FC0
FE00007F8000007FC0
FE00003FC000007F80
FE00003FC00000FF00
FE00001FE00001FF00
FE00001FE00001FE00
FE00001FE00003FC00
FE00001FE00007F800
FE00000FE0000FF800
FE00000FE0000FF000
FE00000FE0001FE000
FE00000FE0003FE000
FE00000FE0003FC000
FE00000FE0007F8000
FE00001FE000FF0000
FE00001FE001FF0000
FE00001FE001FE0000
FE00001FE003FC0000
FE00003FC007FC0000
FE00003FC007F80000
FE00007F800FF00000
FE0000FF801FE00000
FE0001FF003FE00000
FE0007FE003FC00000
FE001FFE007F800000
FFFFFFFC00FFFFFFFC
FFFFFFF800FFFFFFFC
FFFFFFE001FFFFFFFC
FFFFFFC001FFFFFFFC
FFFFFE0001FFFFFFFC
FFFFF00001FFFFFFFC
ENDCHAR
STARTCHAR 01C5
ENCODING 453
SWIDTH 1224 0
DWIDTH 68 0
BBX 62 40 5 0
BITMAP
FFFFF000003F01F8
FFFFFE00001F83F0
FFFFFFC0000FC7E0
FFFFFFE00007EFC0
FFFFFFF80007FF80
FFFFFFFC0003FF00
FE001FFE0001FE00
FE0007FE00000000
FE0001FF00000000
FE0000FF80000000
FE00007F80000000
FE00003FC0FFFFFC
FE00003FC0FFFFFC
FE00001FE0FFFFFC
FE00001FE0FFFFFC
FE00001FE0FFFFFC
FE00001FE00003F8
FE00000FE00007F0
FE00000FE0000FF0
FE00000FE0000FE0
FE00000FE0001FC0
FE00000FE0003F80
FE00000FE0007F80
FE00001FE0007F00
FE00001FE000FE00
FE00001FE001FE00
FE00001FE003FC00
FE00003FC003F800
FE00003FC007F000
FE00007F800FF000
FE0000FF800FE000
FE0001FF001FC000
FE0007FE003F8000
FE001FFE007F8000
FFFFFFFC007F0000
FFFFFFF800FFFFFC
FFFFFFE000FFFFFC
FFFFFFC001FFFFFC
FFFFFE0001FFFFFC
FFFFF00001FFFFFC
ENDCHAR
STARTCHAR 01C6
ENCODING 454
SWIDTH 1044 0
DWIDTH 58 0
BBX 55 41 2 0
BITMAP
00001FC0000000
00001FC01F80FC
00001FC00FC1F8
00001FC007E3F0
00001FC003F7E0
00001FC003FFC0
00001FC001FF80
00001FC000FF00
00001FC0000000
00001FC0000000
00001FC0000000
00001FC0000000
007F1FC07FFFFE
03FFDFC07FFFFE
07FFFFC07FFFFE
0FFFFFC07FFFFE
1FFFFFC07FFFFE
3FE0FFC00001FC
3FC03FC00003F8
7F801FC00007F8
7F001FC00007F0
7F001FC0000FE0
FF001FC0001FC0
FE001FC0003FC0
FE001FC0003F80
FE001FC0007F00
FE001FC000FF00
FE001FC001FE00
FE001FC001FC00
FE001FC003F800
FE001FC007F800
FF001FC007F000
7F001FC00FE000
7F001FC01FC000
7F807FC03FC000
3FC0FFC03F8000
3FFFFFC07FFFFE
1FFFEFC07FFFFE
0FFFCFC0FFFFFE
07FF8FC0FFFFFE
01FC07C0FFFFFE
ENDCHAR
STARTCHAR 01C7
ENCODING 455
SWIDTH 972 0
DWIDTH 54 0
BBX 45 40 5 0
BITMAP
FE00000007F8
FE00000007F8
FE00000007F8
FE00000007F8
FE00000007F8
FE00000007F8
FE00000007F8
FE00000007F8
FE00000007F8
FE00000007F8
FE00000007F8
FE00000007F8
FE00000007F8
FE00000007F8
FE00000007F8
FE00000007F8
FE00000007F8
FE00000007F8
FE00000007F8
FE00000007F8
FE00000007F8
FE00000007F8
FE00000007F8
FE00000007F8
FE00000007F8
FE00000007F8
FE00000007F8
FE00000007F8
FE00000007F8
FE00000007F8
FE00000007F0
FE0000000FF0
FE0000001FF0
FE0000003FE0
FFFFFE3FFFE0
FFFFFE3FFFC0
FFFFFE3FFF80
FFFFFE3FFF00
FFFFFE3FFE00
FFFFFE1FF000
ENDCHAR
STARTCHAR 01C8
ENCODING 456
SWIDTH 792 0
DWIDTH 44 0
BBX 37 51 5 -10
BITMAP
00000003C0
FE000007E0
FE00000FF0
FE00000FF0
FE00000FF8
FE00000FF0
FE00000FF0
FE000007E0
FE000003C0
FE00000000
FE00000000
FE00000000
FE000007F0
FE000007F0
FE000007F0
FE000007F0
FE000007F0
FE000007F0
FE000007F0
FE000007F0
FE000007F0
FE000007F0
FE000007F0
FE000007F0
FE000007F0
FE000007F0
FE000007F0
FE000007F0
FE000007F0
FE000007F0
FE000007F0
FE000007F0
FE000007F0
FE000007F0
FE000007F0
FFFFFE07F0
FFFFFE07F0
FFFFFE07F0
FFFFFE07F0
FFFFFE07F0
FFFFFE07F0
00000007F0
00000007F0
00000007E0
0000000FE0
0000001FE0
000001FFE0
000001FFC0
000001FF80
000001FF00
000001FC00
ENDCHAR
STARTCHAR 01C9
ENCODING 457
SWIDTH 522 0
DWIDTH 29 0
BBX 23 51 4 -10
BITMAP
FC00F0
FC01F8
FC03FC
FC03FC
FC03FE
FC03FC
FC03FC
FC01F8
FC00F0
FC0000
FC0000
FC0000
FC01FC
FC01FC
FC01FC
FC01FC
FC01FC
FC01FC
FC01FC
FC01FC
FC01FC
FC01FC
FC01FC
FC01FC
FC01FC
FC01FC
FC01FC
FC01FC
FC01FC
FC01FC
FC01FC
FC01FC
FC01FC
FC01FC
FC01FC
FC01FC
FC01FC
FC01FC
FC01FC
FC01FC
FC01FC
0001FC
0001FC
0001F8
0003F8
0007F8
007FF8
007FF0
007FE0
007FC0
007F00
ENDCHAR
STARTCHAR 01CA
ENCODING 458
SWIDTH 1206 0
DWIDTH 67 0
BBX 58 40 5 0
BITMAP
F800001FC0003FC0
FC00001FC0003FC0
FE00001FC0003FC0
FF00001FC0003FC0
FF80001FC0003FC0
FF80001FC0003FC0
FFC0001FC0003FC0
FFE0001FC0003FC0
FFF0001FC0003FC0
FFF0001FC0003FC0
FFF8001FC0003FC0
FFFC001FC0003FC0
FFFE001FC0003FC0
FDFF001FC0003FC0
FCFF001FC0003FC0
FC7F801FC0003FC0
FC7FC01FC0003FC0
FC3FE01FC0003FC0
FC1FF01FC0003FC0
FC0FF01FC0003FC0
FC07F81FC0003FC0
FC07FC1FC0003FC0
FC03FE1FC0003FC0
FC01FE1FC0003FC0
FC00FF1FC0003FC0
FC007F9FC0003FC0
FC007FDFC0003FC0
FC003FFFC0003FC0
FC001FFFC0003FC0
FC000FFFC0003FC0
FC0007FFC0003F80
FC0007FFC0007F80
FC0003FFC000FF80
FC0001FFC001FF00
FC0000FFC1FFFF00
FC00007FC1FFFE00
FC00007FC1FFFC00
FC00003FC1FFF800
FC00001FC1FFF000
FC00000FC0FF8000
ENDCHAR
STARTCHAR 01CB
ENCODING 459
SWIDTH 1026 0
DWIDTH 57 0
BBX 50 51 5 -10
BITMAP
00000000001E00
F800001FC03F00
FC00001FC07F80
FE00001FC07F80
FF00001FC07FC0
FF80001FC07F80
FF80001FC07F80
FFC0001FC03F00
FFE0001FC01E00
FFF0001FC00000
FFF0001FC00000
FFF8001FC00000
FFFC001FC03F80
FFFE001FC03F80
FDFF001FC03F80
FCFF001FC03F80
FC7F801FC03F80
FC7FC01FC03F80
FC3FE01FC03F80
FC1FF01FC03F80
FC0FF01FC03F80
FC07F81FC03F80
FC07FC1FC03F80
FC03FE1FC03F80
FC01FE1FC03F80
FC00FF1FC03F80
FC007F9FC03F80
FC007FDFC03F80
FC003FFFC03F80
FC001FFFC03F80
FC000FFFC03F80
FC0007FFC03F80
FC0007FFC03F80
FC0003FFC03F80
FC0001FFC03F80
FC0000FFC03F80
FC00007FC03F80
FC00007FC03F80
FC00003FC03F80
FC00001FC03F80
FC00000FC03F80
00000000003F80
00000000003F80
00000000003F00
00000000007F00
0000000000FF00
000000000FFF00
000000000FFE00
000000000FFC00
000000000FF800
000000000FE000
ENDCHAR
STARTCHAR 01CC
ENCODING 460
SWIDTH 828 0
DWIDTH 46 0
BBX 41 51 3 -10
BITMAP
000000003C00
000000007E00
00000000FF00
00000000FF00
00000000FF80
00000000FF00
00000000FF00
000000007E00
000000003C00
000000000000
000000000000
000000000000
FC1FE0007F00
FC7FF8007F00
FEFFFC007F00
FFFFFE007F00
FFFFFF007F00
FFE0FF007F00
FF807F807F00
FF003F807F00
FE003F807F00
FE003F807F00
FE001F807F00
FE001F807F00
FE001F807F00
FE001F807F00
FE001F807F00
FE001F807F00
FE001F807F00
FE001F807F00
FE001F807F00
FE001F807F00
FE001F807F00
FE001F807F00
FE001F807F00
FE001F807F00
FE001F807F00
FE001F807F00
FE001F807F00
FE001F807F00
FE001F807F00
000000007F00
000000007F00
000000007E00
00000000FE00
00000001FE00
0000001FFE00
0000001FFC00
0000001FF800
0000001FF000
0000001FC000
ENDCHAR
STARTCHAR 01CD
ENCODING 461
SWIDTH 702 0
DWIDTH 39 0
BBX 39 51 0 0
BITMAP
007C00F800
003F03F000
001F87E000
000FCFE000
0007EFC000
0003FF8000
0001FF0000
0001FE0000
0000000000
0000000000
0000000000
0001FF0000
0001FF0000
0001FF0000
0003FF8000
0003FF8000
0007FF8000
0007FFC000
0007EFC000
000FEFE000
000FEFE000
001FCFE000
001FC7F000
001FC7F000
003F83F800
003F83F800
007F83F800
007F01FC00
007F01FC00
00FE01FE00
00FE00FE00
01FE00FE00
01FC007F00
01FC007F00
03FC007F80
03F8003F80
07FFFFFF80
07FFFFFFC0
07FFFFFFC0
0FFFFFFFE0
0FFFFFFFE0
1FE0000FE0
1FE0000FF0
1FC00007F0
3FC00007F8
3F800007F8
7F800003F8
7F800003FC
7F000001FC
FF000001FE
FE000000FE
ENDCHAR
STARTCHAR 01CE
ENCODING 462
SWIDTH 504 0
DWIDTH 28 0
BBX 24 40 1 0
BITMAP
0FC07E
07E0FC
03F1F8
01FBF0
01FFE0
00FFC0
007F80
000000
000000
000000
000000
007F80
03FFE0
0FFFF8
1FFFFC
3FFFFE
1FC1FE
1F00FF
00007F
00007F
00003F
00003F
00003F
001FFF
01FFFF
07FFFF
1FFFFF
3FF03F
7F803F
7F003F
7E003F
FE003F
FE007F
FE00FF
7F83FF
7FFFFF
7FFFFF
3FFF1F
1FFE1F
07F01F
ENDCHAR
STARTCHAR 01CF
ENCODING 463
SWIDTH 306 0
DWIDTH 17 0
BBX 20 51 -2 0
BITMAP
F801F0
7E07E0
3F0FC0
1F9FC0
0FDF80
07FF00
03FE00
03FC00
000000
000000
000000
01FC00
01FC00
01FC00
01FC00
01FC00
01FC00
01FC00
01FC00
01FC00
01FC00
01FC00
01FC00
01FC00
01FC00
01FC00
01FC00
01FC00
01FC00
01FC00
01FC00
01FC00
01FC00
01FC00
01FC00
01FC00
01FC00
01FC00
01FC00
01FC00
01FC00
01FC00
01FC00
01FC00
01FC00
01FC00
01FC00
01FC00
01FC00
01FC00
01FC00
ENDCHAR
STARTCHAR 01D0
ENCODING 464
SWIDTH 252 0
DWIDTH 14 0
BBX 19 40 -2 0
BITMAP
FC07E0
7E0FC0
3F1F80
1FBF00
1FFE00
0FFC00
07F800
000000
000000
000000
000000
03F800
03F800
03F800
03F800
03F800
03F800
03F800
03F800
03F800
03F800
03F800
03F800
03F800
03F800
03F800
03F800
03F800
03F800
03F800
03F800
03F800
03F800
03F800
03F800
03F800
03F800
03F800
03F800
03F800
ENDCHAR
STARTCHAR 01D1
ENCODING 465
SWIDTH 810 0
DWIDTH 45 0
BBX 41 51 2 0
BITMAP
003E007C0000
001F81F80000
000FC3F00000
0007E7F00000
0003F7E00000
0001FFC00000
0000FF800000
0000FF000000
000000000000
000000000000
000000000000
0000FFC00000
000FFFF80000
003FFFFE0000
00FFFFFF8000
01FFFFFFC000
03FFFFFFE000
07FF80FFF000
0FFC001FF800
1FF80007FC00
1FE00003FC00
3FE00001FE00
3FC00001FE00
7F800000FF00
7F800000FF00
7F8000007F00
7F0000007F80
FF0000007F80
FF0000007F80
FF0000007F80
FF0000007F80
FF0000007F80
FF0000007F80
FF0000007F80
FF0000007F80
7F0000007F80
7F8000007F00
7F800000FF00
7F800000FF00
3FC00001FE00
3FE00001FE00
1FE00003FC00
1FF80007FC00
0FFC001FF800
07FF807FF000
03FFFFFFE000
01FFFFFFC000
00FFFFFF8000
003FFFFE0000
000FFFF80000
0000FFC00000
ENDCHAR
STARTCHAR 01D2
ENCODING 466
SWIDTH 576 0
DWIDTH 32 0
BBX 28 40 2 0
BITMAP
07E03F00
03F07E00
01F8FC00
00FDF800
00FFF000
007FE000
003FC000
00000000
00000000
00000000
00000000
003FC000
01FFF800
07FFFE00
0FFFFF00
1FFFFF80
3FE07FC0
3FC01FC0
7F801FE0
7F000FE0
7F000FF0
FE0007F0
FE0007F0
FE0007F0
FE0007F0
FE0007F0
FE0007F0
FE0007F0
FE0007F0
FE0007F0
7F000FF0
7F000FE0
7F801FE0
3FC01FC0
3FE07FC0
1FFFFF80
0FFFFF00
07FFFE00
01FFF800
003FC000
ENDCHAR
STARTCHAR 01D3
ENCODING 467
SWIDTH 756 0
DWIDTH 42 0
BBX 34 51 4 0
BITMAP
01F003E000
00FC0FC000
007E1F8000
003F3F8000
001FBF0000
000FFE0000
0007FC0000
0007F80000
0000000000
0000000000
0000000000
FF00003FC0
FF00003FC0
FF00003FC0
FF00003FC0
FF00003FC0
FF00003FC0
FF00003FC0
FF00003FC0
FF00003FC0
FF00003FC0
FF00003FC0
FF00003FC0
FF00003FC0
FF00003FC0
FF00003FC0
FF00003FC0
FF00003FC0
FF00003FC0
FF00003FC0
FF00003FC0
FF00003FC0
FF00003FC0
FF00003FC0
FF00003FC0
FF00003FC0
FF00003FC0
FF00003F80
FF00003F80
7F00007F80
7F80007F80
7F8000FF00
3FC001FF00
3FE003FE00
1FF80FFE00
0FFFFFFC00
07FFFFF800
03FFFFF000
01FFFFC000
007FFF8000
000FF80000
ENDCHAR
STARTCHAR 01D4
ENCODING 468
SWIDTH 576 0
DWIDTH 32 0
BBX 25 40 3 0
BITMAP
0FC07E00
07E0FC00
03F1F800
01FBF000
01FFE000
00FFC000
007F8000
00000000
00000000
00000000
00000000
FE003F80
FE003F80
FE003F80
FE003F80
FE003F80
FE003F80
FE003F80
FE003F80
FE003F80
FE003F80
FE003F80
FE003F80
FE003F80
FE003F80
FE003F80
FE003F80
FE003F80
FE003F80
FE003F80
FE003F80
FE003F80
FF003F80
7F00FF80
7FC1FF80
3FFFFF80
3FFFFF80
1FFF9F80
0FFF1F80
03FC0F80
ENDCHAR
STARTCHAR 01D5
ENCODING 469
SWIDTH 756 0
DWIDTH 42 0
BBX 34 56 4 0
BITMAP
007FFFC000
007FFFC000
007FFFC000
007FFFC000
0000000000
0000000000
0078078000
00FC0FC000
01FE0FE000
01FE0FE000
01FE0FE000
00FC0FC000
0078078000
0000000000
0000000000
0000000000
FF00003FC0
FF00003FC0
FF00003FC0
FF00003FC0
FF00003FC0
FF00003FC0
FF00003FC0
FF00003FC0
FF00003FC0
FF00003FC0
FF00003FC0
FF00003FC0
FF00003FC0
FF00003FC0
FF00003FC0
FF00003FC0
FF00003FC0
FF00003FC0
FF00003FC0
FF00003FC0
FF00003FC0
FF00003FC0
FF00003FC0
FF00003FC0
FF00003FC0
FF00003FC0
FF00003F80
FF00003F80
7F00007F80
7F80007F80
7F8000FF00
3FC001FF00
3FE003FE00
1FF80FFE00
0FFFFFFC00
07FFFFF800
03FFFFF000
01FFFFC000
007FFF8000
000FF80000
ENDCHAR
STARTCHAR 01D6
ENCODING 470
SWIDTH 576 0
DWIDTH 32 0
BBX 25 47 3 0
BITMAP
07FFFC00
07FFFC00
07FFFC00
07FFFC00
07FFFC00
00000000
00000000
03807800
07C0FC00
0FE1FC00
0FE1FE00
0FE1FE00
0FE1FC00
0FE0FC00
03807800
00000000
00000000
00000000
FE003F80
FE003F80
FE003F80
FE003F80
FE003F80
FE003F80
FE003F80
FE003F80
FE003F80
FE003F80
FE003F80
FE003F80
FE003F80
FE003F80
FE003F80
FE003F80
FE003F80
FE003F80
FE003F80
FE003F80
FE003F80
FF003F80
7F00FF80
7FC1FF80
3FFFFF80
3FFFFF80
1FFF9F80
0FFF1F80
03FC0F80
ENDCHAR
STARTCHAR 01D7
ENCODING 471
SWIDTH 756 0
DWIDTH 42 0
BBX 34 60 4 0
BITMAP
000003FC00
00000FF800
00001FF000
00003FE000
00007FC000
00007F8000
0000FE0000
0001FC0000
0003F80000
0000000000
0078078000
00FC0FC000
01FE0FE000
01FE0FE000
01FE0FE000
00FC0FC000
0078078000
0000000000
0000000000
0000000000
FF00003FC0
FF00003FC0
FF00003FC0
FF00003FC0
FF00003FC0
FF00003FC0
FF00003FC0
FF00003FC0
FF00003FC0
FF00003FC0
FF00003FC0
FF00003FC0
FF00003FC0
FF00003FC0
FF00003FC0
FF00003FC0
FF00003FC0
FF00003FC0
FF00003FC0
FF00003FC0
FF00003FC0
FF00003FC0
FF00003FC0
FF00003FC0
FF00003FC0
FF00003FC0
FF00003F80
FF00003F80
7F00007F80
7F80007F80
7F8000FF00
3FC001FF00
3FE003FE00
1FF80FFE00
0FFFFFFC00
07FFFFF800
03FFFFF000
01FFFFC000
007FFF8000
000FF80000
ENDCHAR
STARTCHAR 01D8
ENCODING 472
SWIDTH 576 0
DWIDTH 32 0
BBX 25 49 3 0
BITMAP
0001FF00
0003FC00
0003F800
0007F000
0007E000
000FE000
001FC000
001F0000
00000000
03807800
07C0FC00
0FE1FC00
0FE1FE00
0FE1FE00
0FE1FC00
0FE0FC00
03807800
00000000
00000000
00000000
FE003F80
FE003F80
FE003F80
FE003F80
FE003F80
FE003F80
FE003F80
FE003F80
FE003F80
FE003F80
FE003F80
FE003F80
FE003F80
FE003F80
FE003F80
FE003F80
FE003F80
FE003F80
FE003F80
FE003F80
FE003F80
FF003F80
7F00FF80
7FC1FF80
3FFFFF80
3FFFFF80
1FFF9F80
0FFF1F80
03FC0F80
ENDCHAR
STARTCHAR 01D9
ENCODING 473
SWIDTH 756 0
DWIDTH 42 0
BBX 34 59 4 0
BITMAP
01F003E000
00FC0FC000
007E1F8000
003F3F8000
001FBF0000
000FFE0000
0007FC0000
0007F80000
0000000000
0078078000
00FC0FC000
01FE0FE000
01FE0FE000
01FE0FE000
00FC0FC000
0078078000
0000000000
0000000000
0000000000
FF00003FC0
FF00003FC0
FF00003FC0
FF00003FC0
FF00003FC0
FF00003FC0
FF00003FC0
FF00003FC0
FF00003FC0
FF00003FC0
FF00003FC0
FF00003FC0
FF00003FC0
FF00003FC0
FF00003FC0
FF00003FC0
FF00003FC0
FF00003FC0
FF00003FC0
FF00003FC0
FF00003FC0
FF00003FC0
FF00003FC0
FF00003FC0
FF00003FC0
FF00003FC0
FF00003F80
FF00003F80
7F00007F80
7F80007F80
7F8000FF00
3FC001FF00
3FE003FE00
1FF80FFE00
0FFFFFFC00
07FFFFF800
03FFFFF000
01FFFFC000
007FFF8000
000FF80000
ENDCHAR
STARTCHAR 01DA
ENCODING 474
SWIDTH 576 0
DWIDTH 32 0
BBX 25 49 3 0
BITMAP
0FC07E00
07E0FC00
03F1F800
01FBF000
01FFE000
00FFC000
007F8000
003F0000
00000000
03807800
07C0FC00
0FE1FC00
0FE1FE00
0FE1FE00
0FE1FC00
0FE0FC00
03807800
00000000
00000000
00000000
FE003F80
FE003F80
FE003F80
FE003F80
FE003F80
FE003F80
FE003F80
FE003F80
FE003F80
FE003F80
FE003F80
FE003F80
FE003F80
FE003F80
FE003F80
FE003F80
FE003F80
FE003F80
FE003F80
FE003F80
FE003F80
FF003F80
7F00FF80
7FC1FF80
3FFFFF80
3FFFFF80
1FFF9F80
0FFF1F80
03FC0F80
ENDCHAR
STARTCHAR 01DB
ENCODING 475
SWIDTH 756 0
DWIDTH 42 0
BBX 34 60 4 0
BITMAP
0FF0000000
07FC000000
03FE000000
01FF000000
00FF000000
007F800000
001FC00000
000FE00000
0007F00000
0000000000
0078078000
00FC0FC000
01FE0FE000
01FE0FE000
01FE0FE000
00FC0FC000
0078078000
0000000000
0000000000
0000000000
FF00003FC0
FF00003FC0
FF00003FC0
FF00003FC0
FF00003FC0
FF00003FC0
FF00003FC0
FF00003FC0
FF00003FC0
FF00003FC0
FF00003FC0
FF00003FC0
FF00003FC0
FF00003FC0
FF00003FC0
FF00003FC0
FF00003FC0
FF00003FC0
FF00003FC0
FF00003FC0
FF00003FC0
FF00003FC0
FF00003FC0
FF00003FC0
FF00003FC0
FF00003FC0
FF00003F80
FF00003F80
7F00007F80
7F80007F80
7F8000FF00
3FC001FF00
3FE003FE00
1FF80FFE00
0FFFFFFC00
07FFFFF800
03FFFFF000
01FFFFC000
007FFF8000
000FF80000
ENDCHAR
STARTCHAR 01DC
ENCODING 476
SWIDTH 576 0
DWIDTH 32 0
BBX 25 50 3 0
BITMAP
1FC00000
0FF00000
07F80000
03F80000
01FC0000
00FE0000
007E0000
003F0000
00078000
00000000
03807800
07C0FC00
0FE1FC00
0FE1FE00
0FE1FE00
0FE1FC00
0FE0FC00
03807800
00000000
00000000
00000000
FE003F80
FE003F80
FE003F80
FE003F80
FE003F80
FE003F80
FE003F80
FE003F80
FE003F80
FE003F80
FE003F80
FE003F80
FE003F80
FE003F80
FE003F80
FE003F80
FE003F80
FE003F80
FE003F80
FE003F80
FE003F80
FF003F80
7F00FF80
7FC1FF80
3FFFFF80
3FFFFF80
1FFF9F80
0FFF1F80
03FC0F80
ENDCHAR
STARTCHAR 01DD
ENCODING 477
SWIDTH 540 0
DWIDTH 30 0
BBX 26 29 2 0
BITMAP
01FF0000
0FFFE000
3FFFF000
7FFFFC00
FFFFFE00
7F03FE00
3C00FF00
00007F00
00003F80
00003F80
00001FC0
00001FC0
00001FC0
FFFFFFC0
FFFFFFC0
FFFFFFC0
FFFFFFC0
FC001FC0
FC001FC0
FC003F80
FE003F80
7E007F80
7F00FF00
3FC1FF00
3FFFFE00
1FFFFC00
0FFFF800
03FFE000
00FF0000
ENDCHAR
STARTCHAR 01DE
ENCODING 478
SWIDTH 702 0
DWIDTH 39 0
BBX 39 56 0 0
BITMAP
001FFFF000
001FFFF000
001FFFF000
001FFFF000
0000000000
0000000000
001E01E000
003F03F000
007F83F800
007F83F800
007F83F800
003F03F000
001E01E000
0000000000
0000000000
0000000000
0001FF0000
0001FF0000
0001FF0000
0003FF8000
0003FF8000
0007FF8000
0007FFC000
0007EFC000
000FEFE000
000FEFE000
001FCFE000
001FC7F000
001FC7F000
003F83F800
003F83F800
007F83F800
007F01FC00
007F01FC00
00FE01FE00
00FE00FE00
01FE00FE00
01FC007F00
01FC007F00
03FC007F80
03F8003F80
07FFFFFF80
07FFFFFFC0
07FFFFFFC0
0FFFFFFFE0
0FFFFFFFE0
1FE0000FE0
1FE0000FF0
1FC00007F0
3FC00007F8
3F800007F8
7F800003F8
7F800003FC
7F000001FC
FF000001FE
FE000000FE
ENDCHAR
STARTCHAR 01DF
ENCODING 479
SWIDTH 504 0
DWIDTH 28 0
BBX 24 47 1 0
BITMAP
07FFFC
07FFFC
07FFFC
07FFFC
07FFFC
000000
000000
038078
07C0FC
0FE1FC
0FE1FE
0FE1FE
0FE1FC
0FE0FC
038078
000000
000000
000000
007F80
03FFE0
0FFFF8
1FFFFC
3FFFFE
1FC1FE
1F00FF
00007F
00007F
00003F
00003F
00003F
001FFF
01FFFF
07FFFF
1FFFFF
3FF03F
7F803F
7F003F
7E003F
FE003F
FE007F
FE00FF
7F83FF
7FFFFF
7FFFFF
3FFF1F
1FFE1F
07F01F
ENDCHAR
STARTCHAR 01E0
ENCODING 480
SWIDTH 702 0
DWIDTH 39 0
BBX 39 58 0 0
BITMAP
001FFFF000
001FFFF000
001FFFF000
001FFFF000
0000000000
0000000000
0000000000
0000780000
0000FC0000
0001FE0000
0001FE0000
0001FE0000
0001FE0000
0000FC0000
0000780000
0000000000
0000000000
0000000000
0001FF0000
0001FF0000
0001FF0000
0003FF8000
0003FF8000
0007FF8000
0007FFC000
0007EFC000
000FEFE000
000FEFE000
001FCFE000
001FC7F000
001FC7F000
003F83F800
003F83F800
007F83F800
007F01FC00
007F01FC00
00FE01FE00
00FE00FE00
01FE00FE00
01FC007F00
01FC007F00
03FC007F80
03F8003F80
07FFFFFF80
07FFFFFFC0
07FFFFFFC0
0FFFFFFFE0
0FFFFFFFE0
1FE0000FE0
1FE0000FF0
1FC00007F0
3FC00007F8
3F800007F8
7F800003F8
7F800003FC
7F000001FC
FF000001FE
FE000000FE
ENDCHAR
STARTCHAR 01E1
ENCODING 481
SWIDTH 504 0
DWIDTH 28 0
BBX 24 48 1 0
BITMAP
07FFFC
07FFFC
07FFFC
07FFFC
07FFFC
000000
000000
001E00
003F00
007F80
007FC0
007FC0
007FC0
007F80
003F00
001E00
000000
000000
000000
007F80
03FFE0
0FFFF8
1FFFFC
3FFFFE
1FC1FE
1F00FF
00007F
00007F
00003F
00003F
00003F
001FFF
01FFFF
07FFFF
1FFFFF
3FF03F
7F803F
7F003F
7E003F
FE003F
FE007F
FE00FF
7F83FF
7FFFFF
7FFFFF
3FFF1F
1FFE1F
07F01F
ENDCHAR
STARTCHAR 01E2
ENCODING 482
SWIDTH 936 0
DWIDTH 52 0
BBX 51 48 -1 0
BITMAP
0000000FFFF800
0000000FFFF800
0000000FFFF800
0000000FFFF800
00000000000000
00000000000000
00000000000000
00000000000000
000007FFFFFFE0
00000FFFFFFFE0
00000FFFFFFFE0
00001FFFFFFFE0
00001FFFFFFFE0
00003FFFFFFFE0
00003F7F000000
00007F7F000000
00007E7F000000
0000FE7F000000
0000FE7F000000
0001FC7F000000
0001FC7F000000
0003F87F800000
0003F83F800000
0007F03F800000
0007F03F800000
000FE03FFFFE00
001FE03FFFFE00
001FC03FFFFE00
003FC03FFFFE00
003F803FFFFE00
007F801FFFFE00
007F001FC00000
00FF001FC00000
00FFFFFFC00000
01FFFFFFC00000
01FFFFFFC00000
03FFFFFFC00000
03FFFFFFE00000
07F8000FE00000
07F0000FE00000
0FF0000FE00000
0FE0000FE00000
1FE0000FFFFFE0
1FC0000FFFFFE0
3FC0000FFFFFE0
3F80000FFFFFE0
7F800007FFFFE0
FF000007FFFFE0
ENDCHAR
STARTCHAR 01E3
ENCODING 483
SWIDTH 810 0
DWIDTH 45 0
BBX 43 39 1 0
BITMAP
0007FFFC0000
0007FFFC0000
0007FFFC0000
0007FFFC0000
0007FFFC0000
000000000000
000000000000
000000000000
000000000000
000000000000
007F801FC000
03FFE07FF800
0FFFF1FFFC00
1FFFFBFFFE00
3FFFFFFFFF00
3FC1FFF07F80
1F00FFE03F80
0C007FC01F80
00007F800FC0
00003F800FC0
00003F800FC0
00003F000FC0
001FFFFFFFC0
01FFFFFFFFE0
07FFFFFFFFC0
1FFFFFFFFFC0
3FF03F000000
3F803F000000
7F003F800000
7E007F800000
FE007F800000
FE007FC00000
FF00FFE00780
7F83FFF81FC0
7FFFF7FFFFC0
3FFFE3FFFF80
3FFFC1FFFF00
0FFF807FFC00
03FC001FE000
ENDCHAR
STARTCHAR 01E4
ENCODING 484
SWIDTH 756 0
DWIDTH 42 0
BBX 40 40 2 0
BITMAP
0000FFC000
000FFFFC00
003FFFFF00
00FFFFFFC0
01FFFFFFE0
03FFFFFFF0
07FF807FE0
0FFC000FC0
1FF80003C0
1FF0000000
3FE0000000
3FC0000000
7F80000000
7F80000000
7F80000000
FF00000000
FF00000000
FF00000000
FF0003FFF0
FF0003FFF0
FF0003FFF0
FF0003FFF0
FF0001FFF0
FF000007F0
7F000007F0
7F8003FFFF
7F8003FFFF
7FC003FFFF
3FC003FFFF
3FE001FFFF
1FF00007F0
1FF80007F0
0FFE000FF0
07FF803FF0
03FFFFFFF0
01FFFFFFF0
00FFFFFFE0
003FFFFF80
000FFFFE00
0000FFE000
ENDCHAR
STARTCHAR 01E5
ENCODING 485
SWIDTH 558 0
DWIDTH 31 0
BBX 32 39 0 -10
BITMAP
001FE000
00FFF800
01FFFFFC
03FFFFFC
07FFFFFC
0FF07FF8
0FE01FC0
0FC00FC0
1FC00FC0
1FC00FC0
1FC00FC0
0FC00FC0
0FE01FC0
0FF07F80
07FFFF80
03FFFF00
01FFFE00
00FFF800
03FFE000
07C00000
0FE00000
0FFFF800
07FFFF80
07FFFFC0
01FFFFF0
03FFFFF0
07C00FF8
0F8003F8
FFFFFFFF
FFFFFFFF
FFFFFFFF
FFFFFFFF
FF8003FF
1FE007F0
1FFFFFE0
0FFFFFC0
07FFFF80
01FFFE00
003FF000
ENDCHAR
STARTCHAR 01E6
ENCODING 486
SWIDTH 738 0
DWIDTH 41 0
BBX 36 51 2 0
BITMAP
001F003E00
000FC0FC00
0007E1F800
0003F3F800
0001FBF000
0000FFE000
00007FC000
00007F8000
0000000000
0000000000
0000000000
0000FFC000
000FFFFC00
003FFFFF00
00FFFFFFC0
01FFFFFFE0
03FFFFFFF0
07FF807FE0
0FFC000FC0
1FF80003C0
1FF0000000
3FE0000000
3FC0000000
7F80000000
7F80000000
7F80000000
FF00000000
FF00000000
FF00000000
FF00000000
FF00000000
FF0003FFF0
FF0003FFF0
FF0003FFF0
FF0003FFF0
7F0001FFF0
7F800007F0
7F800007F0
7FC00007F0
3FC00007F0
3FE00007F0
1FF00007F0
0FF80007F0
0FFE0007F0
07FF803FF0
03FFFFFFF0
01FFFFFFF0
007FFFFFE0
001FFFFF80
0007FFFE00
00007FE000
ENDCHAR
STARTCHAR 01E7
ENCODING 487
SWIDTH 540 0
DWIDTH 30 0
BBX 28 50 1 -10
BITMAP
0FC07E00
07E0FC00
03F1F800
01FBF000
01FFE000
00FFC000
007F8000
00000000
00000000
00000000
00000000
007F8000
03FFE000
07FFFFF0
0FFFFFF0
1FFFFFF0
3FC0FFE0
3F807F00
3F003F00
3F003F00
3F003F00
3F003F00
3F003F00
3F807F00
3FC0FE00
1FFFFE00
0FFFFC00
07FFF800
03FFE000
0FFF8000
1F800000
1F000000
3FC00000
3FFFF000
1FFFFF00
1FFFFF80
07FFFFC0
1FFFFFE0
3F003FE0
7E000FE0
7E0007E0
FC0007E0
FE000FE0
FE001FC0
7F807FC0
7FFFFF80
3FFFFF00
1FFFFE00
07FFF800
00FFC000
ENDCHAR
STARTCHAR 01E8
ENCODING 488
SWIDTH 684 0
DWIDTH 38 0
BBX 34 51 5 0
BITMAP
07C00F8000
03F03F0000
01F87E0000
00FCFE0000
007EFC0000
003FF80000
001FF00000
001FE00000
0000000000
0000000000
0000000000
FE0000FF80
FE0001FF00
FE0003FE00
FE0007FC00
FE0007F800
FE000FF000
FE001FF000
FE003FE000
FE007FC000
FE007F8000
FE00FF0000
FE01FE0000
FE03FE0000
FE03FC0000
FE07F80000
FE0FF00000
FE1FE00000
FFFFE00000
FFFF800000
FFFFC00000
FFFFE00000
FFFFF00000
FE0FF80000
FE07F80000
FE03FC0000
FE03FE0000
FE01FF0000
FE00FF0000
FE007F8000
FE007FC000
FE003FE000
FE001FE000
FE000FF000
FE000FF800
FE0007FC00
FE0003FC00
FE0001FE00
FE0001FF00
FE0000FF80
FE00007FC0
ENDCHAR
STARTCHAR 01E9
ENCODING 489
SWIDTH 540 0
DWIDTH 30 0
BBX 33 51 -3 0
BITMAP
F801F00000
7E07E00000
3F0FC00000
1F9FC00000
0FDF800000
07FF000000
03FE000000
03FC000000
0000000000
0000000000
03F8000000
03F8000000
03F8000000
03F8000000
03F8000000
03F8000000
03F8000000
03F8000000
03F8000000
03F8000000
03F8000000
03F8000000
03F800FF00
03F801FE00
03F801FC00
03F803FC00
03F807F800
03F80FF000
03F81FE000
03F81FC000
03F83F8000
03F87F8000
03F8FF0000
03FFFE0000
03FFFC0000
03FFFC0000
03FFFE0000
03FFFF0000
03F87F0000
03F87F8000
03F83FC000
03F81FC000
03F81FE000
03F80FF000
03F807F000
03F807F800
03F803FC00
03F801FE00
03F801FE00
03F800FF00
03F8007F80
ENDCHAR
STARTCHAR 01EA
ENCODING 490
SWIDTH 810 0
DWIDTH 45 0
BBX 41 49 2 -9
BITMAP
0000FFC00000
000FFFF80000
003FFFFE0000
00FFFFFF8000
01FFFFFFC000
03FFFFFFE000
07FF80FFF000
0FFC001FF800
1FF80007FC00
1FE00003FC00
3FE00001FE00
3FC00001FE00
7F800000FF00
7F800000FF00
7F8000007F00
7F0000007F80
FF0000007F80
FF0000007F80
FF0000007F80
FF0000007F80
FF0000007F80
FF0000007F80
FF0000007F80
FF0000007F80
FF0000007F80
7F8000007F00
7F800000FF00
7F800000FF00
3FC00001FE00
3FE00001FE00
1FE00003FC00
1FF80007FC00
0FFC001FF800
07FF807FF000
03FFFFFFE000
01FFFFFFC000
00FFFFFF8000
003FFFFE0000
000FFFF80000
0001FF800000
00001E000000
00003C000000
000078000000
0000F8000000
0000FC000000
0000FFC00000
0000FFE00000
00007FE00000
00001F800000
ENDCHAR
STARTCHAR 01EB
ENCODING 491
SWIDTH 576 0
DWIDTH 32 0
BBX 28 38 2 -9
BITMAP
003FC000
01FFF800
07FFFE00
0FFFFF00
1FFFFF80
3FE07FC0
3FC01FC0
7F801FE0
7F000FE0
7F000FF0
FE0007F0
FE0007F0
FE0007F0
FE0007F0
FE0007F0
FE0007F0
FE0007F0
FE0007F0
FE0007F0
FF000FF0
7F000FE0
7F801FE0
3FC01FC0
3FE07FC0
1FFFFF80
0FFFFF00
07FFFE00
01FFF800
007FC000
000F0000
001E0000
003E0000
003E0000
007E0000
007FE000
003FF000
003FF000
000FC000
ENDCHAR
ENDFONT
